<svg xmlns="http://www.w3.org/2000/svg" xmlns:xlink="http://www.w3.org/1999/xlink" version="1.1" class="marks" width="800" height="450" viewBox="0 0 800 450"><rect width="800" height="450" fill="white"/><g fill="none" stroke-miterlimit="10" transform="translate(54,22)"><g class="mark-group role-frame root" role="graphics-object" aria-roledescription="group mark container"><g transform="translate(0,0)"><path class="background" aria-hidden="true" d="M0,0h576v396h-576Z"/><g><g class="mark-group role-axis" role="graphics-symbol" aria-roledescription="axis" aria-label="X-axis titled 'q' for a linear scale with values from 0.0 to 1.0"><g transform="translate(0.5,396.5)"><path class="background" aria-hidden="true" d="M0,0h0v0h0Z" pointer-events="none"/><g><g class="mark-rule role-axis-grid" pointer-events="none"><line transform="translate(0,0)" x2="0" y2="-396" stroke="#ddd" stroke-width="1" opacity="1"/><line transform="translate(58,0)" x2="0" y2="-396" stroke="#ddd" stroke-width="1" opacity="1"/><line transform="translate(115,0)" x2="0" y2="-396" stroke="#ddd" stroke-width="1" opacity="1"/><line transform="translate(173,0)" x2="0" y2="-396" stroke="#ddd" stroke-width="1" opacity="1"/><line transform="translate(230,0)" x2="0" y2="-396" stroke="#ddd" stroke-width="1" opacity="1"/><line transform="translate(288,0)" x2="0" y2="-396" stroke="#ddd" stroke-width="1" opacity="1"/><line transform="translate(346,0)" x2="0" y2="-396" stroke="#ddd" stroke-width="1" opacity="1"/><line transform="translate(403,0)" x2="0" y2="-396" stroke="#ddd" stroke-width="1" opacity="1"/><line transform="translate(461,0)" x2="0" y2="-396" stroke="#ddd" stroke-width="1" opacity="1"/><line transform="translate(518,0)" x2="0" y2="-396" stroke="#ddd" stroke-width="1" opacity="1"/><line transform="translate(576,0)" x2="0" y2="-396" stroke="#ddd" stroke-width="1" opacity="1"/></g><g class="mark-rule role-axis-tick" pointer-events="none"><line transform="translate(0,0)" x2="0" y2="5" stroke="#888" stroke-width="1" opacity="1"/><line transform="translate(58,0)" x2="0" y2="5" stroke="#888" stroke-width="1" opacity="1"/><line transform="translate(115,0)" x2="0" y2="5" stroke="#888" stroke-width="1" opacity="1"/><line transform="translate(173,0)" x2="0" y2="5" stroke="#888" stroke-width="1" opacity="1"/><line transform="translate(230,0)" x2="0" y2="5" stroke="#888" stroke-width="1" opacity="1"/><line transform="translate(288,0)" x2="0" y2="5" stroke="#888" stroke-width="1" opacity="1"/><line transform="translate(346,0)" x2="0" y2="5" stroke="#888" stroke-width="1" opacity="1"/><line transform="translate(403,0)" x2="0" y2="5" stroke="#888" stroke-width="1" opacity="1"/><line transform="translate(461,0)" x2="0" y2="5" stroke="#888" stroke-width="1" opacity="1"/><line transform="translate(518,0)" x2="0" y2="5" stroke="#888" stroke-width="1" opacity="1"/><line transform="translate(576,0)" x2="0" y2="5" stroke="#888" stroke-width="1" opacity="1"/></g><g class="mark-text role-axis-label" pointer-events="none"><text text-anchor="middle" transform="translate(0,15)" font-family="sans-serif" font-size="10px" fill="#000" opacity="1">0.0</text><text text-anchor="middle" transform="translate(58,15)" font-family="sans-serif" font-size="10px" fill="#000" opacity="1">0.1</text><text text-anchor="middle" transform="translate(115,15)" font-family="sans-serif" font-size="10px" fill="#000" opacity="1">0.2</text><text text-anchor="middle" transform="translate(173,15)" font-family="sans-serif" font-size="10px" fill="#000" opacity="1">0.3</text><text text-anchor="middle" transform="translate(230,15)" font-family="sans-serif" font-size="10px" fill="#000" opacity="1">0.4</text><text text-anchor="middle" transform="translate(288,15)" font-family="sans-serif" font-size="10px" fill="#000" opacity="1">0.5</text><text text-anchor="middle" transform="translate(346,15)" font-family="sans-serif" font-size="10px" fill="#000" opacity="1">0.6</text><text text-anchor="middle" transform="translate(403,15)" font-family="sans-serif" font-size="10px" fill="#000" opacity="1">0.7</text><text text-anchor="middle" transform="translate(461,15)" font-family="sans-serif" font-size="10px" fill="#000" opacity="1">0.8</text><text text-anchor="middle" transform="translate(518,15)" font-family="sans-serif" font-size="10px" fill="#000" opacity="1">0.9</text><text text-anchor="middle" transform="translate(576,15)" font-family="sans-serif" font-size="10px" fill="#000" opacity="1">1.0</text></g><g class="mark-text role-axis-title" pointer-events="none"><text text-anchor="middle" transform="translate(288,30)" font-family="sans-serif" font-size="11px" font-weight="bold" fill="#000" opacity="1">q</text></g></g><path class="foreground" aria-hidden="true" d="" pointer-events="none" display="none"/></g></g><g class="mark-group role-axis" role="graphics-symbol" aria-roledescription="axis" aria-label="Y-axis titled 'benchmark-investor' for a linear scale with values from 0.81 to 0.92"><g transform="translate(0.5,0.5)"><path class="background" aria-hidden="true" d="M0,0h0v0h0Z" pointer-events="none"/><g><g class="mark-rule role-axis-grid" pointer-events="none"><line transform="translate(0,396)" x2="576" y2="0" stroke="#ddd" stroke-width="1" opacity="1"/><line transform="translate(0,360)" x2="576" y2="0" stroke="#ddd" stroke-width="1" opacity="1"/><line transform="translate(0,324)" x2="576" y2="0" stroke="#ddd" stroke-width="1" opacity="1"/><line transform="translate(0,288)" x2="576" y2="0" stroke="#ddd" stroke-width="1" opacity="1"/><line transform="translate(0,252)" x2="576" y2="0" stroke="#ddd" stroke-width="1" opacity="1"/><line transform="translate(0,216)" x2="576" y2="0" stroke="#ddd" stroke-width="1" opacity="1"/><line transform="translate(0,180)" x2="576" y2="0" stroke="#ddd" stroke-width="1" opacity="1"/><line transform="translate(0,144)" x2="576" y2="0" stroke="#ddd" stroke-width="1" opacity="1"/><line transform="translate(0,108)" x2="576" y2="0" stroke="#ddd" stroke-width="1" opacity="1"/><line transform="translate(0,72)" x2="576" y2="0" stroke="#ddd" stroke-width="1" opacity="1"/><line transform="translate(0,36)" x2="576" y2="0" stroke="#ddd" stroke-width="1" opacity="1"/><line transform="translate(0,0)" x2="576" y2="0" stroke="#ddd" stroke-width="1" opacity="1"/></g><g class="mark-rule role-axis-tick" pointer-events="none"><line transform="translate(0,396)" x2="-5" y2="0" stroke="#888" stroke-width="1" opacity="1"/><line transform="translate(0,360)" x2="-5" y2="0" stroke="#888" stroke-width="1" opacity="1"/><line transform="translate(0,324)" x2="-5" y2="0" stroke="#888" stroke-width="1" opacity="1"/><line transform="translate(0,288)" x2="-5" y2="0" stroke="#888" stroke-width="1" opacity="1"/><line transform="translate(0,252)" x2="-5" y2="0" stroke="#888" stroke-width="1" opacity="1"/><line transform="translate(0,216)" x2="-5" y2="0" stroke="#888" stroke-width="1" opacity="1"/><line transform="translate(0,180)" x2="-5" y2="0" stroke="#888" stroke-width="1" opacity="1"/><line transform="translate(0,144)" x2="-5" y2="0" stroke="#888" stroke-width="1" opacity="1"/><line transform="translate(0,108)" x2="-5" y2="0" stroke="#888" stroke-width="1" opacity="1"/><line transform="translate(0,72)" x2="-5" y2="0" stroke="#888" stroke-width="1" opacity="1"/><line transform="translate(0,36)" x2="-5" y2="0" stroke="#888" stroke-width="1" opacity="1"/><line transform="translate(0,0)" x2="-5" y2="0" stroke="#888" stroke-width="1" opacity="1"/></g><g class="mark-text role-axis-label" pointer-events="none"><text text-anchor="end" transform="translate(-7,399)" font-family="sans-serif" font-size="10px" fill="#000" opacity="1">0.81</text><text text-anchor="end" transform="translate(-7,363)" font-family="sans-serif" font-size="10px" fill="#000" opacity="1">0.82</text><text text-anchor="end" transform="translate(-7,327)" font-family="sans-serif" font-size="10px" fill="#000" opacity="1">0.83</text><text text-anchor="end" transform="translate(-7,291)" font-family="sans-serif" font-size="10px" fill="#000" opacity="1">0.84</text><text text-anchor="end" transform="translate(-7,255)" font-family="sans-serif" font-size="10px" fill="#000" opacity="1">0.85</text><text text-anchor="end" transform="translate(-7,219)" font-family="sans-serif" font-size="10px" fill="#000" opacity="1">0.86</text><text text-anchor="end" transform="translate(-7,183)" font-family="sans-serif" font-size="10px" fill="#000" opacity="1">0.87</text><text text-anchor="end" transform="translate(-7,147)" font-family="sans-serif" font-size="10px" fill="#000" opacity="1">0.88</text><text text-anchor="end" transform="translate(-7,111)" font-family="sans-serif" font-size="10px" fill="#000" opacity="1">0.89</text><text text-anchor="end" transform="translate(-7,75)" font-family="sans-serif" font-size="10px" fill="#000" opacity="1">0.90</text><text text-anchor="end" transform="translate(-7,39)" font-family="sans-serif" font-size="10px" fill="#000" opacity="1">0.91</text><text text-anchor="end" transform="translate(-7,3)" font-family="sans-serif" font-size="10px" fill="#000" opacity="1">0.92</text></g><g class="mark-text role-axis-title" pointer-events="none"><text text-anchor="middle" transform="translate(-43,198) rotate(-90) translate(0,-2)" font-family="sans-serif" font-size="11px" font-weight="bold" fill="#000" opacity="1">benchmark-investor</text></g></g><path class="foreground" aria-hidden="true" d="" pointer-events="none" display="none"/></g></g><g class="mark-symbol role-mark" role="graphics-symbol" aria-roledescription="symbol mark container"><path transform="translate(0,389)" d="M4,0A4,4,0,1,1,-4,0A4,4,0,1,1,4,0" fill="#4c78a8" stroke="#222" opacity="0.5"/><path transform="translate(3,387)" d="M4,0A4,4,0,1,1,-4,0A4,4,0,1,1,4,0" fill="#4c78a8" stroke="#222" opacity="0.5"/><path transform="translate(6,386)" d="M4,0A4,4,0,1,1,-4,0A4,4,0,1,1,4,0" fill="#4c78a8" stroke="#222" opacity="0.5"/><path transform="translate(9,384)" d="M4,0A4,4,0,1,1,-4,0A4,4,0,1,1,4,0" fill="#4c78a8" stroke="#222" opacity="0.5"/><path transform="translate(12,382)" d="M4,0A4,4,0,1,1,-4,0A4,4,0,1,1,4,0" fill="#4c78a8" stroke="#222" opacity="0.5"/><path transform="translate(14,381)" d="M4,0A4,4,0,1,1,-4,0A4,4,0,1,1,4,0" fill="#4c78a8" stroke="#222" opacity="0.5"/><path transform="translate(17,379)" d="M4,0A4,4,0,1,1,-4,0A4,4,0,1,1,4,0" fill="#4c78a8" stroke="#222" opacity="0.5"/><path transform="translate(20,377)" d="M4,0A4,4,0,1,1,-4,0A4,4,0,1,1,4,0" fill="#4c78a8" stroke="#222" opacity="0.5"/><path transform="translate(23,376)" d="M4,0A4,4,0,1,1,-4,0A4,4,0,1,1,4,0" fill="#4c78a8" stroke="#222" opacity="0.5"/><path transform="translate(26,374)" d="M4,0A4,4,0,1,1,-4,0A4,4,0,1,1,4,0" fill="#4c78a8" stroke="#222" opacity="0.5"/><path transform="translate(29,372)" d="M4,0A4,4,0,1,1,-4,0A4,4,0,1,1,4,0" fill="#4c78a8" stroke="#222" opacity="0.5"/><path transform="translate(32,371)" d="M4,0A4,4,0,1,1,-4,0A4,4,0,1,1,4,0" fill="#4c78a8" stroke="#222" opacity="0.5"/><path transform="translate(35,369)" d="M4,0A4,4,0,1,1,-4,0A4,4,0,1,1,4,0" fill="#4c78a8" stroke="#222" opacity="0.5"/><path transform="translate(37,367)" d="M4,0A4,4,0,1,1,-4,0A4,4,0,1,1,4,0" fill="#4c78a8" stroke="#222" opacity="0.5"/><path transform="translate(40,366)" d="M4,0A4,4,0,1,1,-4,0A4,4,0,1,1,4,0" fill="#4c78a8" stroke="#222" opacity="0.5"/><path transform="translate(43,364)" d="M4,0A4,4,0,1,1,-4,0A4,4,0,1,1,4,0" fill="#4c78a8" stroke="#222" opacity="0.5"/><path transform="translate(46,362)" d="M4,0A4,4,0,1,1,-4,0A4,4,0,1,1,4,0" fill="#4c78a8" stroke="#222" opacity="0.5"/><path transform="translate(49,360)" d="M4,0A4,4,0,1,1,-4,0A4,4,0,1,1,4,0" fill="#4c78a8" stroke="#222" opacity="0.5"/><path transform="translate(52,359)" d="M4,0A4,4,0,1,1,-4,0A4,4,0,1,1,4,0" fill="#4c78a8" stroke="#222" opacity="0.5"/><path transform="translate(55,357)" d="M4,0A4,4,0,1,1,-4,0A4,4,0,1,1,4,0" fill="#4c78a8" stroke="#222" opacity="0.5"/><path transform="translate(58,355)" d="M4,0A4,4,0,1,1,-4,0A4,4,0,1,1,4,0" fill="#4c78a8" stroke="#222" opacity="0.5"/><path transform="translate(60,354)" d="M4,0A4,4,0,1,1,-4,0A4,4,0,1,1,4,0" fill="#4c78a8" stroke="#222" opacity="0.5"/><path transform="translate(63,352)" d="M4,0A4,4,0,1,1,-4,0A4,4,0,1,1,4,0" fill="#4c78a8" stroke="#222" opacity="0.5"/><path transform="translate(66,350)" d="M4,0A4,4,0,1,1,-4,0A4,4,0,1,1,4,0" fill="#4c78a8" stroke="#222" opacity="0.5"/><path transform="translate(69,348)" d="M4,0A4,4,0,1,1,-4,0A4,4,0,1,1,4,0" fill="#4c78a8" stroke="#222" opacity="0.5"/><path transform="translate(72,347)" d="M4,0A4,4,0,1,1,-4,0A4,4,0,1,1,4,0" fill="#4c78a8" stroke="#222" opacity="0.5"/><path transform="translate(75,345)" d="M4,0A4,4,0,1,1,-4,0A4,4,0,1,1,4,0" fill="#4c78a8" stroke="#222" opacity="0.5"/><path transform="translate(78,343)" d="M4,0A4,4,0,1,1,-4,0A4,4,0,1,1,4,0" fill="#4c78a8" stroke="#222" opacity="0.5"/><path transform="translate(81,342)" d="M4,0A4,4,0,1,1,-4,0A4,4,0,1,1,4,0" fill="#4c78a8" stroke="#222" opacity="0.5"/><path transform="translate(84,340)" d="M4,0A4,4,0,1,1,-4,0A4,4,0,1,1,4,0" fill="#4c78a8" stroke="#222" opacity="0.5"/><path transform="translate(86,338)" d="M4,0A4,4,0,1,1,-4,0A4,4,0,1,1,4,0" fill="#4c78a8" stroke="#222" opacity="0.5"/><path transform="translate(89,336)" d="M4,0A4,4,0,1,1,-4,0A4,4,0,1,1,4,0" fill="#4c78a8" stroke="#222" opacity="0.5"/><path transform="translate(92,335)" d="M4,0A4,4,0,1,1,-4,0A4,4,0,1,1,4,0" fill="#4c78a8" stroke="#222" opacity="0.5"/><path transform="translate(95,333)" d="M4,0A4,4,0,1,1,-4,0A4,4,0,1,1,4,0" fill="#4c78a8" stroke="#222" opacity="0.5"/><path transform="translate(98,331)" d="M4,0A4,4,0,1,1,-4,0A4,4,0,1,1,4,0" fill="#4c78a8" stroke="#222" opacity="0.5"/><path transform="translate(101,329)" d="M4,0A4,4,0,1,1,-4,0A4,4,0,1,1,4,0" fill="#4c78a8" stroke="#222" opacity="0.5"/><path transform="translate(104,328)" d="M4,0A4,4,0,1,1,-4,0A4,4,0,1,1,4,0" fill="#4c78a8" stroke="#222" opacity="0.5"/><path transform="translate(107,326)" d="M4,0A4,4,0,1,1,-4,0A4,4,0,1,1,4,0" fill="#4c78a8" stroke="#222" opacity="0.5"/><path transform="translate(109,324)" d="M4,0A4,4,0,1,1,-4,0A4,4,0,1,1,4,0" fill="#4c78a8" stroke="#222" opacity="0.5"/><path transform="translate(112,322)" d="M4,0A4,4,0,1,1,-4,0A4,4,0,1,1,4,0" fill="#4c78a8" stroke="#222" opacity="0.5"/><path transform="translate(115,321)" d="M4,0A4,4,0,1,1,-4,0A4,4,0,1,1,4,0" fill="#4c78a8" stroke="#222" opacity="0.5"/><path transform="translate(118,319)" d="M4,0A4,4,0,1,1,-4,0A4,4,0,1,1,4,0" fill="#4c78a8" stroke="#222" opacity="0.5"/><path transform="translate(121,317)" d="M4,0A4,4,0,1,1,-4,0A4,4,0,1,1,4,0" fill="#4c78a8" stroke="#222" opacity="0.5"/><path transform="translate(124,315)" d="M4,0A4,4,0,1,1,-4,0A4,4,0,1,1,4,0" fill="#4c78a8" stroke="#222" opacity="0.5"/><path transform="translate(127,314)" d="M4,0A4,4,0,1,1,-4,0A4,4,0,1,1,4,0" fill="#4c78a8" stroke="#222" opacity="0.5"/><path transform="translate(130,312)" d="M4,0A4,4,0,1,1,-4,0A4,4,0,1,1,4,0" fill="#4c78a8" stroke="#222" opacity="0.5"/><path transform="translate(132,310)" d="M4,0A4,4,0,1,1,-4,0A4,4,0,1,1,4,0" fill="#4c78a8" stroke="#222" opacity="0.5"/><path transform="translate(135,308)" d="M4,0A4,4,0,1,1,-4,0A4,4,0,1,1,4,0" fill="#4c78a8" stroke="#222" opacity="0.5"/><path transform="translate(138,307)" d="M4,0A4,4,0,1,1,-4,0A4,4,0,1,1,4,0" fill="#4c78a8" stroke="#222" opacity="0.5"/><path transform="translate(141,305)" d="M4,0A4,4,0,1,1,-4,0A4,4,0,1,1,4,0" fill="#4c78a8" stroke="#222" opacity="0.5"/><path transform="translate(144,303)" d="M4,0A4,4,0,1,1,-4,0A4,4,0,1,1,4,0" fill="#4c78a8" stroke="#222" opacity="0.5"/><path transform="translate(147,301)" d="M4,0A4,4,0,1,1,-4,0A4,4,0,1,1,4,0" fill="#4c78a8" stroke="#222" opacity="0.5"/><path transform="translate(150,299)" d="M4,0A4,4,0,1,1,-4,0A4,4,0,1,1,4,0" fill="#4c78a8" stroke="#222" opacity="0.5"/><path transform="translate(153,298)" d="M4,0A4,4,0,1,1,-4,0A4,4,0,1,1,4,0" fill="#4c78a8" stroke="#222" opacity="0.5"/><path transform="translate(156,296)" d="M4,0A4,4,0,1,1,-4,0A4,4,0,1,1,4,0" fill="#4c78a8" stroke="#222" opacity="0.5"/><path transform="translate(158,294)" d="M4,0A4,4,0,1,1,-4,0A4,4,0,1,1,4,0" fill="#4c78a8" stroke="#222" opacity="0.5"/><path transform="translate(161,292)" d="M4,0A4,4,0,1,1,-4,0A4,4,0,1,1,4,0" fill="#4c78a8" stroke="#222" opacity="0.5"/><path transform="translate(164,291)" d="M4,0A4,4,0,1,1,-4,0A4,4,0,1,1,4,0" fill="#4c78a8" stroke="#222" opacity="0.5"/><path transform="translate(167,289)" d="M4,0A4,4,0,1,1,-4,0A4,4,0,1,1,4,0" fill="#4c78a8" stroke="#222" opacity="0.5"/><path transform="translate(170,287)" d="M4,0A4,4,0,1,1,-4,0A4,4,0,1,1,4,0" fill="#4c78a8" stroke="#222" opacity="0.5"/><path transform="translate(173,285)" d="M4,0A4,4,0,1,1,-4,0A4,4,0,1,1,4,0" fill="#4c78a8" stroke="#222" opacity="0.5"/><path transform="translate(176,283)" d="M4,0A4,4,0,1,1,-4,0A4,4,0,1,1,4,0" fill="#4c78a8" stroke="#222" opacity="0.5"/><path transform="translate(179,282)" d="M4,0A4,4,0,1,1,-4,0A4,4,0,1,1,4,0" fill="#4c78a8" stroke="#222" opacity="0.5"/><path transform="translate(181,280)" d="M4,0A4,4,0,1,1,-4,0A4,4,0,1,1,4,0" fill="#4c78a8" stroke="#222" opacity="0.5"/><path transform="translate(184,278)" d="M4,0A4,4,0,1,1,-4,0A4,4,0,1,1,4,0" fill="#4c78a8" stroke="#222" opacity="0.5"/><path transform="translate(187,276)" d="M4,0A4,4,0,1,1,-4,0A4,4,0,1,1,4,0" fill="#4c78a8" stroke="#222" opacity="0.5"/><path transform="translate(190,274)" d="M4,0A4,4,0,1,1,-4,0A4,4,0,1,1,4,0" fill="#4c78a8" stroke="#222" opacity="0.5"/><path transform="translate(193,273)" d="M4,0A4,4,0,1,1,-4,0A4,4,0,1,1,4,0" fill="#4c78a8" stroke="#222" opacity="0.5"/><path transform="translate(196,271)" d="M4,0A4,4,0,1,1,-4,0A4,4,0,1,1,4,0" fill="#4c78a8" stroke="#222" opacity="0.5"/><path transform="translate(199,269)" d="M4,0A4,4,0,1,1,-4,0A4,4,0,1,1,4,0" fill="#4c78a8" stroke="#222" opacity="0.5"/><path transform="translate(202,267)" d="M4,0A4,4,0,1,1,-4,0A4,4,0,1,1,4,0" fill="#4c78a8" stroke="#222" opacity="0.5"/><path transform="translate(204,265)" d="M4,0A4,4,0,1,1,-4,0A4,4,0,1,1,4,0" fill="#4c78a8" stroke="#222" opacity="0.5"/><path transform="translate(207,264)" d="M4,0A4,4,0,1,1,-4,0A4,4,0,1,1,4,0" fill="#4c78a8" stroke="#222" opacity="0.5"/><path transform="translate(210,262)" d="M4,0A4,4,0,1,1,-4,0A4,4,0,1,1,4,0" fill="#4c78a8" stroke="#222" opacity="0.5"/><path transform="translate(213,260)" d="M4,0A4,4,0,1,1,-4,0A4,4,0,1,1,4,0" fill="#4c78a8" stroke="#222" opacity="0.5"/><path transform="translate(216,258)" d="M4,0A4,4,0,1,1,-4,0A4,4,0,1,1,4,0" fill="#4c78a8" stroke="#222" opacity="0.5"/><path transform="translate(219,256)" d="M4,0A4,4,0,1,1,-4,0A4,4,0,1,1,4,0" fill="#4c78a8" stroke="#222" opacity="0.5"/><path transform="translate(222,254)" d="M4,0A4,4,0,1,1,-4,0A4,4,0,1,1,4,0" fill="#4c78a8" stroke="#222" opacity="0.5"/><path transform="translate(225,253)" d="M4,0A4,4,0,1,1,-4,0A4,4,0,1,1,4,0" fill="#4c78a8" stroke="#222" opacity="0.5"/><path transform="translate(228,251)" d="M4,0A4,4,0,1,1,-4,0A4,4,0,1,1,4,0" fill="#4c78a8" stroke="#222" opacity="0.5"/><path transform="translate(230,249)" d="M4,0A4,4,0,1,1,-4,0A4,4,0,1,1,4,0" fill="#4c78a8" stroke="#222" opacity="0.5"/><path transform="translate(233,247)" d="M4,0A4,4,0,1,1,-4,0A4,4,0,1,1,4,0" fill="#4c78a8" stroke="#222" opacity="0.5"/><path transform="translate(236,245)" d="M4,0A4,4,0,1,1,-4,0A4,4,0,1,1,4,0" fill="#4c78a8" stroke="#222" opacity="0.5"/><path transform="translate(239,243)" d="M4,0A4,4,0,1,1,-4,0A4,4,0,1,1,4,0" fill="#4c78a8" stroke="#222" opacity="0.5"/><path transform="translate(242,242)" d="M4,0A4,4,0,1,1,-4,0A4,4,0,1,1,4,0" fill="#4c78a8" stroke="#222" opacity="0.5"/><path transform="translate(245,240)" d="M4,0A4,4,0,1,1,-4,0A4,4,0,1,1,4,0" fill="#4c78a8" stroke="#222" opacity="0.5"/><path transform="translate(248,238)" d="M4,0A4,4,0,1,1,-4,0A4,4,0,1,1,4,0" fill="#4c78a8" stroke="#222" opacity="0.5"/><path transform="translate(251,236)" d="M4,0A4,4,0,1,1,-4,0A4,4,0,1,1,4,0" fill="#4c78a8" stroke="#222" opacity="0.5"/><path transform="translate(253,234)" d="M4,0A4,4,0,1,1,-4,0A4,4,0,1,1,4,0" fill="#4c78a8" stroke="#222" opacity="0.5"/><path transform="translate(256,232)" d="M4,0A4,4,0,1,1,-4,0A4,4,0,1,1,4,0" fill="#4c78a8" stroke="#222" opacity="0.5"/><path transform="translate(259,230)" d="M4,0A4,4,0,1,1,-4,0A4,4,0,1,1,4,0" fill="#4c78a8" stroke="#222" opacity="0.5"/><path transform="translate(262,229)" d="M4,0A4,4,0,1,1,-4,0A4,4,0,1,1,4,0" fill="#4c78a8" stroke="#222" opacity="0.5"/><path transform="translate(265,227)" d="M4,0A4,4,0,1,1,-4,0A4,4,0,1,1,4,0" fill="#4c78a8" stroke="#222" opacity="0.5"/><path transform="translate(268,225)" d="M4,0A4,4,0,1,1,-4,0A4,4,0,1,1,4,0" fill="#4c78a8" stroke="#222" opacity="0.5"/><path transform="translate(271,223)" d="M4,0A4,4,0,1,1,-4,0A4,4,0,1,1,4,0" fill="#4c78a8" stroke="#222" opacity="0.5"/><path transform="translate(274,221)" d="M4,0A4,4,0,1,1,-4,0A4,4,0,1,1,4,0" fill="#4c78a8" stroke="#222" opacity="0.5"/><path transform="translate(276,219)" d="M4,0A4,4,0,1,1,-4,0A4,4,0,1,1,4,0" fill="#4c78a8" stroke="#222" opacity="0.5"/><path transform="translate(279,217)" d="M4,0A4,4,0,1,1,-4,0A4,4,0,1,1,4,0" fill="#4c78a8" stroke="#222" opacity="0.5"/><path transform="translate(282,215)" d="M4,0A4,4,0,1,1,-4,0A4,4,0,1,1,4,0" fill="#4c78a8" stroke="#222" opacity="0.5"/><path transform="translate(285,214)" d="M4,0A4,4,0,1,1,-4,0A4,4,0,1,1,4,0" fill="#4c78a8" stroke="#222" opacity="0.5"/><path transform="translate(288,212)" d="M4,0A4,4,0,1,1,-4,0A4,4,0,1,1,4,0" fill="#4c78a8" stroke="#222" opacity="0.5"/><path transform="translate(291,210)" d="M4,0A4,4,0,1,1,-4,0A4,4,0,1,1,4,0" fill="#4c78a8" stroke="#222" opacity="0.5"/><path transform="translate(294,208)" d="M4,0A4,4,0,1,1,-4,0A4,4,0,1,1,4,0" fill="#4c78a8" stroke="#222" opacity="0.5"/><path transform="translate(297,206)" d="M4,0A4,4,0,1,1,-4,0A4,4,0,1,1,4,0" fill="#4c78a8" stroke="#222" opacity="0.5"/><path transform="translate(300,204)" d="M4,0A4,4,0,1,1,-4,0A4,4,0,1,1,4,0" fill="#4c78a8" stroke="#222" opacity="0.5"/><path transform="translate(302,202)" d="M4,0A4,4,0,1,1,-4,0A4,4,0,1,1,4,0" fill="#4c78a8" stroke="#222" opacity="0.5"/><path transform="translate(305,200)" d="M4,0A4,4,0,1,1,-4,0A4,4,0,1,1,4,0" fill="#4c78a8" stroke="#222" opacity="0.5"/><path transform="translate(308,198)" d="M4,0A4,4,0,1,1,-4,0A4,4,0,1,1,4,0" fill="#4c78a8" stroke="#222" opacity="0.5"/><path transform="translate(311,197)" d="M4,0A4,4,0,1,1,-4,0A4,4,0,1,1,4,0" fill="#4c78a8" stroke="#222" opacity="0.5"/><path transform="translate(314,195)" d="M4,0A4,4,0,1,1,-4,0A4,4,0,1,1,4,0" fill="#4c78a8" stroke="#222" opacity="0.5"/><path transform="translate(317,193)" d="M4,0A4,4,0,1,1,-4,0A4,4,0,1,1,4,0" fill="#4c78a8" stroke="#222" opacity="0.5"/><path transform="translate(320,191)" d="M4,0A4,4,0,1,1,-4,0A4,4,0,1,1,4,0" fill="#4c78a8" stroke="#222" opacity="0.5"/><path transform="translate(323,189)" d="M4,0A4,4,0,1,1,-4,0A4,4,0,1,1,4,0" fill="#4c78a8" stroke="#222" opacity="0.5"/><path transform="translate(325,187)" d="M4,0A4,4,0,1,1,-4,0A4,4,0,1,1,4,0" fill="#4c78a8" stroke="#222" opacity="0.5"/><path transform="translate(328,185)" d="M4,0A4,4,0,1,1,-4,0A4,4,0,1,1,4,0" fill="#4c78a8" stroke="#222" opacity="0.5"/><path transform="translate(331,183)" d="M4,0A4,4,0,1,1,-4,0A4,4,0,1,1,4,0" fill="#4c78a8" stroke="#222" opacity="0.5"/><path transform="translate(334,181)" d="M4,0A4,4,0,1,1,-4,0A4,4,0,1,1,4,0" fill="#4c78a8" stroke="#222" opacity="0.5"/><path transform="translate(337,179)" d="M4,0A4,4,0,1,1,-4,0A4,4,0,1,1,4,0" fill="#4c78a8" stroke="#222" opacity="0.5"/><path transform="translate(340,177)" d="M4,0A4,4,0,1,1,-4,0A4,4,0,1,1,4,0" fill="#4c78a8" stroke="#222" opacity="0.5"/><path transform="translate(343,175)" d="M4,0A4,4,0,1,1,-4,0A4,4,0,1,1,4,0" fill="#4c78a8" stroke="#222" opacity="0.5"/><path transform="translate(346,174)" d="M4,0A4,4,0,1,1,-4,0A4,4,0,1,1,4,0" fill="#f58518" stroke="#222" opacity="0.5"/><path transform="translate(348,172)" d="M4,0A4,4,0,1,1,-4,0A4,4,0,1,1,4,0" fill="#f58518" stroke="#222" opacity="0.5"/><path transform="translate(351,170)" d="M4,0A4,4,0,1,1,-4,0A4,4,0,1,1,4,0" fill="#f58518" stroke="#222" opacity="0.5"/><path transform="translate(354,168)" d="M4,0A4,4,0,1,1,-4,0A4,4,0,1,1,4,0" fill="#f58518" stroke="#222" opacity="0.5"/><path transform="translate(357,166)" d="M4,0A4,4,0,1,1,-4,0A4,4,0,1,1,4,0" fill="#f58518" stroke="#222" opacity="0.5"/><path transform="translate(360,164)" d="M4,0A4,4,0,1,1,-4,0A4,4,0,1,1,4,0" fill="#f58518" stroke="#222" opacity="0.5"/><path transform="translate(363,162)" d="M4,0A4,4,0,1,1,-4,0A4,4,0,1,1,4,0" fill="#f58518" stroke="#222" opacity="0.5"/><path transform="translate(366,160)" d="M4,0A4,4,0,1,1,-4,0A4,4,0,1,1,4,0" fill="#f58518" stroke="#222" opacity="0.5"/><path transform="translate(369,158)" d="M4,0A4,4,0,1,1,-4,0A4,4,0,1,1,4,0" fill="#f58518" stroke="#222" opacity="0.5"/><path transform="translate(372,156)" d="M4,0A4,4,0,1,1,-4,0A4,4,0,1,1,4,0" fill="#f58518" stroke="#222" opacity="0.5"/><path transform="translate(374,154)" d="M4,0A4,4,0,1,1,-4,0A4,4,0,1,1,4,0" fill="#f58518" stroke="#222" opacity="0.5"/><path transform="translate(377,152)" d="M4,0A4,4,0,1,1,-4,0A4,4,0,1,1,4,0" fill="#f58518" stroke="#222" opacity="0.5"/><path transform="translate(380,150)" d="M4,0A4,4,0,1,1,-4,0A4,4,0,1,1,4,0" fill="#f58518" stroke="#222" opacity="0.5"/><path transform="translate(383,148)" d="M4,0A4,4,0,1,1,-4,0A4,4,0,1,1,4,0" fill="#f58518" stroke="#222" opacity="0.5"/><path transform="translate(386,146)" d="M4,0A4,4,0,1,1,-4,0A4,4,0,1,1,4,0" fill="#f58518" stroke="#222" opacity="0.5"/><path transform="translate(389,144)" d="M4,0A4,4,0,1,1,-4,0A4,4,0,1,1,4,0" fill="#f58518" stroke="#222" opacity="0.5"/><path transform="translate(392,142)" d="M4,0A4,4,0,1,1,-4,0A4,4,0,1,1,4,0" fill="#f58518" stroke="#222" opacity="0.5"/><path transform="translate(395,140)" d="M4,0A4,4,0,1,1,-4,0A4,4,0,1,1,4,0" fill="#f58518" stroke="#222" opacity="0.5"/><path transform="translate(397,138)" d="M4,0A4,4,0,1,1,-4,0A4,4,0,1,1,4,0" fill="#f58518" stroke="#222" opacity="0.5"/><path transform="translate(400,136)" d="M4,0A4,4,0,1,1,-4,0A4,4,0,1,1,4,0" fill="#f58518" stroke="#222" opacity="0.5"/><path transform="translate(403,134)" d="M4,0A4,4,0,1,1,-4,0A4,4,0,1,1,4,0" fill="#f58518" stroke="#222" opacity="0.5"/><path transform="translate(406,133)" d="M4,0A4,4,0,1,1,-4,0A4,4,0,1,1,4,0" fill="#f58518" stroke="#222" opacity="0.5"/><path transform="translate(409,131)" d="M4,0A4,4,0,1,1,-4,0A4,4,0,1,1,4,0" fill="#f58518" stroke="#222" opacity="0.5"/><path transform="translate(412,129)" d="M4,0A4,4,0,1,1,-4,0A4,4,0,1,1,4,0" fill="#f58518" stroke="#222" opacity="0.5"/><path transform="translate(415,127)" d="M4,0A4,4,0,1,1,-4,0A4,4,0,1,1,4,0" fill="#f58518" stroke="#222" opacity="0.5"/><path transform="translate(418,125)" d="M4,0A4,4,0,1,1,-4,0A4,4,0,1,1,4,0" fill="#f58518" stroke="#222" opacity="0.5"/><path transform="translate(420,123)" d="M4,0A4,4,0,1,1,-4,0A4,4,0,1,1,4,0" fill="#f58518" stroke="#222" opacity="0.5"/><path transform="translate(423,121)" d="M4,0A4,4,0,1,1,-4,0A4,4,0,1,1,4,0" fill="#f58518" stroke="#222" opacity="0.5"/><path transform="translate(426,119)" d="M4,0A4,4,0,1,1,-4,0A4,4,0,1,1,4,0" fill="#f58518" stroke="#222" opacity="0.5"/><path transform="translate(429,117)" d="M4,0A4,4,0,1,1,-4,0A4,4,0,1,1,4,0" fill="#f58518" stroke="#222" opacity="0.5"/><path transform="translate(432,115)" d="M4,0A4,4,0,1,1,-4,0A4,4,0,1,1,4,0" fill="#f58518" stroke="#222" opacity="0.5"/><path transform="translate(435,113)" d="M4,0A4,4,0,1,1,-4,0A4,4,0,1,1,4,0" fill="#f58518" stroke="#222" opacity="0.5"/><path transform="translate(438,111)" d="M4,0A4,4,0,1,1,-4,0A4,4,0,1,1,4,0" fill="#f58518" stroke="#222" opacity="0.5"/><path transform="translate(441,109)" d="M4,0A4,4,0,1,1,-4,0A4,4,0,1,1,4,0" fill="#f58518" stroke="#222" opacity="0.5"/><path transform="translate(444,107)" d="M4,0A4,4,0,1,1,-4,0A4,4,0,1,1,4,0" fill="#f58518" stroke="#222" opacity="0.5"/><path transform="translate(446,105)" d="M4,0A4,4,0,1,1,-4,0A4,4,0,1,1,4,0" fill="#f58518" stroke="#222" opacity="0.5"/><path transform="translate(449,103)" d="M4,0A4,4,0,1,1,-4,0A4,4,0,1,1,4,0" fill="#f58518" stroke="#222" opacity="0.5"/><path transform="translate(452,101)" d="M4,0A4,4,0,1,1,-4,0A4,4,0,1,1,4,0" fill="#f58518" stroke="#222" opacity="0.5"/><path transform="translate(455,98)" d="M4,0A4,4,0,1,1,-4,0A4,4,0,1,1,4,0" fill="#f58518" stroke="#222" opacity="0.5"/><path transform="translate(458,96)" d="M4,0A4,4,0,1,1,-4,0A4,4,0,1,1,4,0" fill="#f58518" stroke="#222" opacity="0.5"/><path transform="translate(461,94)" d="M4,0A4,4,0,1,1,-4,0A4,4,0,1,1,4,0" fill="#f58518" stroke="#222" opacity="0.5"/><path transform="translate(464,92)" d="M4,0A4,4,0,1,1,-4,0A4,4,0,1,1,4,0" fill="#f58518" stroke="#222" opacity="0.5"/><path transform="translate(467,90)" d="M4,0A4,4,0,1,1,-4,0A4,4,0,1,1,4,0" fill="#f58518" stroke="#222" opacity="0.5"/><path transform="translate(469,88)" d="M4,0A4,4,0,1,1,-4,0A4,4,0,1,1,4,0" fill="#f58518" stroke="#222" opacity="0.5"/><path transform="translate(472,86)" d="M4,0A4,4,0,1,1,-4,0A4,4,0,1,1,4,0" fill="#f58518" stroke="#222" opacity="0.5"/><path transform="translate(475,84)" d="M4,0A4,4,0,1,1,-4,0A4,4,0,1,1,4,0" fill="#f58518" stroke="#222" opacity="0.5"/><path transform="translate(478,82)" d="M4,0A4,4,0,1,1,-4,0A4,4,0,1,1,4,0" fill="#f58518" stroke="#222" opacity="0.5"/><path transform="translate(481,80)" d="M4,0A4,4,0,1,1,-4,0A4,4,0,1,1,4,0" fill="#f58518" stroke="#222" opacity="0.5"/><path transform="translate(484,78)" d="M4,0A4,4,0,1,1,-4,0A4,4,0,1,1,4,0" fill="#f58518" stroke="#222" opacity="0.5"/><path transform="translate(487,76)" d="M4,0A4,4,0,1,1,-4,0A4,4,0,1,1,4,0" fill="#f58518" stroke="#222" opacity="0.5"/><path transform="translate(490,74)" d="M4,0A4,4,0,1,1,-4,0A4,4,0,1,1,4,0" fill="#f58518" stroke="#222" opacity="0.5"/><path transform="translate(492,72)" d="M4,0A4,4,0,1,1,-4,0A4,4,0,1,1,4,0" fill="#f58518" stroke="#222" opacity="0.5"/><path transform="translate(495,70)" d="M4,0A4,4,0,1,1,-4,0A4,4,0,1,1,4,0" fill="#f58518" stroke="#222" opacity="0.5"/><path transform="translate(498,68)" d="M4,0A4,4,0,1,1,-4,0A4,4,0,1,1,4,0" fill="#f58518" stroke="#222" opacity="0.5"/><path transform="translate(501,66)" d="M4,0A4,4,0,1,1,-4,0A4,4,0,1,1,4,0" fill="#f58518" stroke="#222" opacity="0.5"/><path transform="translate(504,64)" d="M4,0A4,4,0,1,1,-4,0A4,4,0,1,1,4,0" fill="#f58518" stroke="#222" opacity="0.5"/><path transform="translate(507,62)" d="M4,0A4,4,0,1,1,-4,0A4,4,0,1,1,4,0" fill="#f58518" stroke="#222" opacity="0.5"/><path transform="translate(510,60)" d="M4,0A4,4,0,1,1,-4,0A4,4,0,1,1,4,0" fill="#f58518" stroke="#222" opacity="0.5"/><path transform="translate(513,58)" d="M4,0A4,4,0,1,1,-4,0A4,4,0,1,1,4,0" fill="#f58518" stroke="#222" opacity="0.5"/><path transform="translate(516,55)" d="M4,0A4,4,0,1,1,-4,0A4,4,0,1,1,4,0" fill="#f58518" stroke="#222" opacity="0.5"/><path transform="translate(518,53)" d="M4,0A4,4,0,1,1,-4,0A4,4,0,1,1,4,0" fill="#f58518" stroke="#222" opacity="0.5"/><path transform="translate(521,51)" d="M4,0A4,4,0,1,1,-4,0A4,4,0,1,1,4,0" fill="#f58518" stroke="#222" opacity="0.5"/><path transform="translate(524,49)" d="M4,0A4,4,0,1,1,-4,0A4,4,0,1,1,4,0" fill="#f58518" stroke="#222" opacity="0.5"/><path transform="translate(527,47)" d="M4,0A4,4,0,1,1,-4,0A4,4,0,1,1,4,0" fill="#f58518" stroke="#222" opacity="0.5"/><path transform="translate(530,45)" d="M4,0A4,4,0,1,1,-4,0A4,4,0,1,1,4,0" fill="#f58518" stroke="#222" opacity="0.5"/><path transform="translate(533,43)" d="M4,0A4,4,0,1,1,-4,0A4,4,0,1,1,4,0" fill="#f58518" stroke="#222" opacity="0.5"/><path transform="translate(536,41)" d="M4,0A4,4,0,1,1,-4,0A4,4,0,1,1,4,0" fill="#f58518" stroke="#222" opacity="0.5"/><path transform="translate(539,39)" d="M4,0A4,4,0,1,1,-4,0A4,4,0,1,1,4,0" fill="#f58518" stroke="#222" opacity="0.5"/><path transform="translate(541,37)" d="M4,0A4,4,0,1,1,-4,0A4,4,0,1,1,4,0" fill="#f58518" stroke="#222" opacity="0.5"/><path transform="translate(544,35)" d="M4,0A4,4,0,1,1,-4,0A4,4,0,1,1,4,0" fill="#f58518" stroke="#222" opacity="0.5"/><path transform="translate(547,32)" d="M4,0A4,4,0,1,1,-4,0A4,4,0,1,1,4,0" fill="#f58518" stroke="#222" opacity="0.5"/><path transform="translate(550,30)" d="M4,0A4,4,0,1,1,-4,0A4,4,0,1,1,4,0" fill="#f58518" stroke="#222" opacity="0.5"/><path transform="translate(553,28)" d="M4,0A4,4,0,1,1,-4,0A4,4,0,1,1,4,0" fill="#f58518" stroke="#222" opacity="0.5"/><path transform="translate(556,26)" d="M4,0A4,4,0,1,1,-4,0A4,4,0,1,1,4,0" fill="#f58518" stroke="#222" opacity="0.5"/><path transform="translate(559,24)" d="M4,0A4,4,0,1,1,-4,0A4,4,0,1,1,4,0" fill="#f58518" stroke="#222" opacity="0.5"/><path transform="translate(562,22)" d="M4,0A4,4,0,1,1,-4,0A4,4,0,1,1,4,0" fill="#f58518" stroke="#222" opacity="0.5"/><path transform="translate(564,20)" d="M4,0A4,4,0,1,1,-4,0A4,4,0,1,1,4,0" fill="#f58518" stroke="#222" opacity="0.5"/><path transform="translate(567,18)" d="M4,0A4,4,0,1,1,-4,0A4,4,0,1,1,4,0" fill="#f58518" stroke="#222" opacity="0.5"/><path transform="translate(570,15)" d="M4,0A4,4,0,1,1,-4,0A4,4,0,1,1,4,0" fill="#f58518" stroke="#222" opacity="0.5"/><path transform="translate(573,13)" d="M4,0A4,4,0,1,1,-4,0A4,4,0,1,1,4,0" fill="#f58518" stroke="#222" opacity="0.5"/></g><g class="mark-group role-legend" role="graphics-symbol" aria-roledescription="legend" aria-label="Symbol legend for fill color with 2 values: Pool-Accept, Separate-H-Reject"><g transform="translate(594,0)"><path class="background" aria-hidden="true" d="M0,0h152v24h-152Z" pointer-events="none"/><g><g class="mark-group role-legend-entry"><g transform="translate(0,0)"><path class="background" aria-hidden="true" d="M0,0h0v0h0Z" pointer-events="none"/><g><g class="mark-group role-scope" role="graphics-object" aria-roledescription="group mark container"><g transform="translate(0,0)"><path class="background" aria-hidden="true" d="M0,0h152v11h-152Z" pointer-events="none" opacity="1"/><g><g class="mark-symbol role-legend-symbol" pointer-events="none"><path transform="translate(6,6)" d="M5,0A5,5,0,1,1,-5,0A5,5,0,1,1,5,0" fill="#4c78a8" stroke-width="1.5" opacity="1"/></g><g class="mark-text role-legend-label" pointer-events="none"><text text-anchor="start" transform="translate(16,9)" font-family="sans-serif" font-size="10px" fill="#000" opacity="1">Pool-Accept</text></g></g><path class="foreground" aria-hidden="true" d="" pointer-events="none" display="none"/></g><g transform="translate(0,13)"><path class="background" aria-hidden="true" d="M0,0h152v11h-152Z" pointer-events="none" opacity="1"/><g><g class="mark-symbol role-legend-symbol" pointer-events="none"><path transform="translate(6,6)" d="M5,0A5,5,0,1,1,-5,0A5,5,0,1,1,5,0" fill="#f58518" stroke-width="1.5" opacity="1"/></g><g class="mark-text role-legend-label" pointer-events="none"><text text-anchor="start" transform="translate(16,9)" font-family="sans-serif" font-size="10px" fill="#000" opacity="1">Separate-H-Reject</text></g></g><path class="foreground" aria-hidden="true" d="" pointer-events="none" display="none"/></g></g></g><path class="foreground" aria-hidden="true" d="" pointer-events="none" display="none"/></g></g></g><path class="foreground" aria-hidden="true" d="" pointer-events="none" display="none"/></g></g><g class="mark-group role-title"><g transform="translate(346,-22)"><path class="background" aria-hidden="true" d="M0,0h0v0h0Z" pointer-events="none"/><g><g class="mark-text role-title-text" role="graphics-symbol" aria-roledescription="title" aria-label="Title text 'Equilibrium'" pointer-events="none"><text text-anchor="middle" transform="translate(0,10)" font-family="sans-serif" font-size="13px" font-weight="bold" fill="#000" opacity="1">Equilibrium</text></g></g><path class="foreground" aria-hidden="true" d="" pointer-events="none" display="none"/></g></g></g><path class="foreground" aria-hidden="true" d="" display="none"/></g></g></g></svg>