<svg xmlns="http://www.w3.org/2000/svg" xmlns:xlink="http://www.w3.org/1999/xlink" version="1.1" class="marks" width="800" height="450" viewBox="0 0 800 450"><rect width="800" height="450" fill="white"/><g fill="none" stroke-miterlimit="10" transform="translate(38,22)"><g class="mark-group role-frame root" role="graphics-object" aria-roledescription="group mark container"><g transform="translate(0,0)"><path class="background" aria-hidden="true" d="M0,0h576v396h-576Z"/><g><g class="mark-group role-axis" role="graphics-symbol" aria-roledescription="axis" aria-label="X-axis titled 'Share_Ratio' for a linear scale with values from 0.0 to 1.0"><g transform="translate(0.5,396.5)"><path class="background" aria-hidden="true" d="M0,0h0v0h0Z" pointer-events="none"/><g><g class="mark-rule role-axis-grid" pointer-events="none"><line transform="translate(0,0)" x2="0" y2="-396" stroke="#ddd" stroke-width="1" opacity="1"/><line transform="translate(58,0)" x2="0" y2="-396" stroke="#ddd" stroke-width="1" opacity="1"/><line transform="translate(115,0)" x2="0" y2="-396" stroke="#ddd" stroke-width="1" opacity="1"/><line transform="translate(173,0)" x2="0" y2="-396" stroke="#ddd" stroke-width="1" opacity="1"/><line transform="translate(230,0)" x2="0" y2="-396" stroke="#ddd" stroke-width="1" opacity="1"/><line transform="translate(288,0)" x2="0" y2="-396" stroke="#ddd" stroke-width="1" opacity="1"/><line transform="translate(346,0)" x2="0" y2="-396" stroke="#ddd" stroke-width="1" opacity="1"/><line transform="translate(403,0)" x2="0" y2="-396" stroke="#ddd" stroke-width="1" opacity="1"/><line transform="translate(461,0)" x2="0" y2="-396" stroke="#ddd" stroke-width="1" opacity="1"/><line transform="translate(518,0)" x2="0" y2="-396" stroke="#ddd" stroke-width="1" opacity="1"/><line transform="translate(576,0)" x2="0" y2="-396" stroke="#ddd" stroke-width="1" opacity="1"/></g><g class="mark-rule role-axis-tick" pointer-events="none"><line transform="translate(0,0)" x2="0" y2="5" stroke="#888" stroke-width="1" opacity="1"/><line transform="translate(58,0)" x2="0" y2="5" stroke="#888" stroke-width="1" opacity="1"/><line transform="translate(115,0)" x2="0" y2="5" stroke="#888" stroke-width="1" opacity="1"/><line transform="translate(173,0)" x2="0" y2="5" stroke="#888" stroke-width="1" opacity="1"/><line transform="translate(230,0)" x2="0" y2="5" stroke="#888" stroke-width="1" opacity="1"/><line transform="translate(288,0)" x2="0" y2="5" stroke="#888" stroke-width="1" opacity="1"/><line transform="translate(346,0)" x2="0" y2="5" stroke="#888" stroke-width="1" opacity="1"/><line transform="translate(403,0)" x2="0" y2="5" stroke="#888" stroke-width="1" opacity="1"/><line transform="translate(461,0)" x2="0" y2="5" stroke="#888" stroke-width="1" opacity="1"/><line transform="translate(518,0)" x2="0" y2="5" stroke="#888" stroke-width="1" opacity="1"/><line transform="translate(576,0)" x2="0" y2="5" stroke="#888" stroke-width="1" opacity="1"/></g><g class="mark-text role-axis-label" pointer-events="none"><text text-anchor="middle" transform="translate(0,15)" font-family="sans-serif" font-size="10px" fill="#000" opacity="1">0.0</text><text text-anchor="middle" transform="translate(58,15)" font-family="sans-serif" font-size="10px" fill="#000" opacity="1">0.1</text><text text-anchor="middle" transform="translate(115,15)" font-family="sans-serif" font-size="10px" fill="#000" opacity="1">0.2</text><text text-anchor="middle" transform="translate(173,15)" font-family="sans-serif" font-size="10px" fill="#000" opacity="1">0.3</text><text text-anchor="middle" transform="translate(230,15)" font-family="sans-serif" font-size="10px" fill="#000" opacity="1">0.4</text><text text-anchor="middle" transform="translate(288,15)" font-family="sans-serif" font-size="10px" fill="#000" opacity="1">0.5</text><text text-anchor="middle" transform="translate(346,15)" font-family="sans-serif" font-size="10px" fill="#000" opacity="1">0.6</text><text text-anchor="middle" transform="translate(403,15)" font-family="sans-serif" font-size="10px" fill="#000" opacity="1">0.7</text><text text-anchor="middle" transform="translate(461,15)" font-family="sans-serif" font-size="10px" fill="#000" opacity="1">0.8</text><text text-anchor="middle" transform="translate(518,15)" font-family="sans-serif" font-size="10px" fill="#000" opacity="1">0.9</text><text text-anchor="middle" transform="translate(576,15)" font-family="sans-serif" font-size="10px" fill="#000" opacity="1">1.0</text></g><g class="mark-text role-axis-title" pointer-events="none"><text text-anchor="middle" transform="translate(288,30)" font-family="sans-serif" font-size="11px" font-weight="bold" fill="#000" opacity="1">Share_Ratio</text></g></g><path class="foreground" aria-hidden="true" d="" pointer-events="none" display="none"/></g></g><g class="mark-group role-axis" role="graphics-symbol" aria-roledescription="axis" aria-label="Y-axis titled 'lSuccess' for a linear scale with values from 12 to 24"><g transform="translate(0.5,0.5)"><path class="background" aria-hidden="true" d="M0,0h0v0h0Z" pointer-events="none"/><g><g class="mark-rule role-axis-grid" pointer-events="none"><line transform="translate(0,396)" x2="576" y2="0" stroke="#ddd" stroke-width="1" opacity="1"/><line transform="translate(0,363)" x2="576" y2="0" stroke="#ddd" stroke-width="1" opacity="1"/><line transform="translate(0,330)" x2="576" y2="0" stroke="#ddd" stroke-width="1" opacity="1"/><line transform="translate(0,297)" x2="576" y2="0" stroke="#ddd" stroke-width="1" opacity="1"/><line transform="translate(0,264)" x2="576" y2="0" stroke="#ddd" stroke-width="1" opacity="1"/><line transform="translate(0,231)" x2="576" y2="0" stroke="#ddd" stroke-width="1" opacity="1"/><line transform="translate(0,198)" x2="576" y2="0" stroke="#ddd" stroke-width="1" opacity="1"/><line transform="translate(0,165)" x2="576" y2="0" stroke="#ddd" stroke-width="1" opacity="1"/><line transform="translate(0,132)" x2="576" y2="0" stroke="#ddd" stroke-width="1" opacity="1"/><line transform="translate(0,99)" x2="576" y2="0" stroke="#ddd" stroke-width="1" opacity="1"/><line transform="translate(0,66)" x2="576" y2="0" stroke="#ddd" stroke-width="1" opacity="1"/><line transform="translate(0,33)" x2="576" y2="0" stroke="#ddd" stroke-width="1" opacity="1"/><line transform="translate(0,0)" x2="576" y2="0" stroke="#ddd" stroke-width="1" opacity="1"/></g><g class="mark-rule role-axis-tick" pointer-events="none"><line transform="translate(0,396)" x2="-5" y2="0" stroke="#888" stroke-width="1" opacity="1"/><line transform="translate(0,363)" x2="-5" y2="0" stroke="#888" stroke-width="1" opacity="1"/><line transform="translate(0,330)" x2="-5" y2="0" stroke="#888" stroke-width="1" opacity="1"/><line transform="translate(0,297)" x2="-5" y2="0" stroke="#888" stroke-width="1" opacity="1"/><line transform="translate(0,264)" x2="-5" y2="0" stroke="#888" stroke-width="1" opacity="1"/><line transform="translate(0,231)" x2="-5" y2="0" stroke="#888" stroke-width="1" opacity="1"/><line transform="translate(0,198)" x2="-5" y2="0" stroke="#888" stroke-width="1" opacity="1"/><line transform="translate(0,165)" x2="-5" y2="0" stroke="#888" stroke-width="1" opacity="1"/><line transform="translate(0,132)" x2="-5" y2="0" stroke="#888" stroke-width="1" opacity="1"/><line transform="translate(0,99)" x2="-5" y2="0" stroke="#888" stroke-width="1" opacity="1"/><line transform="translate(0,66)" x2="-5" y2="0" stroke="#888" stroke-width="1" opacity="1"/><line transform="translate(0,33)" x2="-5" y2="0" stroke="#888" stroke-width="1" opacity="1"/><line transform="translate(0,0)" x2="-5" y2="0" stroke="#888" stroke-width="1" opacity="1"/></g><g class="mark-text role-axis-label" pointer-events="none"><text text-anchor="end" transform="translate(-7,399)" font-family="sans-serif" font-size="10px" fill="#000" opacity="1">12</text><text text-anchor="end" transform="translate(-7,366)" font-family="sans-serif" font-size="10px" fill="#000" opacity="1">13</text><text text-anchor="end" transform="translate(-7,333)" font-family="sans-serif" font-size="10px" fill="#000" opacity="1">14</text><text text-anchor="end" transform="translate(-7,300)" font-family="sans-serif" font-size="10px" fill="#000" opacity="1">15</text><text text-anchor="end" transform="translate(-7,267)" font-family="sans-serif" font-size="10px" fill="#000" opacity="1">16</text><text text-anchor="end" transform="translate(-7,234)" font-family="sans-serif" font-size="10px" fill="#000" opacity="1">17</text><text text-anchor="end" transform="translate(-7,201)" font-family="sans-serif" font-size="10px" fill="#000" opacity="1">18</text><text text-anchor="end" transform="translate(-7,168)" font-family="sans-serif" font-size="10px" fill="#000" opacity="1">19</text><text text-anchor="end" transform="translate(-7,135)" font-family="sans-serif" font-size="10px" fill="#000" opacity="1">20</text><text text-anchor="end" transform="translate(-7,102)" font-family="sans-serif" font-size="10px" fill="#000" opacity="1">21</text><text text-anchor="end" transform="translate(-7,69)" font-family="sans-serif" font-size="10px" fill="#000" opacity="1">22</text><text text-anchor="end" transform="translate(-7,36)" font-family="sans-serif" font-size="10px" fill="#000" opacity="1">23</text><text text-anchor="end" transform="translate(-7,3)" font-family="sans-serif" font-size="10px" fill="#000" opacity="1">24</text></g><g class="mark-text role-axis-title" pointer-events="none"><text text-anchor="middle" transform="translate(-27,198) rotate(-90) translate(0,-2)" font-family="sans-serif" font-size="11px" font-weight="bold" fill="#000" opacity="1">lSuccess</text></g></g><path class="foreground" aria-hidden="true" d="" pointer-events="none" display="none"/></g></g><g class="mark-symbol role-mark" role="graphics-symbol" aria-roledescription="symbol mark container"><path transform="translate(13,204)" d="M4,0A4,4,0,1,1,-4,0A4,4,0,1,1,4,0" fill="#4c78a8" stroke="#222" opacity="0.5"/><path transform="translate(8,194)" d="M4,0A4,4,0,1,1,-4,0A4,4,0,1,1,4,0" fill="#4c78a8" stroke="#222" opacity="0.5"/><path transform="translate(64,191)" d="M4,0A4,4,0,1,1,-4,0A4,4,0,1,1,4,0" fill="#4c78a8" stroke="#222" opacity="0.5"/><path transform="translate(2,126)" d="M4,0A4,4,0,1,1,-4,0A4,4,0,1,1,4,0" fill="#4c78a8" stroke="#222" opacity="0.5"/><path transform="translate(196,236)" d="M4,0A4,4,0,1,1,-4,0A4,4,0,1,1,4,0" fill="#4c78a8" stroke="#222" opacity="0.5"/><path transform="translate(24,170)" d="M4,0A4,4,0,1,1,-4,0A4,4,0,1,1,4,0" fill="#4c78a8" stroke="#222" opacity="0.5"/><path transform="translate(72,201)" d="M4,0A4,4,0,1,1,-4,0A4,4,0,1,1,4,0" fill="#4c78a8" stroke="#222" opacity="0.5"/><path transform="translate(14,188)" d="M4,0A4,4,0,1,1,-4,0A4,4,0,1,1,4,0" fill="#4c78a8" stroke="#222" opacity="0.5"/><path transform="translate(24,181)" d="M4,0A4,4,0,1,1,-4,0A4,4,0,1,1,4,0" fill="#4c78a8" stroke="#222" opacity="0.5"/><path transform="translate(166,242)" d="M4,0A4,4,0,1,1,-4,0A4,4,0,1,1,4,0" fill="#4c78a8" stroke="#222" opacity="0.5"/><path transform="translate(432,90)" d="M4,0A4,4,0,1,1,-4,0A4,4,0,1,1,4,0" fill="#4c78a8" stroke="#222" opacity="0.5"/><path transform="translate(79,128)" d="M4,0A4,4,0,1,1,-4,0A4,4,0,1,1,4,0" fill="#4c78a8" stroke="#222" opacity="0.5"/><path transform="translate(518,225)" d="M4,0A4,4,0,1,1,-4,0A4,4,0,1,1,4,0" fill="#4c78a8" stroke="#222" opacity="0.5"/><path transform="translate(93,99)" d="M4,0A4,4,0,1,1,-4,0A4,4,0,1,1,4,0" fill="#4c78a8" stroke="#222" opacity="0.5"/><path transform="translate(144,253)" d="M4,0A4,4,0,1,1,-4,0A4,4,0,1,1,4,0" fill="#4c78a8" stroke="#222" opacity="0.5"/><path transform="translate(0,146)" d="M4,0A4,4,0,1,1,-4,0A4,4,0,1,1,4,0" fill="#4c78a8" stroke="#222" opacity="0.5"/><path transform="translate(10,107)" d="M4,0A4,4,0,1,1,-4,0A4,4,0,1,1,4,0" fill="#f58518" stroke="#222" opacity="0.5"/><path transform="translate(23,132)" d="M4,0A4,4,0,1,1,-4,0A4,4,0,1,1,4,0" fill="#f58518" stroke="#222" opacity="0.5"/><path transform="translate(18,134)" d="M4,0A4,4,0,1,1,-4,0A4,4,0,1,1,4,0" fill="#f58518" stroke="#222" opacity="0.5"/><path transform="translate(1,136)" d="M4,0A4,4,0,1,1,-4,0A4,4,0,1,1,4,0" fill="#f58518" stroke="#222" opacity="0.5"/><path transform="translate(15,136)" d="M4,0A4,4,0,1,1,-4,0A4,4,0,1,1,4,0" fill="#f58518" stroke="#222" opacity="0.5"/><path transform="translate(7,137)" d="M4,0A4,4,0,1,1,-4,0A4,4,0,1,1,4,0" fill="#f58518" stroke="#222" opacity="0.5"/><path transform="translate(30,138)" d="M4,0A4,4,0,1,1,-4,0A4,4,0,1,1,4,0" fill="#f58518" stroke="#222" opacity="0.5"/><path transform="translate(36,104)" d="M4,0A4,4,0,1,1,-4,0A4,4,0,1,1,4,0" fill="#f58518" stroke="#222" opacity="0.5"/><path transform="translate(3,106)" d="M4,0A4,4,0,1,1,-4,0A4,4,0,1,1,4,0" fill="#f58518" stroke="#222" opacity="0.5"/><path transform="translate(39,136)" d="M4,0A4,4,0,1,1,-4,0A4,4,0,1,1,4,0" fill="#f58518" stroke="#222" opacity="0.5"/><path transform="translate(0,105)" d="M4,0A4,4,0,1,1,-4,0A4,4,0,1,1,4,0" fill="#f58518" stroke="#222" opacity="0.5"/><path transform="translate(2,141)" d="M4,0A4,4,0,1,1,-4,0A4,4,0,1,1,4,0" fill="#f58518" stroke="#222" opacity="0.5"/><path transform="translate(38,142)" d="M4,0A4,4,0,1,1,-4,0A4,4,0,1,1,4,0" fill="#f58518" stroke="#222" opacity="0.5"/><path transform="translate(17,144)" d="M4,0A4,4,0,1,1,-4,0A4,4,0,1,1,4,0" fill="#f58518" stroke="#222" opacity="0.5"/><path transform="translate(4,130)" d="M4,0A4,4,0,1,1,-4,0A4,4,0,1,1,4,0" fill="#f58518" stroke="#222" opacity="0.5"/><path transform="translate(66,146)" d="M4,0A4,4,0,1,1,-4,0A4,4,0,1,1,4,0" fill="#f58518" stroke="#222" opacity="0.5"/><path transform="translate(16,148)" d="M4,0A4,4,0,1,1,-4,0A4,4,0,1,1,4,0" fill="#f58518" stroke="#222" opacity="0.5"/><path transform="translate(4,110)" d="M4,0A4,4,0,1,1,-4,0A4,4,0,1,1,4,0" fill="#f58518" stroke="#222" opacity="0.5"/><path transform="translate(5,128)" d="M4,0A4,4,0,1,1,-4,0A4,4,0,1,1,4,0" fill="#f58518" stroke="#222" opacity="0.5"/><path transform="translate(14,113)" d="M4,0A4,4,0,1,1,-4,0A4,4,0,1,1,4,0" fill="#f58518" stroke="#222" opacity="0.5"/><path transform="translate(35,149)" d="M4,0A4,4,0,1,1,-4,0A4,4,0,1,1,4,0" fill="#f58518" stroke="#222" opacity="0.5"/><path transform="translate(16,150)" d="M4,0A4,4,0,1,1,-4,0A4,4,0,1,1,4,0" fill="#f58518" stroke="#222" opacity="0.5"/><path transform="translate(21,150)" d="M4,0A4,4,0,1,1,-4,0A4,4,0,1,1,4,0" fill="#f58518" stroke="#222" opacity="0.5"/><path transform="translate(15,151)" d="M4,0A4,4,0,1,1,-4,0A4,4,0,1,1,4,0" fill="#f58518" stroke="#222" opacity="0.5"/><path transform="translate(34,108)" d="M4,0A4,4,0,1,1,-4,0A4,4,0,1,1,4,0" fill="#f58518" stroke="#222" opacity="0.5"/><path transform="translate(1,153)" d="M4,0A4,4,0,1,1,-4,0A4,4,0,1,1,4,0" fill="#f58518" stroke="#222" opacity="0.5"/><path transform="translate(43,127)" d="M4,0A4,4,0,1,1,-4,0A4,4,0,1,1,4,0" fill="#f58518" stroke="#222" opacity="0.5"/><path transform="translate(13,150)" d="M4,0A4,4,0,1,1,-4,0A4,4,0,1,1,4,0" fill="#f58518" stroke="#222" opacity="0.5"/><path transform="translate(19,154)" d="M4,0A4,4,0,1,1,-4,0A4,4,0,1,1,4,0" fill="#f58518" stroke="#222" opacity="0.5"/><path transform="translate(31,153)" d="M4,0A4,4,0,1,1,-4,0A4,4,0,1,1,4,0" fill="#f58518" stroke="#222" opacity="0.5"/><path transform="translate(48,156)" d="M4,0A4,4,0,1,1,-4,0A4,4,0,1,1,4,0" fill="#f58518" stroke="#222" opacity="0.5"/><path transform="translate(10,105)" d="M4,0A4,4,0,1,1,-4,0A4,4,0,1,1,4,0" fill="#f58518" stroke="#222" opacity="0.5"/><path transform="translate(39,134)" d="M4,0A4,4,0,1,1,-4,0A4,4,0,1,1,4,0" fill="#f58518" stroke="#222" opacity="0.5"/><path transform="translate(13,157)" d="M4,0A4,4,0,1,1,-4,0A4,4,0,1,1,4,0" fill="#f58518" stroke="#222" opacity="0.5"/><path transform="translate(17,158)" d="M4,0A4,4,0,1,1,-4,0A4,4,0,1,1,4,0" fill="#f58518" stroke="#222" opacity="0.5"/><path transform="translate(135,150)" d="M4,0A4,4,0,1,1,-4,0A4,4,0,1,1,4,0" fill="#f58518" stroke="#222" opacity="0.5"/><path transform="translate(7,158)" d="M4,0A4,4,0,1,1,-4,0A4,4,0,1,1,4,0" fill="#f58518" stroke="#222" opacity="0.5"/><path transform="translate(53,159)" d="M4,0A4,4,0,1,1,-4,0A4,4,0,1,1,4,0" fill="#f58518" stroke="#222" opacity="0.5"/><path transform="translate(60,159)" d="M4,0A4,4,0,1,1,-4,0A4,4,0,1,1,4,0" fill="#f58518" stroke="#222" opacity="0.5"/><path transform="translate(54,159)" d="M4,0A4,4,0,1,1,-4,0A4,4,0,1,1,4,0" fill="#f58518" stroke="#222" opacity="0.5"/><path transform="translate(1,156)" d="M4,0A4,4,0,1,1,-4,0A4,4,0,1,1,4,0" fill="#f58518" stroke="#222" opacity="0.5"/><path transform="translate(25,160)" d="M4,0A4,4,0,1,1,-4,0A4,4,0,1,1,4,0" fill="#f58518" stroke="#222" opacity="0.5"/><path transform="translate(140,160)" d="M4,0A4,4,0,1,1,-4,0A4,4,0,1,1,4,0" fill="#f58518" stroke="#222" opacity="0.5"/><path transform="translate(105,108)" d="M4,0A4,4,0,1,1,-4,0A4,4,0,1,1,4,0" fill="#f58518" stroke="#222" opacity="0.5"/><path transform="translate(77,161)" d="M4,0A4,4,0,1,1,-4,0A4,4,0,1,1,4,0" fill="#f58518" stroke="#222" opacity="0.5"/><path transform="translate(18,135)" d="M4,0A4,4,0,1,1,-4,0A4,4,0,1,1,4,0" fill="#f58518" stroke="#222" opacity="0.5"/><path transform="translate(7,162)" d="M4,0A4,4,0,1,1,-4,0A4,4,0,1,1,4,0" fill="#f58518" stroke="#222" opacity="0.5"/><path transform="translate(3,163)" d="M4,0A4,4,0,1,1,-4,0A4,4,0,1,1,4,0" fill="#f58518" stroke="#222" opacity="0.5"/><path transform="translate(26,19)" d="M4,0A4,4,0,1,1,-4,0A4,4,0,1,1,4,0" fill="#f58518" stroke="#222" opacity="0.5"/><path transform="translate(23,43)" d="M4,0A4,4,0,1,1,-4,0A4,4,0,1,1,4,0" fill="#f58518" stroke="#222" opacity="0.5"/><path transform="translate(8,67)" d="M4,0A4,4,0,1,1,-4,0A4,4,0,1,1,4,0" fill="#f58518" stroke="#222" opacity="0.5"/><path transform="translate(26,85)" d="M4,0A4,4,0,1,1,-4,0A4,4,0,1,1,4,0" fill="#f58518" stroke="#222" opacity="0.5"/><path transform="translate(115,93)" d="M4,0A4,4,0,1,1,-4,0A4,4,0,1,1,4,0" fill="#f58518" stroke="#222" opacity="0.5"/><path transform="translate(384,95)" d="M4,0A4,4,0,1,1,-4,0A4,4,0,1,1,4,0" fill="#f58518" stroke="#222" opacity="0.5"/><path transform="translate(2,97)" d="M4,0A4,4,0,1,1,-4,0A4,4,0,1,1,4,0" fill="#f58518" stroke="#222" opacity="0.5"/><path transform="translate(9,98)" d="M4,0A4,4,0,1,1,-4,0A4,4,0,1,1,4,0" fill="#f58518" stroke="#222" opacity="0.5"/><path transform="translate(131,111)" d="M4,0A4,4,0,1,1,-4,0A4,4,0,1,1,4,0" fill="#f58518" stroke="#222" opacity="0.5"/><path transform="translate(7,115)" d="M4,0A4,4,0,1,1,-4,0A4,4,0,1,1,4,0" fill="#f58518" stroke="#222" opacity="0.5"/><path transform="translate(132,116)" d="M4,0A4,4,0,1,1,-4,0A4,4,0,1,1,4,0" fill="#f58518" stroke="#222" opacity="0.5"/><path transform="translate(101,113)" d="M4,0A4,4,0,1,1,-4,0A4,4,0,1,1,4,0" fill="#f58518" stroke="#222" opacity="0.5"/><path transform="translate(68,122)" d="M4,0A4,4,0,1,1,-4,0A4,4,0,1,1,4,0" fill="#f58518" stroke="#222" opacity="0.5"/><path transform="translate(2,123)" d="M4,0A4,4,0,1,1,-4,0A4,4,0,1,1,4,0" fill="#f58518" stroke="#222" opacity="0.5"/><path transform="translate(28,129)" d="M4,0A4,4,0,1,1,-4,0A4,4,0,1,1,4,0" fill="#f58518" stroke="#222" opacity="0.5"/><path transform="translate(57,130)" d="M4,0A4,4,0,1,1,-4,0A4,4,0,1,1,4,0" fill="#f58518" stroke="#222" opacity="0.5"/><path transform="translate(144,267)" d="M4,0A4,4,0,1,1,-4,0A4,4,0,1,1,4,0" fill="#f58518" stroke="#222" opacity="0.5"/><path transform="translate(113,267)" d="M4,0A4,4,0,1,1,-4,0A4,4,0,1,1,4,0" fill="#f58518" stroke="#222" opacity="0.5"/><path transform="translate(66,267)" d="M4,0A4,4,0,1,1,-4,0A4,4,0,1,1,4,0" fill="#f58518" stroke="#222" opacity="0.5"/><path transform="translate(66,267)" d="M4,0A4,4,0,1,1,-4,0A4,4,0,1,1,4,0" fill="#f58518" stroke="#222" opacity="0.5"/><path transform="translate(96,266)" d="M4,0A4,4,0,1,1,-4,0A4,4,0,1,1,4,0" fill="#f58518" stroke="#222" opacity="0.5"/><path transform="translate(129,280)" d="M4,0A4,4,0,1,1,-4,0A4,4,0,1,1,4,0" fill="#f58518" stroke="#222" opacity="0.5"/><path transform="translate(257,242)" d="M4,0A4,4,0,1,1,-4,0A4,4,0,1,1,4,0" fill="#f58518" stroke="#222" opacity="0.5"/><path transform="translate(32,283)" d="M4,0A4,4,0,1,1,-4,0A4,4,0,1,1,4,0" fill="#f58518" stroke="#222" opacity="0.5"/><path transform="translate(134,283)" d="M4,0A4,4,0,1,1,-4,0A4,4,0,1,1,4,0" fill="#f58518" stroke="#222" opacity="0.5"/><path transform="translate(160,283)" d="M4,0A4,4,0,1,1,-4,0A4,4,0,1,1,4,0" fill="#f58518" stroke="#222" opacity="0.5"/><path transform="translate(135,288)" d="M4,0A4,4,0,1,1,-4,0A4,4,0,1,1,4,0" fill="#f58518" stroke="#222" opacity="0.5"/><path transform="translate(76,295)" d="M4,0A4,4,0,1,1,-4,0A4,4,0,1,1,4,0" fill="#f58518" stroke="#222" opacity="0.5"/><path transform="translate(200,305)" d="M4,0A4,4,0,1,1,-4,0A4,4,0,1,1,4,0" fill="#f58518" stroke="#222" opacity="0.5"/><path transform="translate(144,313)" d="M4,0A4,4,0,1,1,-4,0A4,4,0,1,1,4,0" fill="#f58518" stroke="#222" opacity="0.5"/><path transform="translate(58,313)" d="M4,0A4,4,0,1,1,-4,0A4,4,0,1,1,4,0" fill="#f58518" stroke="#222" opacity="0.5"/><path transform="translate(0,326)" d="M4,0A4,4,0,1,1,-4,0A4,4,0,1,1,4,0" fill="#f58518" stroke="#222" opacity="0.5"/><path transform="translate(74,306)" d="M4,0A4,4,0,1,1,-4,0A4,4,0,1,1,4,0" fill="#f58518" stroke="#222" opacity="0.5"/><path transform="translate(138,336)" d="M4,0A4,4,0,1,1,-4,0A4,4,0,1,1,4,0" fill="#f58518" stroke="#222" opacity="0.5"/><path transform="translate(115,359)" d="M4,0A4,4,0,1,1,-4,0A4,4,0,1,1,4,0" fill="#f58518" stroke="#222" opacity="0.5"/><path transform="translate(30,359)" d="M4,0A4,4,0,1,1,-4,0A4,4,0,1,1,4,0" fill="#f58518" stroke="#222" opacity="0.5"/><path transform="translate(96,359)" d="M4,0A4,4,0,1,1,-4,0A4,4,0,1,1,4,0" fill="#f58518" stroke="#222" opacity="0.5"/><path transform="translate(28,385)" d="M4,0A4,4,0,1,1,-4,0A4,4,0,1,1,4,0" fill="#f58518" stroke="#222" opacity="0.5"/><path transform="translate(0,241)" d="M4,0A4,4,0,1,1,-4,0A4,4,0,1,1,4,0" fill="#f58518" stroke="#222" opacity="0.5"/><path transform="translate(2,165)" d="M4,0A4,4,0,1,1,-4,0A4,4,0,1,1,4,0" fill="#f58518" stroke="#222" opacity="0.5"/><path transform="translate(28,109)" d="M4,0A4,4,0,1,1,-4,0A4,4,0,1,1,4,0" fill="#f58518" stroke="#222" opacity="0.5"/><path transform="translate(6,143)" d="M4,0A4,4,0,1,1,-4,0A4,4,0,1,1,4,0" fill="#f58518" stroke="#222" opacity="0.5"/><path transform="translate(4,167)" d="M4,0A4,4,0,1,1,-4,0A4,4,0,1,1,4,0" fill="#f58518" stroke="#222" opacity="0.5"/><path transform="translate(150,168)" d="M4,0A4,4,0,1,1,-4,0A4,4,0,1,1,4,0" fill="#f58518" stroke="#222" opacity="0.5"/><path transform="translate(22,152)" d="M4,0A4,4,0,1,1,-4,0A4,4,0,1,1,4,0" fill="#f58518" stroke="#222" opacity="0.5"/><path transform="translate(13,168)" d="M4,0A4,4,0,1,1,-4,0A4,4,0,1,1,4,0" fill="#f58518" stroke="#222" opacity="0.5"/><path transform="translate(17,168)" d="M4,0A4,4,0,1,1,-4,0A4,4,0,1,1,4,0" fill="#f58518" stroke="#222" opacity="0.5"/><path transform="translate(1,168)" d="M4,0A4,4,0,1,1,-4,0A4,4,0,1,1,4,0" fill="#f58518" stroke="#222" opacity="0.5"/><path transform="translate(48,168)" d="M4,0A4,4,0,1,1,-4,0A4,4,0,1,1,4,0" fill="#f58518" stroke="#222" opacity="0.5"/><path transform="translate(66,169)" d="M4,0A4,4,0,1,1,-4,0A4,4,0,1,1,4,0" fill="#f58518" stroke="#222" opacity="0.5"/><path transform="translate(52,169)" d="M4,0A4,4,0,1,1,-4,0A4,4,0,1,1,4,0" fill="#f58518" stroke="#222" opacity="0.5"/><path transform="translate(8,169)" d="M4,0A4,4,0,1,1,-4,0A4,4,0,1,1,4,0" fill="#f58518" stroke="#222" opacity="0.5"/><path transform="translate(0,171)" d="M4,0A4,4,0,1,1,-4,0A4,4,0,1,1,4,0" fill="#f58518" stroke="#222" opacity="0.5"/><path transform="translate(26,172)" d="M4,0A4,4,0,1,1,-4,0A4,4,0,1,1,4,0" fill="#f58518" stroke="#222" opacity="0.5"/><path transform="translate(26,168)" d="M4,0A4,4,0,1,1,-4,0A4,4,0,1,1,4,0" fill="#f58518" stroke="#222" opacity="0.5"/><path transform="translate(4,173)" d="M4,0A4,4,0,1,1,-4,0A4,4,0,1,1,4,0" fill="#f58518" stroke="#222" opacity="0.5"/><path transform="translate(5,174)" d="M4,0A4,4,0,1,1,-4,0A4,4,0,1,1,4,0" fill="#f58518" stroke="#222" opacity="0.5"/><path transform="translate(9,174)" d="M4,0A4,4,0,1,1,-4,0A4,4,0,1,1,4,0" fill="#f58518" stroke="#222" opacity="0.5"/><path transform="translate(7,173)" d="M4,0A4,4,0,1,1,-4,0A4,4,0,1,1,4,0" fill="#f58518" stroke="#222" opacity="0.5"/><path transform="translate(3,175)" d="M4,0A4,4,0,1,1,-4,0A4,4,0,1,1,4,0" fill="#f58518" stroke="#222" opacity="0.5"/><path transform="translate(8,175)" d="M4,0A4,4,0,1,1,-4,0A4,4,0,1,1,4,0" fill="#f58518" stroke="#222" opacity="0.5"/><path transform="translate(2,175)" d="M4,0A4,4,0,1,1,-4,0A4,4,0,1,1,4,0" fill="#f58518" stroke="#222" opacity="0.5"/><path transform="translate(43,175)" d="M4,0A4,4,0,1,1,-4,0A4,4,0,1,1,4,0" fill="#f58518" stroke="#222" opacity="0.5"/><path transform="translate(2,176)" d="M4,0A4,4,0,1,1,-4,0A4,4,0,1,1,4,0" fill="#f58518" stroke="#222" opacity="0.5"/><path transform="translate(12,125)" d="M4,0A4,4,0,1,1,-4,0A4,4,0,1,1,4,0" fill="#f58518" stroke="#222" opacity="0.5"/><path transform="translate(67,177)" d="M4,0A4,4,0,1,1,-4,0A4,4,0,1,1,4,0" fill="#f58518" stroke="#222" opacity="0.5"/><path transform="translate(8,178)" d="M4,0A4,4,0,1,1,-4,0A4,4,0,1,1,4,0" fill="#f58518" stroke="#222" opacity="0.5"/><path transform="translate(19,176)" d="M4,0A4,4,0,1,1,-4,0A4,4,0,1,1,4,0" fill="#f58518" stroke="#222" opacity="0.5"/><path transform="translate(64,178)" d="M4,0A4,4,0,1,1,-4,0A4,4,0,1,1,4,0" fill="#f58518" stroke="#222" opacity="0.5"/><path transform="translate(11,179)" d="M4,0A4,4,0,1,1,-4,0A4,4,0,1,1,4,0" fill="#f58518" stroke="#222" opacity="0.5"/><path transform="translate(5,179)" d="M4,0A4,4,0,1,1,-4,0A4,4,0,1,1,4,0" fill="#f58518" stroke="#222" opacity="0.5"/><path transform="translate(84,179)" d="M4,0A4,4,0,1,1,-4,0A4,4,0,1,1,4,0" fill="#f58518" stroke="#222" opacity="0.5"/><path transform="translate(41,179)" d="M4,0A4,4,0,1,1,-4,0A4,4,0,1,1,4,0" fill="#f58518" stroke="#222" opacity="0.5"/><path transform="translate(0,180)" d="M4,0A4,4,0,1,1,-4,0A4,4,0,1,1,4,0" fill="#f58518" stroke="#222" opacity="0.5"/><path transform="translate(13,181)" d="M4,0A4,4,0,1,1,-4,0A4,4,0,1,1,4,0" fill="#f58518" stroke="#222" opacity="0.5"/><path transform="translate(46,138)" d="M4,0A4,4,0,1,1,-4,0A4,4,0,1,1,4,0" fill="#f58518" stroke="#222" opacity="0.5"/><path transform="translate(79,183)" d="M4,0A4,4,0,1,1,-4,0A4,4,0,1,1,4,0" fill="#f58518" stroke="#222" opacity="0.5"/><path transform="translate(7,165)" d="M4,0A4,4,0,1,1,-4,0A4,4,0,1,1,4,0" fill="#f58518" stroke="#222" opacity="0.5"/><path transform="translate(38,160)" d="M4,0A4,4,0,1,1,-4,0A4,4,0,1,1,4,0" fill="#f58518" stroke="#222" opacity="0.5"/><path transform="translate(64,184)" d="M4,0A4,4,0,1,1,-4,0A4,4,0,1,1,4,0" fill="#f58518" stroke="#222" opacity="0.5"/><path transform="translate(64,184)" d="M4,0A4,4,0,1,1,-4,0A4,4,0,1,1,4,0" fill="#f58518" stroke="#222" opacity="0.5"/><path transform="translate(6,154)" d="M4,0A4,4,0,1,1,-4,0A4,4,0,1,1,4,0" fill="#f58518" stroke="#222" opacity="0.5"/><path transform="translate(37,187)" d="M4,0A4,4,0,1,1,-4,0A4,4,0,1,1,4,0" fill="#f58518" stroke="#222" opacity="0.5"/><path transform="translate(7,187)" d="M4,0A4,4,0,1,1,-4,0A4,4,0,1,1,4,0" fill="#f58518" stroke="#222" opacity="0.5"/><path transform="translate(0,187)" d="M4,0A4,4,0,1,1,-4,0A4,4,0,1,1,4,0" fill="#f58518" stroke="#222" opacity="0.5"/><path transform="translate(74,188)" d="M4,0A4,4,0,1,1,-4,0A4,4,0,1,1,4,0" fill="#f58518" stroke="#222" opacity="0.5"/><path transform="translate(177,189)" d="M4,0A4,4,0,1,1,-4,0A4,4,0,1,1,4,0" fill="#f58518" stroke="#222" opacity="0.5"/><path transform="translate(19,190)" d="M4,0A4,4,0,1,1,-4,0A4,4,0,1,1,4,0" fill="#f58518" stroke="#222" opacity="0.5"/><path transform="translate(3,191)" d="M4,0A4,4,0,1,1,-4,0A4,4,0,1,1,4,0" fill="#f58518" stroke="#222" opacity="0.5"/><path transform="translate(0,193)" d="M4,0A4,4,0,1,1,-4,0A4,4,0,1,1,4,0" fill="#f58518" stroke="#222" opacity="0.5"/><path transform="translate(6,194)" d="M4,0A4,4,0,1,1,-4,0A4,4,0,1,1,4,0" fill="#f58518" stroke="#222" opacity="0.5"/><path transform="translate(29,195)" d="M4,0A4,4,0,1,1,-4,0A4,4,0,1,1,4,0" fill="#f58518" stroke="#222" opacity="0.5"/><path transform="translate(208,172)" d="M4,0A4,4,0,1,1,-4,0A4,4,0,1,1,4,0" fill="#f58518" stroke="#222" opacity="0.5"/><path transform="translate(18,171)" d="M4,0A4,4,0,1,1,-4,0A4,4,0,1,1,4,0" fill="#f58518" stroke="#222" opacity="0.5"/><path transform="translate(41,192)" d="M4,0A4,4,0,1,1,-4,0A4,4,0,1,1,4,0" fill="#f58518" stroke="#222" opacity="0.5"/><path transform="translate(29,171)" d="M4,0A4,4,0,1,1,-4,0A4,4,0,1,1,4,0" fill="#f58518" stroke="#222" opacity="0.5"/><path transform="translate(309,195)" d="M4,0A4,4,0,1,1,-4,0A4,4,0,1,1,4,0" fill="#f58518" stroke="#222" opacity="0.5"/><path transform="translate(4,200)" d="M4,0A4,4,0,1,1,-4,0A4,4,0,1,1,4,0" fill="#f58518" stroke="#222" opacity="0.5"/><path transform="translate(0,200)" d="M4,0A4,4,0,1,1,-4,0A4,4,0,1,1,4,0" fill="#f58518" stroke="#222" opacity="0.5"/><path transform="translate(152,174)" d="M4,0A4,4,0,1,1,-4,0A4,4,0,1,1,4,0" fill="#f58518" stroke="#222" opacity="0.5"/><path transform="translate(80,200)" d="M4,0A4,4,0,1,1,-4,0A4,4,0,1,1,4,0" fill="#f58518" stroke="#222" opacity="0.5"/><path transform="translate(6,199)" d="M4,0A4,4,0,1,1,-4,0A4,4,0,1,1,4,0" fill="#f58518" stroke="#222" opacity="0.5"/><path transform="translate(8,203)" d="M4,0A4,4,0,1,1,-4,0A4,4,0,1,1,4,0" fill="#f58518" stroke="#222" opacity="0.5"/><path transform="translate(0,203)" d="M4,0A4,4,0,1,1,-4,0A4,4,0,1,1,4,0" fill="#f58518" stroke="#222" opacity="0.5"/><path transform="translate(202,205)" d="M4,0A4,4,0,1,1,-4,0A4,4,0,1,1,4,0" fill="#f58518" stroke="#222" opacity="0.5"/><path transform="translate(37,170)" d="M4,0A4,4,0,1,1,-4,0A4,4,0,1,1,4,0" fill="#f58518" stroke="#222" opacity="0.5"/><path transform="translate(34,205)" d="M4,0A4,4,0,1,1,-4,0A4,4,0,1,1,4,0" fill="#f58518" stroke="#222" opacity="0.5"/><path transform="translate(17,206)" d="M4,0A4,4,0,1,1,-4,0A4,4,0,1,1,4,0" fill="#f58518" stroke="#222" opacity="0.5"/><path transform="translate(65,207)" d="M4,0A4,4,0,1,1,-4,0A4,4,0,1,1,4,0" fill="#f58518" stroke="#222" opacity="0.5"/><path transform="translate(16,171)" d="M4,0A4,4,0,1,1,-4,0A4,4,0,1,1,4,0" fill="#f58518" stroke="#222" opacity="0.5"/><path transform="translate(43,205)" d="M4,0A4,4,0,1,1,-4,0A4,4,0,1,1,4,0" fill="#f58518" stroke="#222" opacity="0.5"/><path transform="translate(14,147)" d="M4,0A4,4,0,1,1,-4,0A4,4,0,1,1,4,0" fill="#f58518" stroke="#222" opacity="0.5"/><path transform="translate(42,208)" d="M4,0A4,4,0,1,1,-4,0A4,4,0,1,1,4,0" fill="#f58518" stroke="#222" opacity="0.5"/><path transform="translate(64,210)" d="M4,0A4,4,0,1,1,-4,0A4,4,0,1,1,4,0" fill="#f58518" stroke="#222" opacity="0.5"/><path transform="translate(0,177)" d="M4,0A4,4,0,1,1,-4,0A4,4,0,1,1,4,0" fill="#f58518" stroke="#222" opacity="0.5"/><path transform="translate(101,213)" d="M4,0A4,4,0,1,1,-4,0A4,4,0,1,1,4,0" fill="#f58518" stroke="#222" opacity="0.5"/><path transform="translate(192,215)" d="M4,0A4,4,0,1,1,-4,0A4,4,0,1,1,4,0" fill="#f58518" stroke="#222" opacity="0.5"/><path transform="translate(140,82)" d="M4,0A4,4,0,1,1,-4,0A4,4,0,1,1,4,0" fill="#f58518" stroke="#222" opacity="0.5"/><path transform="translate(19,216)" d="M4,0A4,4,0,1,1,-4,0A4,4,0,1,1,4,0" fill="#f58518" stroke="#222" opacity="0.5"/><path transform="translate(142,198)" d="M4,0A4,4,0,1,1,-4,0A4,4,0,1,1,4,0" fill="#f58518" stroke="#222" opacity="0.5"/><path transform="translate(193,190)" d="M4,0A4,4,0,1,1,-4,0A4,4,0,1,1,4,0" fill="#f58518" stroke="#222" opacity="0.5"/><path transform="translate(108,203)" d="M4,0A4,4,0,1,1,-4,0A4,4,0,1,1,4,0" fill="#f58518" stroke="#222" opacity="0.5"/><path transform="translate(84,182)" d="M4,0A4,4,0,1,1,-4,0A4,4,0,1,1,4,0" fill="#f58518" stroke="#222" opacity="0.5"/><path transform="translate(79,221)" d="M4,0A4,4,0,1,1,-4,0A4,4,0,1,1,4,0" fill="#f58518" stroke="#222" opacity="0.5"/><path transform="translate(0,215)" d="M4,0A4,4,0,1,1,-4,0A4,4,0,1,1,4,0" fill="#f58518" stroke="#222" opacity="0.5"/><path transform="translate(12,222)" d="M4,0A4,4,0,1,1,-4,0A4,4,0,1,1,4,0" fill="#f58518" stroke="#222" opacity="0.5"/><path transform="translate(64,222)" d="M4,0A4,4,0,1,1,-4,0A4,4,0,1,1,4,0" fill="#f58518" stroke="#222" opacity="0.5"/><path transform="translate(247,223)" d="M4,0A4,4,0,1,1,-4,0A4,4,0,1,1,4,0" fill="#f58518" stroke="#222" opacity="0.5"/><path transform="translate(2,223)" d="M4,0A4,4,0,1,1,-4,0A4,4,0,1,1,4,0" fill="#f58518" stroke="#222" opacity="0.5"/><path transform="translate(173,224)" d="M4,0A4,4,0,1,1,-4,0A4,4,0,1,1,4,0" fill="#f58518" stroke="#222" opacity="0.5"/><path transform="translate(211,174)" d="M4,0A4,4,0,1,1,-4,0A4,4,0,1,1,4,0" fill="#f58518" stroke="#222" opacity="0.5"/><path transform="translate(50,227)" d="M4,0A4,4,0,1,1,-4,0A4,4,0,1,1,4,0" fill="#f58518" stroke="#222" opacity="0.5"/><path transform="translate(144,227)" d="M4,0A4,4,0,1,1,-4,0A4,4,0,1,1,4,0" fill="#f58518" stroke="#222" opacity="0.5"/><path transform="translate(4,233)" d="M4,0A4,4,0,1,1,-4,0A4,4,0,1,1,4,0" fill="#f58518" stroke="#222" opacity="0.5"/><path transform="translate(13,237)" d="M4,0A4,4,0,1,1,-4,0A4,4,0,1,1,4,0" fill="#f58518" stroke="#222" opacity="0.5"/><path transform="translate(0,178)" d="M4,0A4,4,0,1,1,-4,0A4,4,0,1,1,4,0" fill="#f58518" stroke="#222" opacity="0.5"/><path transform="translate(144,237)" d="M4,0A4,4,0,1,1,-4,0A4,4,0,1,1,4,0" fill="#f58518" stroke="#222" opacity="0.5"/><path transform="translate(6,237)" d="M4,0A4,4,0,1,1,-4,0A4,4,0,1,1,4,0" fill="#f58518" stroke="#222" opacity="0.5"/><path transform="translate(58,237)" d="M4,0A4,4,0,1,1,-4,0A4,4,0,1,1,4,0" fill="#f58518" stroke="#222" opacity="0.5"/><path transform="translate(51,239)" d="M4,0A4,4,0,1,1,-4,0A4,4,0,1,1,4,0" fill="#f58518" stroke="#222" opacity="0.5"/><path transform="translate(0,114)" d="M4,0A4,4,0,1,1,-4,0A4,4,0,1,1,4,0" fill="#f58518" stroke="#222" opacity="0.5"/><path transform="translate(449,242)" d="M4,0A4,4,0,1,1,-4,0A4,4,0,1,1,4,0" fill="#f58518" stroke="#222" opacity="0.5"/><path transform="translate(33,243)" d="M4,0A4,4,0,1,1,-4,0A4,4,0,1,1,4,0" fill="#f58518" stroke="#222" opacity="0.5"/><path transform="translate(110,245)" d="M4,0A4,4,0,1,1,-4,0A4,4,0,1,1,4,0" fill="#f58518" stroke="#222" opacity="0.5"/><path transform="translate(102,247)" d="M4,0A4,4,0,1,1,-4,0A4,4,0,1,1,4,0" fill="#f58518" stroke="#222" opacity="0.5"/><path transform="translate(123,209)" d="M4,0A4,4,0,1,1,-4,0A4,4,0,1,1,4,0" fill="#f58518" stroke="#222" opacity="0.5"/><path transform="translate(144,247)" d="M4,0A4,4,0,1,1,-4,0A4,4,0,1,1,4,0" fill="#f58518" stroke="#222" opacity="0.5"/><path transform="translate(45,198)" d="M4,0A4,4,0,1,1,-4,0A4,4,0,1,1,4,0" fill="#f58518" stroke="#222" opacity="0.5"/><path transform="translate(571,247)" d="M4,0A4,4,0,1,1,-4,0A4,4,0,1,1,4,0" fill="#f58518" stroke="#222" opacity="0.5"/><path transform="translate(110,248)" d="M4,0A4,4,0,1,1,-4,0A4,4,0,1,1,4,0" fill="#f58518" stroke="#222" opacity="0.5"/><path transform="translate(15,199)" d="M4,0A4,4,0,1,1,-4,0A4,4,0,1,1,4,0" fill="#f58518" stroke="#222" opacity="0.5"/><path transform="translate(122,247)" d="M4,0A4,4,0,1,1,-4,0A4,4,0,1,1,4,0" fill="#f58518" stroke="#222" opacity="0.5"/><path transform="translate(144,250)" d="M4,0A4,4,0,1,1,-4,0A4,4,0,1,1,4,0" fill="#f58518" stroke="#222" opacity="0.5"/><path transform="translate(19,244)" d="M4,0A4,4,0,1,1,-4,0A4,4,0,1,1,4,0" fill="#f58518" stroke="#222" opacity="0.5"/><path transform="translate(72,252)" d="M4,0A4,4,0,1,1,-4,0A4,4,0,1,1,4,0" fill="#f58518" stroke="#222" opacity="0.5"/><path transform="translate(47,260)" d="M4,0A4,4,0,1,1,-4,0A4,4,0,1,1,4,0" fill="#f58518" stroke="#222" opacity="0.5"/><path transform="translate(91,253)" d="M4,0A4,4,0,1,1,-4,0A4,4,0,1,1,4,0" fill="#f58518" stroke="#222" opacity="0.5"/><path transform="translate(192,253)" d="M4,0A4,4,0,1,1,-4,0A4,4,0,1,1,4,0" fill="#f58518" stroke="#222" opacity="0.5"/><path transform="translate(25,264)" d="M4,0A4,4,0,1,1,-4,0A4,4,0,1,1,4,0" fill="#f58518" stroke="#222" opacity="0.5"/><path transform="translate(110,98)" d="M4,0A4,4,0,1,1,-4,0A4,4,0,1,1,4,0" fill="#e45756" stroke="#222" opacity="0.5"/><path transform="translate(538,216)" d="M4,0A4,4,0,1,1,-4,0A4,4,0,1,1,4,0" fill="#72b7b2" stroke="#222" opacity="0.5"/><path transform="translate(115,300)" d="M4,0A4,4,0,1,1,-4,0A4,4,0,1,1,4,0" fill="#54a24b" stroke="#222" opacity="0.5"/><path transform="translate(541,191)" d="M4,0A4,4,0,1,1,-4,0A4,4,0,1,1,4,0" fill="#eeca3b" stroke="#222" opacity="0.5"/><path transform="translate(8,175)" d="M4,0A4,4,0,1,1,-4,0A4,4,0,1,1,4,0" fill="#eeca3b" stroke="#222" opacity="0.5"/><path transform="translate(48,155)" d="M4,0A4,4,0,1,1,-4,0A4,4,0,1,1,4,0" fill="#eeca3b" stroke="#222" opacity="0.5"/><path transform="translate(226,221)" d="M4,0A4,4,0,1,1,-4,0A4,4,0,1,1,4,0" fill="#eeca3b" stroke="#222" opacity="0.5"/><path transform="translate(28,218)" d="M4,0A4,4,0,1,1,-4,0A4,4,0,1,1,4,0" fill="#eeca3b" stroke="#222" opacity="0.5"/><path transform="translate(4,143)" d="M4,0A4,4,0,1,1,-4,0A4,4,0,1,1,4,0" fill="#eeca3b" stroke="#222" opacity="0.5"/><path transform="translate(64,156)" d="M4,0A4,4,0,1,1,-4,0A4,4,0,1,1,4,0" fill="#b279a2" stroke="#222" opacity="0.5"/><path transform="translate(28,136)" d="M4,0A4,4,0,1,1,-4,0A4,4,0,1,1,4,0" fill="#b279a2" stroke="#222" opacity="0.5"/><path transform="translate(113,136)" d="M4,0A4,4,0,1,1,-4,0A4,4,0,1,1,4,0" fill="#b279a2" stroke="#222" opacity="0.5"/><path transform="translate(1,161)" d="M4,0A4,4,0,1,1,-4,0A4,4,0,1,1,4,0" fill="#b279a2" stroke="#222" opacity="0.5"/><path transform="translate(36,94)" d="M4,0A4,4,0,1,1,-4,0A4,4,0,1,1,4,0" fill="#b279a2" stroke="#222" opacity="0.5"/><path transform="translate(4,118)" d="M4,0A4,4,0,1,1,-4,0A4,4,0,1,1,4,0" fill="#b279a2" stroke="#222" opacity="0.5"/><path transform="translate(41,98)" d="M4,0A4,4,0,1,1,-4,0A4,4,0,1,1,4,0" fill="#b279a2" stroke="#222" opacity="0.5"/><path transform="translate(5,104)" d="M4,0A4,4,0,1,1,-4,0A4,4,0,1,1,4,0" fill="#b279a2" stroke="#222" opacity="0.5"/><path transform="translate(320,36)" d="M4,0A4,4,0,1,1,-4,0A4,4,0,1,1,4,0" fill="#b279a2" stroke="#222" opacity="0.5"/><path transform="translate(4,79)" d="M4,0A4,4,0,1,1,-4,0A4,4,0,1,1,4,0" fill="#b279a2" stroke="#222" opacity="0.5"/><path transform="translate(13,89)" d="M4,0A4,4,0,1,1,-4,0A4,4,0,1,1,4,0" fill="#b279a2" stroke="#222" opacity="0.5"/><path transform="translate(4,108)" d="M4,0A4,4,0,1,1,-4,0A4,4,0,1,1,4,0" fill="#b279a2" stroke="#222" opacity="0.5"/><path transform="translate(29,111)" d="M4,0A4,4,0,1,1,-4,0A4,4,0,1,1,4,0" fill="#b279a2" stroke="#222" opacity="0.5"/></g><g class="mark-group role-legend" role="graphics-symbol" aria-roledescription="legend" aria-label="Symbol legend for fill color with 7 values: Acquisition, Active, Bankruptcy - Chapter 11, Defunct, LBO, Pending Acquisition, Went Public"><g transform="translate(594,0)"><path class="background" aria-hidden="true" d="M0,0h168v89h-168Z" pointer-events="none"/><g><g class="mark-group role-legend-entry"><g transform="translate(0,0)"><path class="background" aria-hidden="true" d="M0,0h0v0h0Z" pointer-events="none"/><g><g class="mark-group role-scope" role="graphics-object" aria-roledescription="group mark container"><g transform="translate(0,0)"><path class="background" aria-hidden="true" d="M0,0h168v11h-168Z" pointer-events="none" opacity="1"/><g><g class="mark-symbol role-legend-symbol" pointer-events="none"><path transform="translate(6,6)" d="M5,0A5,5,0,1,1,-5,0A5,5,0,1,1,5,0" fill="#4c78a8" stroke-width="1.5" opacity="1"/></g><g class="mark-text role-legend-label" pointer-events="none"><text text-anchor="start" transform="translate(16,9)" font-family="sans-serif" font-size="10px" fill="#000" opacity="1">Acquisition</text></g></g><path class="foreground" aria-hidden="true" d="" pointer-events="none" display="none"/></g><g transform="translate(0,13)"><path class="background" aria-hidden="true" d="M0,0h168v11h-168Z" pointer-events="none" opacity="1"/><g><g class="mark-symbol role-legend-symbol" pointer-events="none"><path transform="translate(6,6)" d="M5,0A5,5,0,1,1,-5,0A5,5,0,1,1,5,0" fill="#f58518" stroke-width="1.5" opacity="1"/></g><g class="mark-text role-legend-label" pointer-events="none"><text text-anchor="start" transform="translate(16,9)" font-family="sans-serif" font-size="10px" fill="#000" opacity="1">Active</text></g></g><path class="foreground" aria-hidden="true" d="" pointer-events="none" display="none"/></g><g transform="translate(0,26)"><path class="background" aria-hidden="true" d="M0,0h168v11h-168Z" pointer-events="none" opacity="1"/><g><g class="mark-symbol role-legend-symbol" pointer-events="none"><path transform="translate(6,6)" d="M5,0A5,5,0,1,1,-5,0A5,5,0,1,1,5,0" fill="#e45756" stroke-width="1.5" opacity="1"/></g><g class="mark-text role-legend-label" pointer-events="none"><text text-anchor="start" transform="translate(16,9)" font-family="sans-serif" font-size="10px" fill="#000" opacity="1">Bankruptcy - Chapt…</text></g></g><path class="foreground" aria-hidden="true" d="" pointer-events="none" display="none"/></g><g transform="translate(0,39)"><path class="background" aria-hidden="true" d="M0,0h168v11h-168Z" pointer-events="none" opacity="1"/><g><g class="mark-symbol role-legend-symbol" pointer-events="none"><path transform="translate(6,6)" d="M5,0A5,5,0,1,1,-5,0A5,5,0,1,1,5,0" fill="#72b7b2" stroke-width="1.5" opacity="1"/></g><g class="mark-text role-legend-label" pointer-events="none"><text text-anchor="start" transform="translate(16,9)" font-family="sans-serif" font-size="10px" fill="#000" opacity="1">Defunct</text></g></g><path class="foreground" aria-hidden="true" d="" pointer-events="none" display="none"/></g><g transform="translate(0,52)"><path class="background" aria-hidden="true" d="M0,0h168v11h-168Z" pointer-events="none" opacity="1"/><g><g class="mark-symbol role-legend-symbol" pointer-events="none"><path transform="translate(6,6)" d="M5,0A5,5,0,1,1,-5,0A5,5,0,1,1,5,0" fill="#54a24b" stroke-width="1.5" opacity="1"/></g><g class="mark-text role-legend-label" pointer-events="none"><text text-anchor="start" transform="translate(16,9)" font-family="sans-serif" font-size="10px" fill="#000" opacity="1">LBO</text></g></g><path class="foreground" aria-hidden="true" d="" pointer-events="none" display="none"/></g><g transform="translate(0,65)"><path class="background" aria-hidden="true" d="M0,0h168v11h-168Z" pointer-events="none" opacity="1"/><g><g class="mark-symbol role-legend-symbol" pointer-events="none"><path transform="translate(6,6)" d="M5,0A5,5,0,1,1,-5,0A5,5,0,1,1,5,0" fill="#eeca3b" stroke-width="1.5" opacity="1"/></g><g class="mark-text role-legend-label" pointer-events="none"><text text-anchor="start" transform="translate(16,9)" font-family="sans-serif" font-size="10px" fill="#000" opacity="1">Pending Acquisition</text></g></g><path class="foreground" aria-hidden="true" d="" pointer-events="none" display="none"/></g><g transform="translate(0,78)"><path class="background" aria-hidden="true" d="M0,0h168v11h-168Z" pointer-events="none" opacity="1"/><g><g class="mark-symbol role-legend-symbol" pointer-events="none"><path transform="translate(6,6)" d="M5,0A5,5,0,1,1,-5,0A5,5,0,1,1,5,0" fill="#b279a2" stroke-width="1.5" opacity="1"/></g><g class="mark-text role-legend-label" pointer-events="none"><text text-anchor="start" transform="translate(16,9)" font-family="sans-serif" font-size="10px" fill="#000" opacity="1">Went Public</text></g></g><path class="foreground" aria-hidden="true" d="" pointer-events="none" display="none"/></g></g></g><path class="foreground" aria-hidden="true" d="" pointer-events="none" display="none"/></g></g></g><path class="foreground" aria-hidden="true" d="" pointer-events="none" display="none"/></g></g><g class="mark-group role-title"><g transform="translate(362,-22)"><path class="background" aria-hidden="true" d="M0,0h0v0h0Z" pointer-events="none"/><g><g class="mark-text role-title-text" role="graphics-symbol" aria-roledescription="title" aria-label="Title text 'Relationship-amt'" pointer-events="none"><text text-anchor="middle" transform="translate(0,10)" font-family="sans-serif" font-size="13px" font-weight="bold" fill="#000" opacity="1">Relationship-amt</text></g></g><path class="foreground" aria-hidden="true" d="" pointer-events="none" display="none"/></g></g></g><path class="foreground" aria-hidden="true" d="" display="none"/></g></g></g></svg>