<svg xmlns="http://www.w3.org/2000/svg" xmlns:xlink="http://www.w3.org/1999/xlink" version="1.1" class="marks" width="800" height="450" viewBox="0 0 800 450"><rect width="800" height="450" fill="white"/><g fill="none" stroke-miterlimit="10" transform="translate(38,22)"><g class="mark-group role-frame root" role="graphics-object" aria-roledescription="group mark container"><g transform="translate(0,0)"><path class="background" aria-hidden="true" d="M0,0h576v396h-576Z"/><g><g class="mark-group role-axis" role="graphics-symbol" aria-roledescription="axis" aria-label="X-axis titled 'Share_Ratio' for a linear scale with values from 0.0 to 1.0"><g transform="translate(0.5,396.5)"><path class="background" aria-hidden="true" d="M0,0h0v0h0Z" pointer-events="none"/><g><g class="mark-rule role-axis-grid" pointer-events="none"><line transform="translate(0,0)" x2="0" y2="-396" stroke="#ddd" stroke-width="1" opacity="1"/><line transform="translate(58,0)" x2="0" y2="-396" stroke="#ddd" stroke-width="1" opacity="1"/><line transform="translate(115,0)" x2="0" y2="-396" stroke="#ddd" stroke-width="1" opacity="1"/><line transform="translate(173,0)" x2="0" y2="-396" stroke="#ddd" stroke-width="1" opacity="1"/><line transform="translate(230,0)" x2="0" y2="-396" stroke="#ddd" stroke-width="1" opacity="1"/><line transform="translate(288,0)" x2="0" y2="-396" stroke="#ddd" stroke-width="1" opacity="1"/><line transform="translate(346,0)" x2="0" y2="-396" stroke="#ddd" stroke-width="1" opacity="1"/><line transform="translate(403,0)" x2="0" y2="-396" stroke="#ddd" stroke-width="1" opacity="1"/><line transform="translate(461,0)" x2="0" y2="-396" stroke="#ddd" stroke-width="1" opacity="1"/><line transform="translate(518,0)" x2="0" y2="-396" stroke="#ddd" stroke-width="1" opacity="1"/><line transform="translate(576,0)" x2="0" y2="-396" stroke="#ddd" stroke-width="1" opacity="1"/></g><g class="mark-rule role-axis-tick" pointer-events="none"><line transform="translate(0,0)" x2="0" y2="5" stroke="#888" stroke-width="1" opacity="1"/><line transform="translate(58,0)" x2="0" y2="5" stroke="#888" stroke-width="1" opacity="1"/><line transform="translate(115,0)" x2="0" y2="5" stroke="#888" stroke-width="1" opacity="1"/><line transform="translate(173,0)" x2="0" y2="5" stroke="#888" stroke-width="1" opacity="1"/><line transform="translate(230,0)" x2="0" y2="5" stroke="#888" stroke-width="1" opacity="1"/><line transform="translate(288,0)" x2="0" y2="5" stroke="#888" stroke-width="1" opacity="1"/><line transform="translate(346,0)" x2="0" y2="5" stroke="#888" stroke-width="1" opacity="1"/><line transform="translate(403,0)" x2="0" y2="5" stroke="#888" stroke-width="1" opacity="1"/><line transform="translate(461,0)" x2="0" y2="5" stroke="#888" stroke-width="1" opacity="1"/><line transform="translate(518,0)" x2="0" y2="5" stroke="#888" stroke-width="1" opacity="1"/><line transform="translate(576,0)" x2="0" y2="5" stroke="#888" stroke-width="1" opacity="1"/></g><g class="mark-text role-axis-label" pointer-events="none"><text text-anchor="middle" transform="translate(0,15)" font-family="sans-serif" font-size="10px" fill="#000" opacity="1">0.0</text><text text-anchor="middle" transform="translate(58,15)" font-family="sans-serif" font-size="10px" fill="#000" opacity="1">0.1</text><text text-anchor="middle" transform="translate(115,15)" font-family="sans-serif" font-size="10px" fill="#000" opacity="1">0.2</text><text text-anchor="middle" transform="translate(173,15)" font-family="sans-serif" font-size="10px" fill="#000" opacity="1">0.3</text><text text-anchor="middle" transform="translate(230,15)" font-family="sans-serif" font-size="10px" fill="#000" opacity="1">0.4</text><text text-anchor="middle" transform="translate(288,15)" font-family="sans-serif" font-size="10px" fill="#000" opacity="1">0.5</text><text text-anchor="middle" transform="translate(346,15)" font-family="sans-serif" font-size="10px" fill="#000" opacity="1">0.6</text><text text-anchor="middle" transform="translate(403,15)" font-family="sans-serif" font-size="10px" fill="#000" opacity="1">0.7</text><text text-anchor="middle" transform="translate(461,15)" font-family="sans-serif" font-size="10px" fill="#000" opacity="1">0.8</text><text text-anchor="middle" transform="translate(518,15)" font-family="sans-serif" font-size="10px" fill="#000" opacity="1">0.9</text><text text-anchor="middle" transform="translate(576,15)" font-family="sans-serif" font-size="10px" fill="#000" opacity="1">1.0</text></g><g class="mark-text role-axis-title" pointer-events="none"><text text-anchor="middle" transform="translate(288,30)" font-family="sans-serif" font-size="11px" font-weight="bold" fill="#000" opacity="1">Share_Ratio</text></g></g><path class="foreground" aria-hidden="true" d="" pointer-events="none" display="none"/></g></g><g class="mark-group role-axis" role="graphics-symbol" aria-roledescription="axis" aria-label="Y-axis titled 'Num_Investors' for a linear scale with values from 0 to 18"><g transform="translate(0.5,0.5)"><path class="background" aria-hidden="true" d="M0,0h0v0h0Z" pointer-events="none"/><g><g class="mark-rule role-axis-grid" pointer-events="none"><line transform="translate(0,396)" x2="576" y2="0" stroke="#ddd" stroke-width="1" opacity="1"/><line transform="translate(0,352)" x2="576" y2="0" stroke="#ddd" stroke-width="1" opacity="1"/><line transform="translate(0,308)" x2="576" y2="0" stroke="#ddd" stroke-width="1" opacity="1"/><line transform="translate(0,264)" x2="576" y2="0" stroke="#ddd" stroke-width="1" opacity="1"/><line transform="translate(0,220)" x2="576" y2="0" stroke="#ddd" stroke-width="1" opacity="1"/><line transform="translate(0,176)" x2="576" y2="0" stroke="#ddd" stroke-width="1" opacity="1"/><line transform="translate(0,132)" x2="576" y2="0" stroke="#ddd" stroke-width="1" opacity="1"/><line transform="translate(0,88)" x2="576" y2="0" stroke="#ddd" stroke-width="1" opacity="1"/><line transform="translate(0,44)" x2="576" y2="0" stroke="#ddd" stroke-width="1" opacity="1"/><line transform="translate(0,0)" x2="576" y2="0" stroke="#ddd" stroke-width="1" opacity="1"/></g><g class="mark-rule role-axis-tick" pointer-events="none"><line transform="translate(0,396)" x2="-5" y2="0" stroke="#888" stroke-width="1" opacity="1"/><line transform="translate(0,352)" x2="-5" y2="0" stroke="#888" stroke-width="1" opacity="1"/><line transform="translate(0,308)" x2="-5" y2="0" stroke="#888" stroke-width="1" opacity="1"/><line transform="translate(0,264)" x2="-5" y2="0" stroke="#888" stroke-width="1" opacity="1"/><line transform="translate(0,220)" x2="-5" y2="0" stroke="#888" stroke-width="1" opacity="1"/><line transform="translate(0,176)" x2="-5" y2="0" stroke="#888" stroke-width="1" opacity="1"/><line transform="translate(0,132)" x2="-5" y2="0" stroke="#888" stroke-width="1" opacity="1"/><line transform="translate(0,88)" x2="-5" y2="0" stroke="#888" stroke-width="1" opacity="1"/><line transform="translate(0,44)" x2="-5" y2="0" stroke="#888" stroke-width="1" opacity="1"/><line transform="translate(0,0)" x2="-5" y2="0" stroke="#888" stroke-width="1" opacity="1"/></g><g class="mark-text role-axis-label" pointer-events="none"><text text-anchor="end" transform="translate(-7,399)" font-family="sans-serif" font-size="10px" fill="#000" opacity="1">0</text><text text-anchor="end" transform="translate(-7,355)" font-family="sans-serif" font-size="10px" fill="#000" opacity="1">2</text><text text-anchor="end" transform="translate(-7,311)" font-family="sans-serif" font-size="10px" fill="#000" opacity="1">4</text><text text-anchor="end" transform="translate(-7,267)" font-family="sans-serif" font-size="10px" fill="#000" opacity="1">6</text><text text-anchor="end" transform="translate(-7,223)" font-family="sans-serif" font-size="10px" fill="#000" opacity="1">8</text><text text-anchor="end" transform="translate(-7,179)" font-family="sans-serif" font-size="10px" fill="#000" opacity="1">10</text><text text-anchor="end" transform="translate(-7,135)" font-family="sans-serif" font-size="10px" fill="#000" opacity="1">12</text><text text-anchor="end" transform="translate(-7,91)" font-family="sans-serif" font-size="10px" fill="#000" opacity="1">14</text><text text-anchor="end" transform="translate(-7,47)" font-family="sans-serif" font-size="10px" fill="#000" opacity="1">16</text><text text-anchor="end" transform="translate(-7,3)" font-family="sans-serif" font-size="10px" fill="#000" opacity="1">18</text></g><g class="mark-text role-axis-title" pointer-events="none"><text text-anchor="middle" transform="translate(-27,198) rotate(-90) translate(0,-2)" font-family="sans-serif" font-size="11px" font-weight="bold" fill="#000" opacity="1">Num_Investors</text></g></g><path class="foreground" aria-hidden="true" d="" pointer-events="none" display="none"/></g></g><g class="mark-symbol role-mark" role="graphics-symbol" aria-roledescription="symbol mark container"><path transform="translate(13,308)" d="M4,0A4,4,0,1,1,-4,0A4,4,0,1,1,4,0" fill="#4c78a8" stroke="#222" opacity="0.5"/><path transform="translate(8,308)" d="M4,0A4,4,0,1,1,-4,0A4,4,0,1,1,4,0" fill="#4c78a8" stroke="#222" opacity="0.5"/><path transform="translate(64,352)" d="M4,0A4,4,0,1,1,-4,0A4,4,0,1,1,4,0" fill="#4c78a8" stroke="#222" opacity="0.5"/><path transform="translate(2,308)" d="M4,0A4,4,0,1,1,-4,0A4,4,0,1,1,4,0" fill="#4c78a8" stroke="#222" opacity="0.5"/><path transform="translate(196,154)" d="M4,0A4,4,0,1,1,-4,0A4,4,0,1,1,4,0" fill="#4c78a8" stroke="#222" opacity="0.5"/><path transform="translate(24,264)" d="M4,0A4,4,0,1,1,-4,0A4,4,0,1,1,4,0" fill="#4c78a8" stroke="#222" opacity="0.5"/><path transform="translate(72,352)" d="M4,0A4,4,0,1,1,-4,0A4,4,0,1,1,4,0" fill="#4c78a8" stroke="#222" opacity="0.5"/><path transform="translate(14,330)" d="M4,0A4,4,0,1,1,-4,0A4,4,0,1,1,4,0" fill="#4c78a8" stroke="#222" opacity="0.5"/><path transform="translate(24,352)" d="M4,0A4,4,0,1,1,-4,0A4,4,0,1,1,4,0" fill="#4c78a8" stroke="#222" opacity="0.5"/><path transform="translate(166,132)" d="M4,0A4,4,0,1,1,-4,0A4,4,0,1,1,4,0" fill="#4c78a8" stroke="#222" opacity="0.5"/><path transform="translate(432,352)" d="M4,0A4,4,0,1,1,-4,0A4,4,0,1,1,4,0" fill="#4c78a8" stroke="#222" opacity="0.5"/><path transform="translate(79,308)" d="M4,0A4,4,0,1,1,-4,0A4,4,0,1,1,4,0" fill="#4c78a8" stroke="#222" opacity="0.5"/><path transform="translate(518,352)" d="M4,0A4,4,0,1,1,-4,0A4,4,0,1,1,4,0" fill="#4c78a8" stroke="#222" opacity="0.5"/><path transform="translate(93,352)" d="M4,0A4,4,0,1,1,-4,0A4,4,0,1,1,4,0" fill="#4c78a8" stroke="#222" opacity="0.5"/><path transform="translate(144,374)" d="M4,0A4,4,0,1,1,-4,0A4,4,0,1,1,4,0" fill="#4c78a8" stroke="#222" opacity="0.5"/><path transform="translate(0,308)" d="M4,0A4,4,0,1,1,-4,0A4,4,0,1,1,4,0" fill="#4c78a8" stroke="#222" opacity="0.5"/><path transform="translate(10,286)" d="M4,0A4,4,0,1,1,-4,0A4,4,0,1,1,4,0" fill="#f58518" stroke="#222" opacity="0.5"/><path transform="translate(23,308)" d="M4,0A4,4,0,1,1,-4,0A4,4,0,1,1,4,0" fill="#f58518" stroke="#222" opacity="0.5"/><path transform="translate(18,330)" d="M4,0A4,4,0,1,1,-4,0A4,4,0,1,1,4,0" fill="#f58518" stroke="#222" opacity="0.5"/><path transform="translate(1,286)" d="M4,0A4,4,0,1,1,-4,0A4,4,0,1,1,4,0" fill="#f58518" stroke="#222" opacity="0.5"/><path transform="translate(15,352)" d="M4,0A4,4,0,1,1,-4,0A4,4,0,1,1,4,0" fill="#f58518" stroke="#222" opacity="0.5"/><path transform="translate(7,308)" d="M4,0A4,4,0,1,1,-4,0A4,4,0,1,1,4,0" fill="#f58518" stroke="#222" opacity="0.5"/><path transform="translate(30,374)" d="M4,0A4,4,0,1,1,-4,0A4,4,0,1,1,4,0" fill="#f58518" stroke="#222" opacity="0.5"/><path transform="translate(36,308)" d="M4,0A4,4,0,1,1,-4,0A4,4,0,1,1,4,0" fill="#f58518" stroke="#222" opacity="0.5"/><path transform="translate(3,264)" d="M4,0A4,4,0,1,1,-4,0A4,4,0,1,1,4,0" fill="#f58518" stroke="#222" opacity="0.5"/><path transform="translate(39,308)" d="M4,0A4,4,0,1,1,-4,0A4,4,0,1,1,4,0" fill="#f58518" stroke="#222" opacity="0.5"/><path transform="translate(0,264)" d="M4,0A4,4,0,1,1,-4,0A4,4,0,1,1,4,0" fill="#f58518" stroke="#222" opacity="0.5"/><path transform="translate(2,286)" d="M4,0A4,4,0,1,1,-4,0A4,4,0,1,1,4,0" fill="#f58518" stroke="#222" opacity="0.5"/><path transform="translate(38,308)" d="M4,0A4,4,0,1,1,-4,0A4,4,0,1,1,4,0" fill="#f58518" stroke="#222" opacity="0.5"/><path transform="translate(17,308)" d="M4,0A4,4,0,1,1,-4,0A4,4,0,1,1,4,0" fill="#f58518" stroke="#222" opacity="0.5"/><path transform="translate(4,286)" d="M4,0A4,4,0,1,1,-4,0A4,4,0,1,1,4,0" fill="#f58518" stroke="#222" opacity="0.5"/><path transform="translate(66,352)" d="M4,0A4,4,0,1,1,-4,0A4,4,0,1,1,4,0" fill="#f58518" stroke="#222" opacity="0.5"/><path transform="translate(16,352)" d="M4,0A4,4,0,1,1,-4,0A4,4,0,1,1,4,0" fill="#f58518" stroke="#222" opacity="0.5"/><path transform="translate(4,264)" d="M4,0A4,4,0,1,1,-4,0A4,4,0,1,1,4,0" fill="#f58518" stroke="#222" opacity="0.5"/><path transform="translate(5,264)" d="M4,0A4,4,0,1,1,-4,0A4,4,0,1,1,4,0" fill="#f58518" stroke="#222" opacity="0.5"/><path transform="translate(14,264)" d="M4,0A4,4,0,1,1,-4,0A4,4,0,1,1,4,0" fill="#f58518" stroke="#222" opacity="0.5"/><path transform="translate(35,330)" d="M4,0A4,4,0,1,1,-4,0A4,4,0,1,1,4,0" fill="#f58518" stroke="#222" opacity="0.5"/><path transform="translate(16,308)" d="M4,0A4,4,0,1,1,-4,0A4,4,0,1,1,4,0" fill="#f58518" stroke="#222" opacity="0.5"/><path transform="translate(21,286)" d="M4,0A4,4,0,1,1,-4,0A4,4,0,1,1,4,0" fill="#f58518" stroke="#222" opacity="0.5"/><path transform="translate(15,286)" d="M4,0A4,4,0,1,1,-4,0A4,4,0,1,1,4,0" fill="#f58518" stroke="#222" opacity="0.5"/><path transform="translate(34,264)" d="M4,0A4,4,0,1,1,-4,0A4,4,0,1,1,4,0" fill="#f58518" stroke="#222" opacity="0.5"/><path transform="translate(1,264)" d="M4,0A4,4,0,1,1,-4,0A4,4,0,1,1,4,0" fill="#f58518" stroke="#222" opacity="0.5"/><path transform="translate(43,286)" d="M4,0A4,4,0,1,1,-4,0A4,4,0,1,1,4,0" fill="#f58518" stroke="#222" opacity="0.5"/><path transform="translate(13,286)" d="M4,0A4,4,0,1,1,-4,0A4,4,0,1,1,4,0" fill="#f58518" stroke="#222" opacity="0.5"/><path transform="translate(19,330)" d="M4,0A4,4,0,1,1,-4,0A4,4,0,1,1,4,0" fill="#f58518" stroke="#222" opacity="0.5"/><path transform="translate(31,330)" d="M4,0A4,4,0,1,1,-4,0A4,4,0,1,1,4,0" fill="#f58518" stroke="#222" opacity="0.5"/><path transform="translate(48,330)" d="M4,0A4,4,0,1,1,-4,0A4,4,0,1,1,4,0" fill="#f58518" stroke="#222" opacity="0.5"/><path transform="translate(10,198)" d="M4,0A4,4,0,1,1,-4,0A4,4,0,1,1,4,0" fill="#f58518" stroke="#222" opacity="0.5"/><path transform="translate(39,286)" d="M4,0A4,4,0,1,1,-4,0A4,4,0,1,1,4,0" fill="#f58518" stroke="#222" opacity="0.5"/><path transform="translate(13,352)" d="M4,0A4,4,0,1,1,-4,0A4,4,0,1,1,4,0" fill="#f58518" stroke="#222" opacity="0.5"/><path transform="translate(17,330)" d="M4,0A4,4,0,1,1,-4,0A4,4,0,1,1,4,0" fill="#f58518" stroke="#222" opacity="0.5"/><path transform="translate(135,308)" d="M4,0A4,4,0,1,1,-4,0A4,4,0,1,1,4,0" fill="#f58518" stroke="#222" opacity="0.5"/><path transform="translate(7,330)" d="M4,0A4,4,0,1,1,-4,0A4,4,0,1,1,4,0" fill="#f58518" stroke="#222" opacity="0.5"/><path transform="translate(53,308)" d="M4,0A4,4,0,1,1,-4,0A4,4,0,1,1,4,0" fill="#f58518" stroke="#222" opacity="0.5"/><path transform="translate(60,308)" d="M4,0A4,4,0,1,1,-4,0A4,4,0,1,1,4,0" fill="#f58518" stroke="#222" opacity="0.5"/><path transform="translate(54,352)" d="M4,0A4,4,0,1,1,-4,0A4,4,0,1,1,4,0" fill="#f58518" stroke="#222" opacity="0.5"/><path transform="translate(1,220)" d="M4,0A4,4,0,1,1,-4,0A4,4,0,1,1,4,0" fill="#f58518" stroke="#222" opacity="0.5"/><path transform="translate(25,352)" d="M4,0A4,4,0,1,1,-4,0A4,4,0,1,1,4,0" fill="#f58518" stroke="#222" opacity="0.5"/><path transform="translate(140,352)" d="M4,0A4,4,0,1,1,-4,0A4,4,0,1,1,4,0" fill="#f58518" stroke="#222" opacity="0.5"/><path transform="translate(105,220)" d="M4,0A4,4,0,1,1,-4,0A4,4,0,1,1,4,0" fill="#f58518" stroke="#222" opacity="0.5"/><path transform="translate(77,374)" d="M4,0A4,4,0,1,1,-4,0A4,4,0,1,1,4,0" fill="#f58518" stroke="#222" opacity="0.5"/><path transform="translate(18,286)" d="M4,0A4,4,0,1,1,-4,0A4,4,0,1,1,4,0" fill="#f58518" stroke="#222" opacity="0.5"/><path transform="translate(7,330)" d="M4,0A4,4,0,1,1,-4,0A4,4,0,1,1,4,0" fill="#f58518" stroke="#222" opacity="0.5"/><path transform="translate(3,264)" d="M4,0A4,4,0,1,1,-4,0A4,4,0,1,1,4,0" fill="#f58518" stroke="#222" opacity="0.5"/><path transform="translate(26,286)" d="M4,0A4,4,0,1,1,-4,0A4,4,0,1,1,4,0" fill="#f58518" stroke="#222" opacity="0.5"/><path transform="translate(23,308)" d="M4,0A4,4,0,1,1,-4,0A4,4,0,1,1,4,0" fill="#f58518" stroke="#222" opacity="0.5"/><path transform="translate(8,198)" d="M4,0A4,4,0,1,1,-4,0A4,4,0,1,1,4,0" fill="#f58518" stroke="#222" opacity="0.5"/><path transform="translate(26,198)" d="M4,0A4,4,0,1,1,-4,0A4,4,0,1,1,4,0" fill="#f58518" stroke="#222" opacity="0.5"/><path transform="translate(115,308)" d="M4,0A4,4,0,1,1,-4,0A4,4,0,1,1,4,0" fill="#f58518" stroke="#222" opacity="0.5"/><path transform="translate(384,374)" d="M4,0A4,4,0,1,1,-4,0A4,4,0,1,1,4,0" fill="#f58518" stroke="#222" opacity="0.5"/><path transform="translate(2,352)" d="M4,0A4,4,0,1,1,-4,0A4,4,0,1,1,4,0" fill="#f58518" stroke="#222" opacity="0.5"/><path transform="translate(9,242)" d="M4,0A4,4,0,1,1,-4,0A4,4,0,1,1,4,0" fill="#f58518" stroke="#222" opacity="0.5"/><path transform="translate(131,330)" d="M4,0A4,4,0,1,1,-4,0A4,4,0,1,1,4,0" fill="#f58518" stroke="#222" opacity="0.5"/><path transform="translate(7,352)" d="M4,0A4,4,0,1,1,-4,0A4,4,0,1,1,4,0" fill="#f58518" stroke="#222" opacity="0.5"/><path transform="translate(132,308)" d="M4,0A4,4,0,1,1,-4,0A4,4,0,1,1,4,0" fill="#f58518" stroke="#222" opacity="0.5"/><path transform="translate(101,308)" d="M4,0A4,4,0,1,1,-4,0A4,4,0,1,1,4,0" fill="#f58518" stroke="#222" opacity="0.5"/><path transform="translate(68,352)" d="M4,0A4,4,0,1,1,-4,0A4,4,0,1,1,4,0" fill="#f58518" stroke="#222" opacity="0.5"/><path transform="translate(2,308)" d="M4,0A4,4,0,1,1,-4,0A4,4,0,1,1,4,0" fill="#f58518" stroke="#222" opacity="0.5"/><path transform="translate(28,308)" d="M4,0A4,4,0,1,1,-4,0A4,4,0,1,1,4,0" fill="#f58518" stroke="#222" opacity="0.5"/><path transform="translate(57,286)" d="M4,0A4,4,0,1,1,-4,0A4,4,0,1,1,4,0" fill="#f58518" stroke="#222" opacity="0.5"/><path transform="translate(144,352)" d="M4,0A4,4,0,1,1,-4,0A4,4,0,1,1,4,0" fill="#f58518" stroke="#222" opacity="0.5"/><path transform="translate(113,374)" d="M4,0A4,4,0,1,1,-4,0A4,4,0,1,1,4,0" fill="#f58518" stroke="#222" opacity="0.5"/><path transform="translate(66,374)" d="M4,0A4,4,0,1,1,-4,0A4,4,0,1,1,4,0" fill="#f58518" stroke="#222" opacity="0.5"/><path transform="translate(66,374)" d="M4,0A4,4,0,1,1,-4,0A4,4,0,1,1,4,0" fill="#f58518" stroke="#222" opacity="0.5"/><path transform="translate(96,308)" d="M4,0A4,4,0,1,1,-4,0A4,4,0,1,1,4,0" fill="#f58518" stroke="#222" opacity="0.5"/><path transform="translate(129,374)" d="M4,0A4,4,0,1,1,-4,0A4,4,0,1,1,4,0" fill="#f58518" stroke="#222" opacity="0.5"/><path transform="translate(257,286)" d="M4,0A4,4,0,1,1,-4,0A4,4,0,1,1,4,0" fill="#f58518" stroke="#222" opacity="0.5"/><path transform="translate(32,374)" d="M4,0A4,4,0,1,1,-4,0A4,4,0,1,1,4,0" fill="#f58518" stroke="#222" opacity="0.5"/><path transform="translate(134,374)" d="M4,0A4,4,0,1,1,-4,0A4,4,0,1,1,4,0" fill="#f58518" stroke="#222" opacity="0.5"/><path transform="translate(160,374)" d="M4,0A4,4,0,1,1,-4,0A4,4,0,1,1,4,0" fill="#f58518" stroke="#222" opacity="0.5"/><path transform="translate(135,374)" d="M4,0A4,4,0,1,1,-4,0A4,4,0,1,1,4,0" fill="#f58518" stroke="#222" opacity="0.5"/><path transform="translate(76,352)" d="M4,0A4,4,0,1,1,-4,0A4,4,0,1,1,4,0" fill="#f58518" stroke="#222" opacity="0.5"/><path transform="translate(200,374)" d="M4,0A4,4,0,1,1,-4,0A4,4,0,1,1,4,0" fill="#f58518" stroke="#222" opacity="0.5"/><path transform="translate(144,374)" d="M4,0A4,4,0,1,1,-4,0A4,4,0,1,1,4,0" fill="#f58518" stroke="#222" opacity="0.5"/><path transform="translate(58,374)" d="M4,0A4,4,0,1,1,-4,0A4,4,0,1,1,4,0" fill="#f58518" stroke="#222" opacity="0.5"/><path transform="translate(0,330)" d="M4,0A4,4,0,1,1,-4,0A4,4,0,1,1,4,0" fill="#f58518" stroke="#222" opacity="0.5"/><path transform="translate(74,330)" d="M4,0A4,4,0,1,1,-4,0A4,4,0,1,1,4,0" fill="#f58518" stroke="#222" opacity="0.5"/><path transform="translate(138,374)" d="M4,0A4,4,0,1,1,-4,0A4,4,0,1,1,4,0" fill="#f58518" stroke="#222" opacity="0.5"/><path transform="translate(115,374)" d="M4,0A4,4,0,1,1,-4,0A4,4,0,1,1,4,0" fill="#f58518" stroke="#222" opacity="0.5"/><path transform="translate(30,374)" d="M4,0A4,4,0,1,1,-4,0A4,4,0,1,1,4,0" fill="#f58518" stroke="#222" opacity="0.5"/><path transform="translate(96,374)" d="M4,0A4,4,0,1,1,-4,0A4,4,0,1,1,4,0" fill="#f58518" stroke="#222" opacity="0.5"/><path transform="translate(28,374)" d="M4,0A4,4,0,1,1,-4,0A4,4,0,1,1,4,0" fill="#f58518" stroke="#222" opacity="0.5"/><path transform="translate(0,308)" d="M4,0A4,4,0,1,1,-4,0A4,4,0,1,1,4,0" fill="#f58518" stroke="#222" opacity="0.5"/><path transform="translate(2,330)" d="M4,0A4,4,0,1,1,-4,0A4,4,0,1,1,4,0" fill="#f58518" stroke="#222" opacity="0.5"/><path transform="translate(28,242)" d="M4,0A4,4,0,1,1,-4,0A4,4,0,1,1,4,0" fill="#f58518" stroke="#222" opacity="0.5"/><path transform="translate(6,308)" d="M4,0A4,4,0,1,1,-4,0A4,4,0,1,1,4,0" fill="#f58518" stroke="#222" opacity="0.5"/><path transform="translate(4,286)" d="M4,0A4,4,0,1,1,-4,0A4,4,0,1,1,4,0" fill="#f58518" stroke="#222" opacity="0.5"/><path transform="translate(150,330)" d="M4,0A4,4,0,1,1,-4,0A4,4,0,1,1,4,0" fill="#f58518" stroke="#222" opacity="0.5"/><path transform="translate(22,330)" d="M4,0A4,4,0,1,1,-4,0A4,4,0,1,1,4,0" fill="#f58518" stroke="#222" opacity="0.5"/><path transform="translate(13,330)" d="M4,0A4,4,0,1,1,-4,0A4,4,0,1,1,4,0" fill="#f58518" stroke="#222" opacity="0.5"/><path transform="translate(17,264)" d="M4,0A4,4,0,1,1,-4,0A4,4,0,1,1,4,0" fill="#f58518" stroke="#222" opacity="0.5"/><path transform="translate(1,330)" d="M4,0A4,4,0,1,1,-4,0A4,4,0,1,1,4,0" fill="#f58518" stroke="#222" opacity="0.5"/><path transform="translate(48,286)" d="M4,0A4,4,0,1,1,-4,0A4,4,0,1,1,4,0" fill="#f58518" stroke="#222" opacity="0.5"/><path transform="translate(66,286)" d="M4,0A4,4,0,1,1,-4,0A4,4,0,1,1,4,0" fill="#f58518" stroke="#222" opacity="0.5"/><path transform="translate(52,308)" d="M4,0A4,4,0,1,1,-4,0A4,4,0,1,1,4,0" fill="#f58518" stroke="#222" opacity="0.5"/><path transform="translate(8,286)" d="M4,0A4,4,0,1,1,-4,0A4,4,0,1,1,4,0" fill="#f58518" stroke="#222" opacity="0.5"/><path transform="translate(0,352)" d="M4,0A4,4,0,1,1,-4,0A4,4,0,1,1,4,0" fill="#f58518" stroke="#222" opacity="0.5"/><path transform="translate(26,352)" d="M4,0A4,4,0,1,1,-4,0A4,4,0,1,1,4,0" fill="#f58518" stroke="#222" opacity="0.5"/><path transform="translate(26,330)" d="M4,0A4,4,0,1,1,-4,0A4,4,0,1,1,4,0" fill="#f58518" stroke="#222" opacity="0.5"/><path transform="translate(4,308)" d="M4,0A4,4,0,1,1,-4,0A4,4,0,1,1,4,0" fill="#f58518" stroke="#222" opacity="0.5"/><path transform="translate(5,330)" d="M4,0A4,4,0,1,1,-4,0A4,4,0,1,1,4,0" fill="#f58518" stroke="#222" opacity="0.5"/><path transform="translate(9,330)" d="M4,0A4,4,0,1,1,-4,0A4,4,0,1,1,4,0" fill="#f58518" stroke="#222" opacity="0.5"/><path transform="translate(7,330)" d="M4,0A4,4,0,1,1,-4,0A4,4,0,1,1,4,0" fill="#f58518" stroke="#222" opacity="0.5"/><path transform="translate(3,330)" d="M4,0A4,4,0,1,1,-4,0A4,4,0,1,1,4,0" fill="#f58518" stroke="#222" opacity="0.5"/><path transform="translate(8,330)" d="M4,0A4,4,0,1,1,-4,0A4,4,0,1,1,4,0" fill="#f58518" stroke="#222" opacity="0.5"/><path transform="translate(2,330)" d="M4,0A4,4,0,1,1,-4,0A4,4,0,1,1,4,0" fill="#f58518" stroke="#222" opacity="0.5"/><path transform="translate(43,352)" d="M4,0A4,4,0,1,1,-4,0A4,4,0,1,1,4,0" fill="#f58518" stroke="#222" opacity="0.5"/><path transform="translate(2,330)" d="M4,0A4,4,0,1,1,-4,0A4,4,0,1,1,4,0" fill="#f58518" stroke="#222" opacity="0.5"/><path transform="translate(12,286)" d="M4,0A4,4,0,1,1,-4,0A4,4,0,1,1,4,0" fill="#f58518" stroke="#222" opacity="0.5"/><path transform="translate(67,308)" d="M4,0A4,4,0,1,1,-4,0A4,4,0,1,1,4,0" fill="#f58518" stroke="#222" opacity="0.5"/><path transform="translate(8,330)" d="M4,0A4,4,0,1,1,-4,0A4,4,0,1,1,4,0" fill="#f58518" stroke="#222" opacity="0.5"/><path transform="translate(19,330)" d="M4,0A4,4,0,1,1,-4,0A4,4,0,1,1,4,0" fill="#f58518" stroke="#222" opacity="0.5"/><path transform="translate(64,374)" d="M4,0A4,4,0,1,1,-4,0A4,4,0,1,1,4,0" fill="#f58518" stroke="#222" opacity="0.5"/><path transform="translate(11,264)" d="M4,0A4,4,0,1,1,-4,0A4,4,0,1,1,4,0" fill="#f58518" stroke="#222" opacity="0.5"/><path transform="translate(5,352)" d="M4,0A4,4,0,1,1,-4,0A4,4,0,1,1,4,0" fill="#f58518" stroke="#222" opacity="0.5"/><path transform="translate(84,374)" d="M4,0A4,4,0,1,1,-4,0A4,4,0,1,1,4,0" fill="#f58518" stroke="#222" opacity="0.5"/><path transform="translate(41,330)" d="M4,0A4,4,0,1,1,-4,0A4,4,0,1,1,4,0" fill="#f58518" stroke="#222" opacity="0.5"/><path transform="translate(0,308)" d="M4,0A4,4,0,1,1,-4,0A4,4,0,1,1,4,0" fill="#f58518" stroke="#222" opacity="0.5"/><path transform="translate(13,308)" d="M4,0A4,4,0,1,1,-4,0A4,4,0,1,1,4,0" fill="#f58518" stroke="#222" opacity="0.5"/><path transform="translate(46,286)" d="M4,0A4,4,0,1,1,-4,0A4,4,0,1,1,4,0" fill="#f58518" stroke="#222" opacity="0.5"/><path transform="translate(79,352)" d="M4,0A4,4,0,1,1,-4,0A4,4,0,1,1,4,0" fill="#f58518" stroke="#222" opacity="0.5"/><path transform="translate(7,264)" d="M4,0A4,4,0,1,1,-4,0A4,4,0,1,1,4,0" fill="#f58518" stroke="#222" opacity="0.5"/><path transform="translate(38,242)" d="M4,0A4,4,0,1,1,-4,0A4,4,0,1,1,4,0" fill="#f58518" stroke="#222" opacity="0.5"/><path transform="translate(64,374)" d="M4,0A4,4,0,1,1,-4,0A4,4,0,1,1,4,0" fill="#f58518" stroke="#222" opacity="0.5"/><path transform="translate(64,374)" d="M4,0A4,4,0,1,1,-4,0A4,4,0,1,1,4,0" fill="#f58518" stroke="#222" opacity="0.5"/><path transform="translate(6,220)" d="M4,0A4,4,0,1,1,-4,0A4,4,0,1,1,4,0" fill="#f58518" stroke="#222" opacity="0.5"/><path transform="translate(37,374)" d="M4,0A4,4,0,1,1,-4,0A4,4,0,1,1,4,0" fill="#f58518" stroke="#222" opacity="0.5"/><path transform="translate(7,330)" d="M4,0A4,4,0,1,1,-4,0A4,4,0,1,1,4,0" fill="#f58518" stroke="#222" opacity="0.5"/><path transform="translate(0,308)" d="M4,0A4,4,0,1,1,-4,0A4,4,0,1,1,4,0" fill="#f58518" stroke="#222" opacity="0.5"/><path transform="translate(74,330)" d="M4,0A4,4,0,1,1,-4,0A4,4,0,1,1,4,0" fill="#f58518" stroke="#222" opacity="0.5"/><path transform="translate(177,330)" d="M4,0A4,4,0,1,1,-4,0A4,4,0,1,1,4,0" fill="#f58518" stroke="#222" opacity="0.5"/><path transform="translate(19,352)" d="M4,0A4,4,0,1,1,-4,0A4,4,0,1,1,4,0" fill="#f58518" stroke="#222" opacity="0.5"/><path transform="translate(3,286)" d="M4,0A4,4,0,1,1,-4,0A4,4,0,1,1,4,0" fill="#f58518" stroke="#222" opacity="0.5"/><path transform="translate(0,330)" d="M4,0A4,4,0,1,1,-4,0A4,4,0,1,1,4,0" fill="#f58518" stroke="#222" opacity="0.5"/><path transform="translate(6,308)" d="M4,0A4,4,0,1,1,-4,0A4,4,0,1,1,4,0" fill="#f58518" stroke="#222" opacity="0.5"/><path transform="translate(29,352)" d="M4,0A4,4,0,1,1,-4,0A4,4,0,1,1,4,0" fill="#f58518" stroke="#222" opacity="0.5"/><path transform="translate(208,330)" d="M4,0A4,4,0,1,1,-4,0A4,4,0,1,1,4,0" fill="#f58518" stroke="#222" opacity="0.5"/><path transform="translate(18,308)" d="M4,0A4,4,0,1,1,-4,0A4,4,0,1,1,4,0" fill="#f58518" stroke="#222" opacity="0.5"/><path transform="translate(41,330)" d="M4,0A4,4,0,1,1,-4,0A4,4,0,1,1,4,0" fill="#f58518" stroke="#222" opacity="0.5"/><path transform="translate(29,308)" d="M4,0A4,4,0,1,1,-4,0A4,4,0,1,1,4,0" fill="#f58518" stroke="#222" opacity="0.5"/><path transform="translate(309,198)" d="M4,0A4,4,0,1,1,-4,0A4,4,0,1,1,4,0" fill="#f58518" stroke="#222" opacity="0.5"/><path transform="translate(4,308)" d="M4,0A4,4,0,1,1,-4,0A4,4,0,1,1,4,0" fill="#f58518" stroke="#222" opacity="0.5"/><path transform="translate(0,308)" d="M4,0A4,4,0,1,1,-4,0A4,4,0,1,1,4,0" fill="#f58518" stroke="#222" opacity="0.5"/><path transform="translate(152,330)" d="M4,0A4,4,0,1,1,-4,0A4,4,0,1,1,4,0" fill="#f58518" stroke="#222" opacity="0.5"/><path transform="translate(80,374)" d="M4,0A4,4,0,1,1,-4,0A4,4,0,1,1,4,0" fill="#f58518" stroke="#222" opacity="0.5"/><path transform="translate(6,286)" d="M4,0A4,4,0,1,1,-4,0A4,4,0,1,1,4,0" fill="#f58518" stroke="#222" opacity="0.5"/><path transform="translate(8,352)" d="M4,0A4,4,0,1,1,-4,0A4,4,0,1,1,4,0" fill="#f58518" stroke="#222" opacity="0.5"/><path transform="translate(0,352)" d="M4,0A4,4,0,1,1,-4,0A4,4,0,1,1,4,0" fill="#f58518" stroke="#222" opacity="0.5"/><path transform="translate(202,330)" d="M4,0A4,4,0,1,1,-4,0A4,4,0,1,1,4,0" fill="#f58518" stroke="#222" opacity="0.5"/><path transform="translate(37,286)" d="M4,0A4,4,0,1,1,-4,0A4,4,0,1,1,4,0" fill="#f58518" stroke="#222" opacity="0.5"/><path transform="translate(34,352)" d="M4,0A4,4,0,1,1,-4,0A4,4,0,1,1,4,0" fill="#f58518" stroke="#222" opacity="0.5"/><path transform="translate(17,352)" d="M4,0A4,4,0,1,1,-4,0A4,4,0,1,1,4,0" fill="#f58518" stroke="#222" opacity="0.5"/><path transform="translate(65,352)" d="M4,0A4,4,0,1,1,-4,0A4,4,0,1,1,4,0" fill="#f58518" stroke="#222" opacity="0.5"/><path transform="translate(16,176)" d="M4,0A4,4,0,1,1,-4,0A4,4,0,1,1,4,0" fill="#f58518" stroke="#222" opacity="0.5"/><path transform="translate(43,330)" d="M4,0A4,4,0,1,1,-4,0A4,4,0,1,1,4,0" fill="#f58518" stroke="#222" opacity="0.5"/><path transform="translate(14,352)" d="M4,0A4,4,0,1,1,-4,0A4,4,0,1,1,4,0" fill="#f58518" stroke="#222" opacity="0.5"/><path transform="translate(42,374)" d="M4,0A4,4,0,1,1,-4,0A4,4,0,1,1,4,0" fill="#f58518" stroke="#222" opacity="0.5"/><path transform="translate(64,352)" d="M4,0A4,4,0,1,1,-4,0A4,4,0,1,1,4,0" fill="#f58518" stroke="#222" opacity="0.5"/><path transform="translate(0,286)" d="M4,0A4,4,0,1,1,-4,0A4,4,0,1,1,4,0" fill="#f58518" stroke="#222" opacity="0.5"/><path transform="translate(101,308)" d="M4,0A4,4,0,1,1,-4,0A4,4,0,1,1,4,0" fill="#f58518" stroke="#222" opacity="0.5"/><path transform="translate(192,308)" d="M4,0A4,4,0,1,1,-4,0A4,4,0,1,1,4,0" fill="#f58518" stroke="#222" opacity="0.5"/><path transform="translate(140,22)" d="M4,0A4,4,0,1,1,-4,0A4,4,0,1,1,4,0" fill="#f58518" stroke="#222" opacity="0.5"/><path transform="translate(19,330)" d="M4,0A4,4,0,1,1,-4,0A4,4,0,1,1,4,0" fill="#f58518" stroke="#222" opacity="0.5"/><path transform="translate(142,330)" d="M4,0A4,4,0,1,1,-4,0A4,4,0,1,1,4,0" fill="#f58518" stroke="#222" opacity="0.5"/><path transform="translate(193,330)" d="M4,0A4,4,0,1,1,-4,0A4,4,0,1,1,4,0" fill="#f58518" stroke="#222" opacity="0.5"/><path transform="translate(108,220)" d="M4,0A4,4,0,1,1,-4,0A4,4,0,1,1,4,0" fill="#f58518" stroke="#222" opacity="0.5"/><path transform="translate(84,352)" d="M4,0A4,4,0,1,1,-4,0A4,4,0,1,1,4,0" fill="#f58518" stroke="#222" opacity="0.5"/><path transform="translate(79,330)" d="M4,0A4,4,0,1,1,-4,0A4,4,0,1,1,4,0" fill="#f58518" stroke="#222" opacity="0.5"/><path transform="translate(0,308)" d="M4,0A4,4,0,1,1,-4,0A4,4,0,1,1,4,0" fill="#f58518" stroke="#222" opacity="0.5"/><path transform="translate(12,374)" d="M4,0A4,4,0,1,1,-4,0A4,4,0,1,1,4,0" fill="#f58518" stroke="#222" opacity="0.5"/><path transform="translate(64,374)" d="M4,0A4,4,0,1,1,-4,0A4,4,0,1,1,4,0" fill="#f58518" stroke="#222" opacity="0.5"/><path transform="translate(247,308)" d="M4,0A4,4,0,1,1,-4,0A4,4,0,1,1,4,0" fill="#f58518" stroke="#222" opacity="0.5"/><path transform="translate(2,330)" d="M4,0A4,4,0,1,1,-4,0A4,4,0,1,1,4,0" fill="#f58518" stroke="#222" opacity="0.5"/><path transform="translate(173,374)" d="M4,0A4,4,0,1,1,-4,0A4,4,0,1,1,4,0" fill="#f58518" stroke="#222" opacity="0.5"/><path transform="translate(211,286)" d="M4,0A4,4,0,1,1,-4,0A4,4,0,1,1,4,0" fill="#f58518" stroke="#222" opacity="0.5"/><path transform="translate(50,308)" d="M4,0A4,4,0,1,1,-4,0A4,4,0,1,1,4,0" fill="#f58518" stroke="#222" opacity="0.5"/><path transform="translate(144,352)" d="M4,0A4,4,0,1,1,-4,0A4,4,0,1,1,4,0" fill="#f58518" stroke="#222" opacity="0.5"/><path transform="translate(4,330)" d="M4,0A4,4,0,1,1,-4,0A4,4,0,1,1,4,0" fill="#f58518" stroke="#222" opacity="0.5"/><path transform="translate(13,352)" d="M4,0A4,4,0,1,1,-4,0A4,4,0,1,1,4,0" fill="#f58518" stroke="#222" opacity="0.5"/><path transform="translate(0,330)" d="M4,0A4,4,0,1,1,-4,0A4,4,0,1,1,4,0" fill="#f58518" stroke="#222" opacity="0.5"/><path transform="translate(144,374)" d="M4,0A4,4,0,1,1,-4,0A4,4,0,1,1,4,0" fill="#f58518" stroke="#222" opacity="0.5"/><path transform="translate(6,374)" d="M4,0A4,4,0,1,1,-4,0A4,4,0,1,1,4,0" fill="#f58518" stroke="#222" opacity="0.5"/><path transform="translate(58,374)" d="M4,0A4,4,0,1,1,-4,0A4,4,0,1,1,4,0" fill="#f58518" stroke="#222" opacity="0.5"/><path transform="translate(51,330)" d="M4,0A4,4,0,1,1,-4,0A4,4,0,1,1,4,0" fill="#f58518" stroke="#222" opacity="0.5"/><path transform="translate(0,176)" d="M4,0A4,4,0,1,1,-4,0A4,4,0,1,1,4,0" fill="#f58518" stroke="#222" opacity="0.5"/><path transform="translate(449,352)" d="M4,0A4,4,0,1,1,-4,0A4,4,0,1,1,4,0" fill="#f58518" stroke="#222" opacity="0.5"/><path transform="translate(33,352)" d="M4,0A4,4,0,1,1,-4,0A4,4,0,1,1,4,0" fill="#f58518" stroke="#222" opacity="0.5"/><path transform="translate(110,374)" d="M4,0A4,4,0,1,1,-4,0A4,4,0,1,1,4,0" fill="#f58518" stroke="#222" opacity="0.5"/><path transform="translate(102,374)" d="M4,0A4,4,0,1,1,-4,0A4,4,0,1,1,4,0" fill="#f58518" stroke="#222" opacity="0.5"/><path transform="translate(123,352)" d="M4,0A4,4,0,1,1,-4,0A4,4,0,1,1,4,0" fill="#f58518" stroke="#222" opacity="0.5"/><path transform="translate(144,374)" d="M4,0A4,4,0,1,1,-4,0A4,4,0,1,1,4,0" fill="#f58518" stroke="#222" opacity="0.5"/><path transform="translate(45,308)" d="M4,0A4,4,0,1,1,-4,0A4,4,0,1,1,4,0" fill="#f58518" stroke="#222" opacity="0.5"/><path transform="translate(571,352)" d="M4,0A4,4,0,1,1,-4,0A4,4,0,1,1,4,0" fill="#f58518" stroke="#222" opacity="0.5"/><path transform="translate(110,352)" d="M4,0A4,4,0,1,1,-4,0A4,4,0,1,1,4,0" fill="#f58518" stroke="#222" opacity="0.5"/><path transform="translate(15,308)" d="M4,0A4,4,0,1,1,-4,0A4,4,0,1,1,4,0" fill="#f58518" stroke="#222" opacity="0.5"/><path transform="translate(122,220)" d="M4,0A4,4,0,1,1,-4,0A4,4,0,1,1,4,0" fill="#f58518" stroke="#222" opacity="0.5"/><path transform="translate(144,352)" d="M4,0A4,4,0,1,1,-4,0A4,4,0,1,1,4,0" fill="#f58518" stroke="#222" opacity="0.5"/><path transform="translate(19,308)" d="M4,0A4,4,0,1,1,-4,0A4,4,0,1,1,4,0" fill="#f58518" stroke="#222" opacity="0.5"/><path transform="translate(72,308)" d="M4,0A4,4,0,1,1,-4,0A4,4,0,1,1,4,0" fill="#f58518" stroke="#222" opacity="0.5"/><path transform="translate(47,352)" d="M4,0A4,4,0,1,1,-4,0A4,4,0,1,1,4,0" fill="#f58518" stroke="#222" opacity="0.5"/><path transform="translate(91,330)" d="M4,0A4,4,0,1,1,-4,0A4,4,0,1,1,4,0" fill="#f58518" stroke="#222" opacity="0.5"/><path transform="translate(192,352)" d="M4,0A4,4,0,1,1,-4,0A4,4,0,1,1,4,0" fill="#f58518" stroke="#222" opacity="0.5"/><path transform="translate(25,352)" d="M4,0A4,4,0,1,1,-4,0A4,4,0,1,1,4,0" fill="#f58518" stroke="#222" opacity="0.5"/><path transform="translate(110,264)" d="M4,0A4,4,0,1,1,-4,0A4,4,0,1,1,4,0" fill="#e45756" stroke="#222" opacity="0.5"/><path transform="translate(538,352)" d="M4,0A4,4,0,1,1,-4,0A4,4,0,1,1,4,0" fill="#72b7b2" stroke="#222" opacity="0.5"/><path transform="translate(115,374)" d="M4,0A4,4,0,1,1,-4,0A4,4,0,1,1,4,0" fill="#54a24b" stroke="#222" opacity="0.5"/><path transform="translate(541,352)" d="M4,0A4,4,0,1,1,-4,0A4,4,0,1,1,4,0" fill="#eeca3b" stroke="#222" opacity="0.5"/><path transform="translate(8,286)" d="M4,0A4,4,0,1,1,-4,0A4,4,0,1,1,4,0" fill="#eeca3b" stroke="#222" opacity="0.5"/><path transform="translate(48,286)" d="M4,0A4,4,0,1,1,-4,0A4,4,0,1,1,4,0" fill="#eeca3b" stroke="#222" opacity="0.5"/><path transform="translate(226,242)" d="M4,0A4,4,0,1,1,-4,0A4,4,0,1,1,4,0" fill="#eeca3b" stroke="#222" opacity="0.5"/><path transform="translate(28,264)" d="M4,0A4,4,0,1,1,-4,0A4,4,0,1,1,4,0" fill="#eeca3b" stroke="#222" opacity="0.5"/><path transform="translate(4,330)" d="M4,0A4,4,0,1,1,-4,0A4,4,0,1,1,4,0" fill="#eeca3b" stroke="#222" opacity="0.5"/><path transform="translate(64,286)" d="M4,0A4,4,0,1,1,-4,0A4,4,0,1,1,4,0" fill="#b279a2" stroke="#222" opacity="0.5"/><path transform="translate(28,220)" d="M4,0A4,4,0,1,1,-4,0A4,4,0,1,1,4,0" fill="#b279a2" stroke="#222" opacity="0.5"/><path transform="translate(113,242)" d="M4,0A4,4,0,1,1,-4,0A4,4,0,1,1,4,0" fill="#b279a2" stroke="#222" opacity="0.5"/><path transform="translate(1,264)" d="M4,0A4,4,0,1,1,-4,0A4,4,0,1,1,4,0" fill="#b279a2" stroke="#222" opacity="0.5"/><path transform="translate(36,176)" d="M4,0A4,4,0,1,1,-4,0A4,4,0,1,1,4,0" fill="#b279a2" stroke="#222" opacity="0.5"/><path transform="translate(4,176)" d="M4,0A4,4,0,1,1,-4,0A4,4,0,1,1,4,0" fill="#b279a2" stroke="#222" opacity="0.5"/><path transform="translate(41,176)" d="M4,0A4,4,0,1,1,-4,0A4,4,0,1,1,4,0" fill="#b279a2" stroke="#222" opacity="0.5"/><path transform="translate(5,198)" d="M4,0A4,4,0,1,1,-4,0A4,4,0,1,1,4,0" fill="#b279a2" stroke="#222" opacity="0.5"/><path transform="translate(320,308)" d="M4,0A4,4,0,1,1,-4,0A4,4,0,1,1,4,0" fill="#b279a2" stroke="#222" opacity="0.5"/><path transform="translate(4,176)" d="M4,0A4,4,0,1,1,-4,0A4,4,0,1,1,4,0" fill="#b279a2" stroke="#222" opacity="0.5"/><path transform="translate(13,176)" d="M4,0A4,4,0,1,1,-4,0A4,4,0,1,1,4,0" fill="#b279a2" stroke="#222" opacity="0.5"/><path transform="translate(4,264)" d="M4,0A4,4,0,1,1,-4,0A4,4,0,1,1,4,0" fill="#b279a2" stroke="#222" opacity="0.5"/><path transform="translate(29,242)" d="M4,0A4,4,0,1,1,-4,0A4,4,0,1,1,4,0" fill="#b279a2" stroke="#222" opacity="0.5"/></g><g class="mark-group role-legend" role="graphics-symbol" aria-roledescription="legend" aria-label="Symbol legend for fill color with 7 values: Acquisition, Active, Bankruptcy - Chapter 11, Defunct, LBO, Pending Acquisition, Went Public"><g transform="translate(594,0)"><path class="background" aria-hidden="true" d="M0,0h168v89h-168Z" pointer-events="none"/><g><g class="mark-group role-legend-entry"><g transform="translate(0,0)"><path class="background" aria-hidden="true" d="M0,0h0v0h0Z" pointer-events="none"/><g><g class="mark-group role-scope" role="graphics-object" aria-roledescription="group mark container"><g transform="translate(0,0)"><path class="background" aria-hidden="true" d="M0,0h168v11h-168Z" pointer-events="none" opacity="1"/><g><g class="mark-symbol role-legend-symbol" pointer-events="none"><path transform="translate(6,6)" d="M5,0A5,5,0,1,1,-5,0A5,5,0,1,1,5,0" fill="#4c78a8" stroke-width="1.5" opacity="1"/></g><g class="mark-text role-legend-label" pointer-events="none"><text text-anchor="start" transform="translate(16,9)" font-family="sans-serif" font-size="10px" fill="#000" opacity="1">Acquisition</text></g></g><path class="foreground" aria-hidden="true" d="" pointer-events="none" display="none"/></g><g transform="translate(0,13)"><path class="background" aria-hidden="true" d="M0,0h168v11h-168Z" pointer-events="none" opacity="1"/><g><g class="mark-symbol role-legend-symbol" pointer-events="none"><path transform="translate(6,6)" d="M5,0A5,5,0,1,1,-5,0A5,5,0,1,1,5,0" fill="#f58518" stroke-width="1.5" opacity="1"/></g><g class="mark-text role-legend-label" pointer-events="none"><text text-anchor="start" transform="translate(16,9)" font-family="sans-serif" font-size="10px" fill="#000" opacity="1">Active</text></g></g><path class="foreground" aria-hidden="true" d="" pointer-events="none" display="none"/></g><g transform="translate(0,26)"><path class="background" aria-hidden="true" d="M0,0h168v11h-168Z" pointer-events="none" opacity="1"/><g><g class="mark-symbol role-legend-symbol" pointer-events="none"><path transform="translate(6,6)" d="M5,0A5,5,0,1,1,-5,0A5,5,0,1,1,5,0" fill="#e45756" stroke-width="1.5" opacity="1"/></g><g class="mark-text role-legend-label" pointer-events="none"><text text-anchor="start" transform="translate(16,9)" font-family="sans-serif" font-size="10px" fill="#000" opacity="1">Bankruptcy - Chapt…</text></g></g><path class="foreground" aria-hidden="true" d="" pointer-events="none" display="none"/></g><g transform="translate(0,39)"><path class="background" aria-hidden="true" d="M0,0h168v11h-168Z" pointer-events="none" opacity="1"/><g><g class="mark-symbol role-legend-symbol" pointer-events="none"><path transform="translate(6,6)" d="M5,0A5,5,0,1,1,-5,0A5,5,0,1,1,5,0" fill="#72b7b2" stroke-width="1.5" opacity="1"/></g><g class="mark-text role-legend-label" pointer-events="none"><text text-anchor="start" transform="translate(16,9)" font-family="sans-serif" font-size="10px" fill="#000" opacity="1">Defunct</text></g></g><path class="foreground" aria-hidden="true" d="" pointer-events="none" display="none"/></g><g transform="translate(0,52)"><path class="background" aria-hidden="true" d="M0,0h168v11h-168Z" pointer-events="none" opacity="1"/><g><g class="mark-symbol role-legend-symbol" pointer-events="none"><path transform="translate(6,6)" d="M5,0A5,5,0,1,1,-5,0A5,5,0,1,1,5,0" fill="#54a24b" stroke-width="1.5" opacity="1"/></g><g class="mark-text role-legend-label" pointer-events="none"><text text-anchor="start" transform="translate(16,9)" font-family="sans-serif" font-size="10px" fill="#000" opacity="1">LBO</text></g></g><path class="foreground" aria-hidden="true" d="" pointer-events="none" display="none"/></g><g transform="translate(0,65)"><path class="background" aria-hidden="true" d="M0,0h168v11h-168Z" pointer-events="none" opacity="1"/><g><g class="mark-symbol role-legend-symbol" pointer-events="none"><path transform="translate(6,6)" d="M5,0A5,5,0,1,1,-5,0A5,5,0,1,1,5,0" fill="#eeca3b" stroke-width="1.5" opacity="1"/></g><g class="mark-text role-legend-label" pointer-events="none"><text text-anchor="start" transform="translate(16,9)" font-family="sans-serif" font-size="10px" fill="#000" opacity="1">Pending Acquisition</text></g></g><path class="foreground" aria-hidden="true" d="" pointer-events="none" display="none"/></g><g transform="translate(0,78)"><path class="background" aria-hidden="true" d="M0,0h168v11h-168Z" pointer-events="none" opacity="1"/><g><g class="mark-symbol role-legend-symbol" pointer-events="none"><path transform="translate(6,6)" d="M5,0A5,5,0,1,1,-5,0A5,5,0,1,1,5,0" fill="#b279a2" stroke-width="1.5" opacity="1"/></g><g class="mark-text role-legend-label" pointer-events="none"><text text-anchor="start" transform="translate(16,9)" font-family="sans-serif" font-size="10px" fill="#000" opacity="1">Went Public</text></g></g><path class="foreground" aria-hidden="true" d="" pointer-events="none" display="none"/></g></g></g><path class="foreground" aria-hidden="true" d="" pointer-events="none" display="none"/></g></g></g><path class="foreground" aria-hidden="true" d="" pointer-events="none" display="none"/></g></g><g class="mark-group role-title"><g transform="translate(362,-22)"><path class="background" aria-hidden="true" d="M0,0h0v0h0Z" pointer-events="none"/><g><g class="mark-text role-title-text" role="graphics-symbol" aria-roledescription="title" aria-label="Title text 'Relationship-num'" pointer-events="none"><text text-anchor="middle" transform="translate(0,10)" font-family="sans-serif" font-size="13px" font-weight="bold" fill="#000" opacity="1">Relationship-num</text></g></g><path class="foreground" aria-hidden="true" d="" pointer-events="none" display="none"/></g></g></g><path class="foreground" aria-hidden="true" d="" display="none"/></g></g></g></svg>