<svg xmlns="http://www.w3.org/2000/svg" xmlns:xlink="http://www.w3.org/1999/xlink" version="1.1" class="marks" width="800" height="450" viewBox="0 0 800 450"><rect width="800" height="450" fill="white"/><g fill="none" stroke-miterlimit="10" transform="translate(54,22)"><g class="mark-group role-frame root" role="graphics-object" aria-roledescription="group mark container"><g transform="translate(0,0)"><path class="background" aria-hidden="true" d="M0,0h576v396h-576Z"/><g><g class="mark-group role-axis" role="graphics-symbol" aria-roledescription="axis" aria-label="X-axis titled 'q' for a linear scale with values from 0.0 to 1.0"><g transform="translate(0.5,396.5)"><path class="background" aria-hidden="true" d="M0,0h0v0h0Z" pointer-events="none"/><g><g class="mark-rule role-axis-grid" pointer-events="none"><line transform="translate(0,0)" x2="0" y2="-396" stroke="#ddd" stroke-width="1" opacity="1"/><line transform="translate(58,0)" x2="0" y2="-396" stroke="#ddd" stroke-width="1" opacity="1"/><line transform="translate(115,0)" x2="0" y2="-396" stroke="#ddd" stroke-width="1" opacity="1"/><line transform="translate(173,0)" x2="0" y2="-396" stroke="#ddd" stroke-width="1" opacity="1"/><line transform="translate(230,0)" x2="0" y2="-396" stroke="#ddd" stroke-width="1" opacity="1"/><line transform="translate(288,0)" x2="0" y2="-396" stroke="#ddd" stroke-width="1" opacity="1"/><line transform="translate(346,0)" x2="0" y2="-396" stroke="#ddd" stroke-width="1" opacity="1"/><line transform="translate(403,0)" x2="0" y2="-396" stroke="#ddd" stroke-width="1" opacity="1"/><line transform="translate(461,0)" x2="0" y2="-396" stroke="#ddd" stroke-width="1" opacity="1"/><line transform="translate(518,0)" x2="0" y2="-396" stroke="#ddd" stroke-width="1" opacity="1"/><line transform="translate(576,0)" x2="0" y2="-396" stroke="#ddd" stroke-width="1" opacity="1"/></g><g class="mark-rule role-axis-tick" pointer-events="none"><line transform="translate(0,0)" x2="0" y2="5" stroke="#888" stroke-width="1" opacity="1"/><line transform="translate(58,0)" x2="0" y2="5" stroke="#888" stroke-width="1" opacity="1"/><line transform="translate(115,0)" x2="0" y2="5" stroke="#888" stroke-width="1" opacity="1"/><line transform="translate(173,0)" x2="0" y2="5" stroke="#888" stroke-width="1" opacity="1"/><line transform="translate(230,0)" x2="0" y2="5" stroke="#888" stroke-width="1" opacity="1"/><line transform="translate(288,0)" x2="0" y2="5" stroke="#888" stroke-width="1" opacity="1"/><line transform="translate(346,0)" x2="0" y2="5" stroke="#888" stroke-width="1" opacity="1"/><line transform="translate(403,0)" x2="0" y2="5" stroke="#888" stroke-width="1" opacity="1"/><line transform="translate(461,0)" x2="0" y2="5" stroke="#888" stroke-width="1" opacity="1"/><line transform="translate(518,0)" x2="0" y2="5" stroke="#888" stroke-width="1" opacity="1"/><line transform="translate(576,0)" x2="0" y2="5" stroke="#888" stroke-width="1" opacity="1"/></g><g class="mark-text role-axis-label" pointer-events="none"><text text-anchor="middle" transform="translate(0,15)" font-family="sans-serif" font-size="10px" fill="#000" opacity="1">0.0</text><text text-anchor="middle" transform="translate(58,15)" font-family="sans-serif" font-size="10px" fill="#000" opacity="1">0.1</text><text text-anchor="middle" transform="translate(115,15)" font-family="sans-serif" font-size="10px" fill="#000" opacity="1">0.2</text><text text-anchor="middle" transform="translate(173,15)" font-family="sans-serif" font-size="10px" fill="#000" opacity="1">0.3</text><text text-anchor="middle" transform="translate(230,15)" font-family="sans-serif" font-size="10px" fill="#000" opacity="1">0.4</text><text text-anchor="middle" transform="translate(288,15)" font-family="sans-serif" font-size="10px" fill="#000" opacity="1">0.5</text><text text-anchor="middle" transform="translate(346,15)" font-family="sans-serif" font-size="10px" fill="#000" opacity="1">0.6</text><text text-anchor="middle" transform="translate(403,15)" font-family="sans-serif" font-size="10px" fill="#000" opacity="1">0.7</text><text text-anchor="middle" transform="translate(461,15)" font-family="sans-serif" font-size="10px" fill="#000" opacity="1">0.8</text><text text-anchor="middle" transform="translate(518,15)" font-family="sans-serif" font-size="10px" fill="#000" opacity="1">0.9</text><text text-anchor="middle" transform="translate(576,15)" font-family="sans-serif" font-size="10px" fill="#000" opacity="1">1.0</text></g><g class="mark-text role-axis-title" pointer-events="none"><text text-anchor="middle" transform="translate(288,30)" font-family="sans-serif" font-size="11px" font-weight="bold" fill="#000" opacity="1">q</text></g></g><path class="foreground" aria-hidden="true" d="" pointer-events="none" display="none"/></g></g><g class="mark-group role-axis" role="graphics-symbol" aria-roledescription="axis" aria-label="Y-axis titled 'benchmark-investor0' for a linear scale with values from 0.76 to 0.92"><g transform="translate(0.5,0.5)"><path class="background" aria-hidden="true" d="M0,0h0v0h0Z" pointer-events="none"/><g><g class="mark-rule role-axis-grid" pointer-events="none"><line transform="translate(0,396)" x2="576" y2="0" stroke="#ddd" stroke-width="1" opacity="1"/><line transform="translate(0,346)" x2="576" y2="0" stroke="#ddd" stroke-width="1" opacity="1"/><line transform="translate(0,297)" x2="576" y2="0" stroke="#ddd" stroke-width="1" opacity="1"/><line transform="translate(0,248)" x2="576" y2="0" stroke="#ddd" stroke-width="1" opacity="1"/><line transform="translate(0,198)" x2="576" y2="0" stroke="#ddd" stroke-width="1" opacity="1"/><line transform="translate(0,149)" x2="576" y2="0" stroke="#ddd" stroke-width="1" opacity="1"/><line transform="translate(0,99)" x2="576" y2="0" stroke="#ddd" stroke-width="1" opacity="1"/><line transform="translate(0,50)" x2="576" y2="0" stroke="#ddd" stroke-width="1" opacity="1"/><line transform="translate(0,0)" x2="576" y2="0" stroke="#ddd" stroke-width="1" opacity="1"/></g><g class="mark-rule role-axis-tick" pointer-events="none"><line transform="translate(0,396)" x2="-5" y2="0" stroke="#888" stroke-width="1" opacity="1"/><line transform="translate(0,346)" x2="-5" y2="0" stroke="#888" stroke-width="1" opacity="1"/><line transform="translate(0,297)" x2="-5" y2="0" stroke="#888" stroke-width="1" opacity="1"/><line transform="translate(0,248)" x2="-5" y2="0" stroke="#888" stroke-width="1" opacity="1"/><line transform="translate(0,198)" x2="-5" y2="0" stroke="#888" stroke-width="1" opacity="1"/><line transform="translate(0,149)" x2="-5" y2="0" stroke="#888" stroke-width="1" opacity="1"/><line transform="translate(0,99)" x2="-5" y2="0" stroke="#888" stroke-width="1" opacity="1"/><line transform="translate(0,50)" x2="-5" y2="0" stroke="#888" stroke-width="1" opacity="1"/><line transform="translate(0,0)" x2="-5" y2="0" stroke="#888" stroke-width="1" opacity="1"/></g><g class="mark-text role-axis-label" pointer-events="none"><text text-anchor="end" transform="translate(-7,399)" font-family="sans-serif" font-size="10px" fill="#000" opacity="1">0.76</text><text text-anchor="end" transform="translate(-7,349)" font-family="sans-serif" font-size="10px" fill="#000" opacity="1">0.78</text><text text-anchor="end" transform="translate(-7,300)" font-family="sans-serif" font-size="10px" fill="#000" opacity="1">0.80</text><text text-anchor="end" transform="translate(-7,251)" font-family="sans-serif" font-size="10px" fill="#000" opacity="1">0.82</text><text text-anchor="end" transform="translate(-7,201)" font-family="sans-serif" font-size="10px" fill="#000" opacity="1">0.84</text><text text-anchor="end" transform="translate(-7,152)" font-family="sans-serif" font-size="10px" fill="#000" opacity="1">0.86</text><text text-anchor="end" transform="translate(-7,102)" font-family="sans-serif" font-size="10px" fill="#000" opacity="1">0.88</text><text text-anchor="end" transform="translate(-7,53)" font-family="sans-serif" font-size="10px" fill="#000" opacity="1">0.90</text><text text-anchor="end" transform="translate(-7,3)" font-family="sans-serif" font-size="10px" fill="#000" opacity="1">0.92</text></g><g class="mark-text role-axis-title" pointer-events="none"><text text-anchor="middle" transform="translate(-43,198) rotate(-90) translate(0,-2)" font-family="sans-serif" font-size="11px" font-weight="bold" fill="#000" opacity="1">benchmark-investor0</text></g></g><path class="foreground" aria-hidden="true" d="" pointer-events="none" display="none"/></g></g><g class="mark-symbol role-mark" role="graphics-symbol" aria-roledescription="symbol mark container"><path transform="translate(0,382)" d="M4,0A4,4,0,1,1,-4,0A4,4,0,1,1,4,0" fill="#4c78a8" stroke="#222" opacity="0.5"/><path transform="translate(3,381)" d="M4,0A4,4,0,1,1,-4,0A4,4,0,1,1,4,0" fill="#4c78a8" stroke="#222" opacity="0.5"/><path transform="translate(6,379)" d="M4,0A4,4,0,1,1,-4,0A4,4,0,1,1,4,0" fill="#4c78a8" stroke="#222" opacity="0.5"/><path transform="translate(9,378)" d="M4,0A4,4,0,1,1,-4,0A4,4,0,1,1,4,0" fill="#4c78a8" stroke="#222" opacity="0.5"/><path transform="translate(12,376)" d="M4,0A4,4,0,1,1,-4,0A4,4,0,1,1,4,0" fill="#4c78a8" stroke="#222" opacity="0.5"/><path transform="translate(14,375)" d="M4,0A4,4,0,1,1,-4,0A4,4,0,1,1,4,0" fill="#4c78a8" stroke="#222" opacity="0.5"/><path transform="translate(17,373)" d="M4,0A4,4,0,1,1,-4,0A4,4,0,1,1,4,0" fill="#4c78a8" stroke="#222" opacity="0.5"/><path transform="translate(20,371)" d="M4,0A4,4,0,1,1,-4,0A4,4,0,1,1,4,0" fill="#4c78a8" stroke="#222" opacity="0.5"/><path transform="translate(23,370)" d="M4,0A4,4,0,1,1,-4,0A4,4,0,1,1,4,0" fill="#4c78a8" stroke="#222" opacity="0.5"/><path transform="translate(26,368)" d="M4,0A4,4,0,1,1,-4,0A4,4,0,1,1,4,0" fill="#4c78a8" stroke="#222" opacity="0.5"/><path transform="translate(29,367)" d="M4,0A4,4,0,1,1,-4,0A4,4,0,1,1,4,0" fill="#4c78a8" stroke="#222" opacity="0.5"/><path transform="translate(32,365)" d="M4,0A4,4,0,1,1,-4,0A4,4,0,1,1,4,0" fill="#4c78a8" stroke="#222" opacity="0.5"/><path transform="translate(35,364)" d="M4,0A4,4,0,1,1,-4,0A4,4,0,1,1,4,0" fill="#4c78a8" stroke="#222" opacity="0.5"/><path transform="translate(37,362)" d="M4,0A4,4,0,1,1,-4,0A4,4,0,1,1,4,0" fill="#4c78a8" stroke="#222" opacity="0.5"/><path transform="translate(40,361)" d="M4,0A4,4,0,1,1,-4,0A4,4,0,1,1,4,0" fill="#4c78a8" stroke="#222" opacity="0.5"/><path transform="translate(43,359)" d="M4,0A4,4,0,1,1,-4,0A4,4,0,1,1,4,0" fill="#4c78a8" stroke="#222" opacity="0.5"/><path transform="translate(46,358)" d="M4,0A4,4,0,1,1,-4,0A4,4,0,1,1,4,0" fill="#4c78a8" stroke="#222" opacity="0.5"/><path transform="translate(49,356)" d="M4,0A4,4,0,1,1,-4,0A4,4,0,1,1,4,0" fill="#4c78a8" stroke="#222" opacity="0.5"/><path transform="translate(52,354)" d="M4,0A4,4,0,1,1,-4,0A4,4,0,1,1,4,0" fill="#4c78a8" stroke="#222" opacity="0.5"/><path transform="translate(55,353)" d="M4,0A4,4,0,1,1,-4,0A4,4,0,1,1,4,0" fill="#4c78a8" stroke="#222" opacity="0.5"/><path transform="translate(58,351)" d="M4,0A4,4,0,1,1,-4,0A4,4,0,1,1,4,0" fill="#4c78a8" stroke="#222" opacity="0.5"/><path transform="translate(60,350)" d="M4,0A4,4,0,1,1,-4,0A4,4,0,1,1,4,0" fill="#4c78a8" stroke="#222" opacity="0.5"/><path transform="translate(63,348)" d="M4,0A4,4,0,1,1,-4,0A4,4,0,1,1,4,0" fill="#4c78a8" stroke="#222" opacity="0.5"/><path transform="translate(66,347)" d="M4,0A4,4,0,1,1,-4,0A4,4,0,1,1,4,0" fill="#4c78a8" stroke="#222" opacity="0.5"/><path transform="translate(69,345)" d="M4,0A4,4,0,1,1,-4,0A4,4,0,1,1,4,0" fill="#4c78a8" stroke="#222" opacity="0.5"/><path transform="translate(72,343)" d="M4,0A4,4,0,1,1,-4,0A4,4,0,1,1,4,0" fill="#4c78a8" stroke="#222" opacity="0.5"/><path transform="translate(75,342)" d="M4,0A4,4,0,1,1,-4,0A4,4,0,1,1,4,0" fill="#4c78a8" stroke="#222" opacity="0.5"/><path transform="translate(78,340)" d="M4,0A4,4,0,1,1,-4,0A4,4,0,1,1,4,0" fill="#4c78a8" stroke="#222" opacity="0.5"/><path transform="translate(81,339)" d="M4,0A4,4,0,1,1,-4,0A4,4,0,1,1,4,0" fill="#4c78a8" stroke="#222" opacity="0.5"/><path transform="translate(84,337)" d="M4,0A4,4,0,1,1,-4,0A4,4,0,1,1,4,0" fill="#4c78a8" stroke="#222" opacity="0.5"/><path transform="translate(86,335)" d="M4,0A4,4,0,1,1,-4,0A4,4,0,1,1,4,0" fill="#4c78a8" stroke="#222" opacity="0.5"/><path transform="translate(89,334)" d="M4,0A4,4,0,1,1,-4,0A4,4,0,1,1,4,0" fill="#4c78a8" stroke="#222" opacity="0.5"/><path transform="translate(92,332)" d="M4,0A4,4,0,1,1,-4,0A4,4,0,1,1,4,0" fill="#4c78a8" stroke="#222" opacity="0.5"/><path transform="translate(95,331)" d="M4,0A4,4,0,1,1,-4,0A4,4,0,1,1,4,0" fill="#4c78a8" stroke="#222" opacity="0.5"/><path transform="translate(98,329)" d="M4,0A4,4,0,1,1,-4,0A4,4,0,1,1,4,0" fill="#4c78a8" stroke="#222" opacity="0.5"/><path transform="translate(101,327)" d="M4,0A4,4,0,1,1,-4,0A4,4,0,1,1,4,0" fill="#4c78a8" stroke="#222" opacity="0.5"/><path transform="translate(104,326)" d="M4,0A4,4,0,1,1,-4,0A4,4,0,1,1,4,0" fill="#4c78a8" stroke="#222" opacity="0.5"/><path transform="translate(107,324)" d="M4,0A4,4,0,1,1,-4,0A4,4,0,1,1,4,0" fill="#4c78a8" stroke="#222" opacity="0.5"/><path transform="translate(109,323)" d="M4,0A4,4,0,1,1,-4,0A4,4,0,1,1,4,0" fill="#4c78a8" stroke="#222" opacity="0.5"/><path transform="translate(112,321)" d="M4,0A4,4,0,1,1,-4,0A4,4,0,1,1,4,0" fill="#f58518" stroke="#222" opacity="0.5"/><path transform="translate(115,319)" d="M4,0A4,4,0,1,1,-4,0A4,4,0,1,1,4,0" fill="#f58518" stroke="#222" opacity="0.5"/><path transform="translate(118,318)" d="M4,0A4,4,0,1,1,-4,0A4,4,0,1,1,4,0" fill="#f58518" stroke="#222" opacity="0.5"/><path transform="translate(121,316)" d="M4,0A4,4,0,1,1,-4,0A4,4,0,1,1,4,0" fill="#f58518" stroke="#222" opacity="0.5"/><path transform="translate(124,314)" d="M4,0A4,4,0,1,1,-4,0A4,4,0,1,1,4,0" fill="#f58518" stroke="#222" opacity="0.5"/><path transform="translate(127,313)" d="M4,0A4,4,0,1,1,-4,0A4,4,0,1,1,4,0" fill="#f58518" stroke="#222" opacity="0.5"/><path transform="translate(130,311)" d="M4,0A4,4,0,1,1,-4,0A4,4,0,1,1,4,0" fill="#f58518" stroke="#222" opacity="0.5"/><path transform="translate(132,310)" d="M4,0A4,4,0,1,1,-4,0A4,4,0,1,1,4,0" fill="#f58518" stroke="#222" opacity="0.5"/><path transform="translate(135,308)" d="M4,0A4,4,0,1,1,-4,0A4,4,0,1,1,4,0" fill="#f58518" stroke="#222" opacity="0.5"/><path transform="translate(138,306)" d="M4,0A4,4,0,1,1,-4,0A4,4,0,1,1,4,0" fill="#f58518" stroke="#222" opacity="0.5"/><path transform="translate(141,305)" d="M4,0A4,4,0,1,1,-4,0A4,4,0,1,1,4,0" fill="#f58518" stroke="#222" opacity="0.5"/><path transform="translate(144,303)" d="M4,0A4,4,0,1,1,-4,0A4,4,0,1,1,4,0" fill="#f58518" stroke="#222" opacity="0.5"/><path transform="translate(147,301)" d="M4,0A4,4,0,1,1,-4,0A4,4,0,1,1,4,0" fill="#f58518" stroke="#222" opacity="0.5"/><path transform="translate(150,300)" d="M4,0A4,4,0,1,1,-4,0A4,4,0,1,1,4,0" fill="#f58518" stroke="#222" opacity="0.5"/><path transform="translate(153,298)" d="M4,0A4,4,0,1,1,-4,0A4,4,0,1,1,4,0" fill="#f58518" stroke="#222" opacity="0.5"/><path transform="translate(156,296)" d="M4,0A4,4,0,1,1,-4,0A4,4,0,1,1,4,0" fill="#f58518" stroke="#222" opacity="0.5"/><path transform="translate(158,295)" d="M4,0A4,4,0,1,1,-4,0A4,4,0,1,1,4,0" fill="#f58518" stroke="#222" opacity="0.5"/><path transform="translate(161,293)" d="M4,0A4,4,0,1,1,-4,0A4,4,0,1,1,4,0" fill="#f58518" stroke="#222" opacity="0.5"/><path transform="translate(164,291)" d="M4,0A4,4,0,1,1,-4,0A4,4,0,1,1,4,0" fill="#f58518" stroke="#222" opacity="0.5"/><path transform="translate(167,290)" d="M4,0A4,4,0,1,1,-4,0A4,4,0,1,1,4,0" fill="#f58518" stroke="#222" opacity="0.5"/><path transform="translate(170,288)" d="M4,0A4,4,0,1,1,-4,0A4,4,0,1,1,4,0" fill="#f58518" stroke="#222" opacity="0.5"/><path transform="translate(173,286)" d="M4,0A4,4,0,1,1,-4,0A4,4,0,1,1,4,0" fill="#f58518" stroke="#222" opacity="0.5"/><path transform="translate(176,285)" d="M4,0A4,4,0,1,1,-4,0A4,4,0,1,1,4,0" fill="#f58518" stroke="#222" opacity="0.5"/><path transform="translate(179,283)" d="M4,0A4,4,0,1,1,-4,0A4,4,0,1,1,4,0" fill="#f58518" stroke="#222" opacity="0.5"/><path transform="translate(181,281)" d="M4,0A4,4,0,1,1,-4,0A4,4,0,1,1,4,0" fill="#f58518" stroke="#222" opacity="0.5"/><path transform="translate(184,280)" d="M4,0A4,4,0,1,1,-4,0A4,4,0,1,1,4,0" fill="#f58518" stroke="#222" opacity="0.5"/><path transform="translate(187,278)" d="M4,0A4,4,0,1,1,-4,0A4,4,0,1,1,4,0" fill="#f58518" stroke="#222" opacity="0.5"/><path transform="translate(190,276)" d="M4,0A4,4,0,1,1,-4,0A4,4,0,1,1,4,0" fill="#f58518" stroke="#222" opacity="0.5"/><path transform="translate(193,275)" d="M4,0A4,4,0,1,1,-4,0A4,4,0,1,1,4,0" fill="#f58518" stroke="#222" opacity="0.5"/><path transform="translate(196,273)" d="M4,0A4,4,0,1,1,-4,0A4,4,0,1,1,4,0" fill="#f58518" stroke="#222" opacity="0.5"/><path transform="translate(199,271)" d="M4,0A4,4,0,1,1,-4,0A4,4,0,1,1,4,0" fill="#f58518" stroke="#222" opacity="0.5"/><path transform="translate(202,269)" d="M4,0A4,4,0,1,1,-4,0A4,4,0,1,1,4,0" fill="#f58518" stroke="#222" opacity="0.5"/><path transform="translate(204,268)" d="M4,0A4,4,0,1,1,-4,0A4,4,0,1,1,4,0" fill="#f58518" stroke="#222" opacity="0.5"/><path transform="translate(207,266)" d="M4,0A4,4,0,1,1,-4,0A4,4,0,1,1,4,0" fill="#f58518" stroke="#222" opacity="0.5"/><path transform="translate(210,264)" d="M4,0A4,4,0,1,1,-4,0A4,4,0,1,1,4,0" fill="#f58518" stroke="#222" opacity="0.5"/><path transform="translate(213,263)" d="M4,0A4,4,0,1,1,-4,0A4,4,0,1,1,4,0" fill="#f58518" stroke="#222" opacity="0.5"/><path transform="translate(216,261)" d="M4,0A4,4,0,1,1,-4,0A4,4,0,1,1,4,0" fill="#f58518" stroke="#222" opacity="0.5"/><path transform="translate(219,259)" d="M4,0A4,4,0,1,1,-4,0A4,4,0,1,1,4,0" fill="#f58518" stroke="#222" opacity="0.5"/><path transform="translate(222,257)" d="M4,0A4,4,0,1,1,-4,0A4,4,0,1,1,4,0" fill="#f58518" stroke="#222" opacity="0.5"/><path transform="translate(225,256)" d="M4,0A4,4,0,1,1,-4,0A4,4,0,1,1,4,0" fill="#f58518" stroke="#222" opacity="0.5"/><path transform="translate(228,254)" d="M4,0A4,4,0,1,1,-4,0A4,4,0,1,1,4,0" fill="#f58518" stroke="#222" opacity="0.5"/><path transform="translate(230,252)" d="M4,0A4,4,0,1,1,-4,0A4,4,0,1,1,4,0" fill="#f58518" stroke="#222" opacity="0.5"/><path transform="translate(233,251)" d="M4,0A4,4,0,1,1,-4,0A4,4,0,1,1,4,0" fill="#f58518" stroke="#222" opacity="0.5"/><path transform="translate(236,249)" d="M4,0A4,4,0,1,1,-4,0A4,4,0,1,1,4,0" fill="#f58518" stroke="#222" opacity="0.5"/><path transform="translate(239,247)" d="M4,0A4,4,0,1,1,-4,0A4,4,0,1,1,4,0" fill="#f58518" stroke="#222" opacity="0.5"/><path transform="translate(242,245)" d="M4,0A4,4,0,1,1,-4,0A4,4,0,1,1,4,0" fill="#f58518" stroke="#222" opacity="0.5"/><path transform="translate(245,244)" d="M4,0A4,4,0,1,1,-4,0A4,4,0,1,1,4,0" fill="#f58518" stroke="#222" opacity="0.5"/><path transform="translate(248,242)" d="M4,0A4,4,0,1,1,-4,0A4,4,0,1,1,4,0" fill="#f58518" stroke="#222" opacity="0.5"/><path transform="translate(251,240)" d="M4,0A4,4,0,1,1,-4,0A4,4,0,1,1,4,0" fill="#f58518" stroke="#222" opacity="0.5"/><path transform="translate(253,238)" d="M4,0A4,4,0,1,1,-4,0A4,4,0,1,1,4,0" fill="#f58518" stroke="#222" opacity="0.5"/><path transform="translate(256,237)" d="M4,0A4,4,0,1,1,-4,0A4,4,0,1,1,4,0" fill="#f58518" stroke="#222" opacity="0.5"/><path transform="translate(259,235)" d="M4,0A4,4,0,1,1,-4,0A4,4,0,1,1,4,0" fill="#f58518" stroke="#222" opacity="0.5"/><path transform="translate(262,233)" d="M4,0A4,4,0,1,1,-4,0A4,4,0,1,1,4,0" fill="#f58518" stroke="#222" opacity="0.5"/><path transform="translate(265,231)" d="M4,0A4,4,0,1,1,-4,0A4,4,0,1,1,4,0" fill="#f58518" stroke="#222" opacity="0.5"/><path transform="translate(268,229)" d="M4,0A4,4,0,1,1,-4,0A4,4,0,1,1,4,0" fill="#f58518" stroke="#222" opacity="0.5"/><path transform="translate(271,228)" d="M4,0A4,4,0,1,1,-4,0A4,4,0,1,1,4,0" fill="#f58518" stroke="#222" opacity="0.5"/><path transform="translate(274,226)" d="M4,0A4,4,0,1,1,-4,0A4,4,0,1,1,4,0" fill="#f58518" stroke="#222" opacity="0.5"/><path transform="translate(276,224)" d="M4,0A4,4,0,1,1,-4,0A4,4,0,1,1,4,0" fill="#f58518" stroke="#222" opacity="0.5"/><path transform="translate(279,222)" d="M4,0A4,4,0,1,1,-4,0A4,4,0,1,1,4,0" fill="#f58518" stroke="#222" opacity="0.5"/><path transform="translate(282,221)" d="M4,0A4,4,0,1,1,-4,0A4,4,0,1,1,4,0" fill="#f58518" stroke="#222" opacity="0.5"/><path transform="translate(285,219)" d="M4,0A4,4,0,1,1,-4,0A4,4,0,1,1,4,0" fill="#f58518" stroke="#222" opacity="0.5"/><path transform="translate(288,217)" d="M4,0A4,4,0,1,1,-4,0A4,4,0,1,1,4,0" fill="#f58518" stroke="#222" opacity="0.5"/><path transform="translate(291,215)" d="M4,0A4,4,0,1,1,-4,0A4,4,0,1,1,4,0" fill="#f58518" stroke="#222" opacity="0.5"/><path transform="translate(294,213)" d="M4,0A4,4,0,1,1,-4,0A4,4,0,1,1,4,0" fill="#f58518" stroke="#222" opacity="0.5"/><path transform="translate(297,212)" d="M4,0A4,4,0,1,1,-4,0A4,4,0,1,1,4,0" fill="#f58518" stroke="#222" opacity="0.5"/><path transform="translate(300,210)" d="M4,0A4,4,0,1,1,-4,0A4,4,0,1,1,4,0" fill="#f58518" stroke="#222" opacity="0.5"/><path transform="translate(302,208)" d="M4,0A4,4,0,1,1,-4,0A4,4,0,1,1,4,0" fill="#f58518" stroke="#222" opacity="0.5"/><path transform="translate(305,206)" d="M4,0A4,4,0,1,1,-4,0A4,4,0,1,1,4,0" fill="#f58518" stroke="#222" opacity="0.5"/><path transform="translate(308,204)" d="M4,0A4,4,0,1,1,-4,0A4,4,0,1,1,4,0" fill="#f58518" stroke="#222" opacity="0.5"/><path transform="translate(311,203)" d="M4,0A4,4,0,1,1,-4,0A4,4,0,1,1,4,0" fill="#f58518" stroke="#222" opacity="0.5"/><path transform="translate(314,201)" d="M4,0A4,4,0,1,1,-4,0A4,4,0,1,1,4,0" fill="#f58518" stroke="#222" opacity="0.5"/><path transform="translate(317,199)" d="M4,0A4,4,0,1,1,-4,0A4,4,0,1,1,4,0" fill="#f58518" stroke="#222" opacity="0.5"/><path transform="translate(320,197)" d="M4,0A4,4,0,1,1,-4,0A4,4,0,1,1,4,0" fill="#f58518" stroke="#222" opacity="0.5"/><path transform="translate(323,195)" d="M4,0A4,4,0,1,1,-4,0A4,4,0,1,1,4,0" fill="#f58518" stroke="#222" opacity="0.5"/><path transform="translate(325,193)" d="M4,0A4,4,0,1,1,-4,0A4,4,0,1,1,4,0" fill="#f58518" stroke="#222" opacity="0.5"/><path transform="translate(328,192)" d="M4,0A4,4,0,1,1,-4,0A4,4,0,1,1,4,0" fill="#f58518" stroke="#222" opacity="0.5"/><path transform="translate(331,190)" d="M4,0A4,4,0,1,1,-4,0A4,4,0,1,1,4,0" fill="#f58518" stroke="#222" opacity="0.5"/><path transform="translate(334,188)" d="M4,0A4,4,0,1,1,-4,0A4,4,0,1,1,4,0" fill="#f58518" stroke="#222" opacity="0.5"/><path transform="translate(337,186)" d="M4,0A4,4,0,1,1,-4,0A4,4,0,1,1,4,0" fill="#f58518" stroke="#222" opacity="0.5"/><path transform="translate(340,184)" d="M4,0A4,4,0,1,1,-4,0A4,4,0,1,1,4,0" fill="#f58518" stroke="#222" opacity="0.5"/><path transform="translate(343,182)" d="M4,0A4,4,0,1,1,-4,0A4,4,0,1,1,4,0" fill="#f58518" stroke="#222" opacity="0.5"/><path transform="translate(346,180)" d="M4,0A4,4,0,1,1,-4,0A4,4,0,1,1,4,0" fill="#f58518" stroke="#222" opacity="0.5"/><path transform="translate(348,179)" d="M4,0A4,4,0,1,1,-4,0A4,4,0,1,1,4,0" fill="#f58518" stroke="#222" opacity="0.5"/><path transform="translate(351,177)" d="M4,0A4,4,0,1,1,-4,0A4,4,0,1,1,4,0" fill="#f58518" stroke="#222" opacity="0.5"/><path transform="translate(354,175)" d="M4,0A4,4,0,1,1,-4,0A4,4,0,1,1,4,0" fill="#f58518" stroke="#222" opacity="0.5"/><path transform="translate(357,173)" d="M4,0A4,4,0,1,1,-4,0A4,4,0,1,1,4,0" fill="#f58518" stroke="#222" opacity="0.5"/><path transform="translate(360,171)" d="M4,0A4,4,0,1,1,-4,0A4,4,0,1,1,4,0" fill="#f58518" stroke="#222" opacity="0.5"/><path transform="translate(363,169)" d="M4,0A4,4,0,1,1,-4,0A4,4,0,1,1,4,0" fill="#f58518" stroke="#222" opacity="0.5"/><path transform="translate(366,167)" d="M4,0A4,4,0,1,1,-4,0A4,4,0,1,1,4,0" fill="#f58518" stroke="#222" opacity="0.5"/><path transform="translate(369,165)" d="M4,0A4,4,0,1,1,-4,0A4,4,0,1,1,4,0" fill="#f58518" stroke="#222" opacity="0.5"/><path transform="translate(372,164)" d="M4,0A4,4,0,1,1,-4,0A4,4,0,1,1,4,0" fill="#f58518" stroke="#222" opacity="0.5"/><path transform="translate(374,162)" d="M4,0A4,4,0,1,1,-4,0A4,4,0,1,1,4,0" fill="#f58518" stroke="#222" opacity="0.5"/><path transform="translate(377,160)" d="M4,0A4,4,0,1,1,-4,0A4,4,0,1,1,4,0" fill="#f58518" stroke="#222" opacity="0.5"/><path transform="translate(380,158)" d="M4,0A4,4,0,1,1,-4,0A4,4,0,1,1,4,0" fill="#f58518" stroke="#222" opacity="0.5"/><path transform="translate(383,156)" d="M4,0A4,4,0,1,1,-4,0A4,4,0,1,1,4,0" fill="#f58518" stroke="#222" opacity="0.5"/><path transform="translate(386,154)" d="M4,0A4,4,0,1,1,-4,0A4,4,0,1,1,4,0" fill="#f58518" stroke="#222" opacity="0.5"/><path transform="translate(389,152)" d="M4,0A4,4,0,1,1,-4,0A4,4,0,1,1,4,0" fill="#f58518" stroke="#222" opacity="0.5"/><path transform="translate(392,150)" d="M4,0A4,4,0,1,1,-4,0A4,4,0,1,1,4,0" fill="#f58518" stroke="#222" opacity="0.5"/><path transform="translate(395,148)" d="M4,0A4,4,0,1,1,-4,0A4,4,0,1,1,4,0" fill="#f58518" stroke="#222" opacity="0.5"/><path transform="translate(397,146)" d="M4,0A4,4,0,1,1,-4,0A4,4,0,1,1,4,0" fill="#f58518" stroke="#222" opacity="0.5"/><path transform="translate(400,144)" d="M4,0A4,4,0,1,1,-4,0A4,4,0,1,1,4,0" fill="#f58518" stroke="#222" opacity="0.5"/><path transform="translate(403,143)" d="M4,0A4,4,0,1,1,-4,0A4,4,0,1,1,4,0" fill="#f58518" stroke="#222" opacity="0.5"/><path transform="translate(406,141)" d="M4,0A4,4,0,1,1,-4,0A4,4,0,1,1,4,0" fill="#f58518" stroke="#222" opacity="0.5"/><path transform="translate(409,139)" d="M4,0A4,4,0,1,1,-4,0A4,4,0,1,1,4,0" fill="#f58518" stroke="#222" opacity="0.5"/><path transform="translate(412,137)" d="M4,0A4,4,0,1,1,-4,0A4,4,0,1,1,4,0" fill="#f58518" stroke="#222" opacity="0.5"/><path transform="translate(415,135)" d="M4,0A4,4,0,1,1,-4,0A4,4,0,1,1,4,0" fill="#f58518" stroke="#222" opacity="0.5"/><path transform="translate(418,133)" d="M4,0A4,4,0,1,1,-4,0A4,4,0,1,1,4,0" fill="#f58518" stroke="#222" opacity="0.5"/><path transform="translate(420,131)" d="M4,0A4,4,0,1,1,-4,0A4,4,0,1,1,4,0" fill="#f58518" stroke="#222" opacity="0.5"/><path transform="translate(423,129)" d="M4,0A4,4,0,1,1,-4,0A4,4,0,1,1,4,0" fill="#f58518" stroke="#222" opacity="0.5"/><path transform="translate(426,127)" d="M4,0A4,4,0,1,1,-4,0A4,4,0,1,1,4,0" fill="#f58518" stroke="#222" opacity="0.5"/><path transform="translate(429,125)" d="M4,0A4,4,0,1,1,-4,0A4,4,0,1,1,4,0" fill="#f58518" stroke="#222" opacity="0.5"/><path transform="translate(432,123)" d="M4,0A4,4,0,1,1,-4,0A4,4,0,1,1,4,0" fill="#f58518" stroke="#222" opacity="0.5"/><path transform="translate(435,121)" d="M4,0A4,4,0,1,1,-4,0A4,4,0,1,1,4,0" fill="#f58518" stroke="#222" opacity="0.5"/><path transform="translate(438,119)" d="M4,0A4,4,0,1,1,-4,0A4,4,0,1,1,4,0" fill="#f58518" stroke="#222" opacity="0.5"/><path transform="translate(441,117)" d="M4,0A4,4,0,1,1,-4,0A4,4,0,1,1,4,0" fill="#f58518" stroke="#222" opacity="0.5"/><path transform="translate(444,115)" d="M4,0A4,4,0,1,1,-4,0A4,4,0,1,1,4,0" fill="#f58518" stroke="#222" opacity="0.5"/><path transform="translate(446,113)" d="M4,0A4,4,0,1,1,-4,0A4,4,0,1,1,4,0" fill="#f58518" stroke="#222" opacity="0.5"/><path transform="translate(449,111)" d="M4,0A4,4,0,1,1,-4,0A4,4,0,1,1,4,0" fill="#f58518" stroke="#222" opacity="0.5"/><path transform="translate(452,109)" d="M4,0A4,4,0,1,1,-4,0A4,4,0,1,1,4,0" fill="#f58518" stroke="#222" opacity="0.5"/><path transform="translate(455,107)" d="M4,0A4,4,0,1,1,-4,0A4,4,0,1,1,4,0" fill="#f58518" stroke="#222" opacity="0.5"/><path transform="translate(458,105)" d="M4,0A4,4,0,1,1,-4,0A4,4,0,1,1,4,0" fill="#f58518" stroke="#222" opacity="0.5"/><path transform="translate(461,103)" d="M4,0A4,4,0,1,1,-4,0A4,4,0,1,1,4,0" fill="#f58518" stroke="#222" opacity="0.5"/><path transform="translate(464,101)" d="M4,0A4,4,0,1,1,-4,0A4,4,0,1,1,4,0" fill="#f58518" stroke="#222" opacity="0.5"/><path transform="translate(467,99)" d="M4,0A4,4,0,1,1,-4,0A4,4,0,1,1,4,0" fill="#f58518" stroke="#222" opacity="0.5"/><path transform="translate(469,97)" d="M4,0A4,4,0,1,1,-4,0A4,4,0,1,1,4,0" fill="#f58518" stroke="#222" opacity="0.5"/><path transform="translate(472,95)" d="M4,0A4,4,0,1,1,-4,0A4,4,0,1,1,4,0" fill="#f58518" stroke="#222" opacity="0.5"/><path transform="translate(475,93)" d="M4,0A4,4,0,1,1,-4,0A4,4,0,1,1,4,0" fill="#f58518" stroke="#222" opacity="0.5"/><path transform="translate(478,91)" d="M4,0A4,4,0,1,1,-4,0A4,4,0,1,1,4,0" fill="#f58518" stroke="#222" opacity="0.5"/><path transform="translate(481,89)" d="M4,0A4,4,0,1,1,-4,0A4,4,0,1,1,4,0" fill="#f58518" stroke="#222" opacity="0.5"/><path transform="translate(484,87)" d="M4,0A4,4,0,1,1,-4,0A4,4,0,1,1,4,0" fill="#f58518" stroke="#222" opacity="0.5"/><path transform="translate(487,85)" d="M4,0A4,4,0,1,1,-4,0A4,4,0,1,1,4,0" fill="#f58518" stroke="#222" opacity="0.5"/><path transform="translate(490,83)" d="M4,0A4,4,0,1,1,-4,0A4,4,0,1,1,4,0" fill="#f58518" stroke="#222" opacity="0.5"/><path transform="translate(492,81)" d="M4,0A4,4,0,1,1,-4,0A4,4,0,1,1,4,0" fill="#f58518" stroke="#222" opacity="0.5"/><path transform="translate(495,79)" d="M4,0A4,4,0,1,1,-4,0A4,4,0,1,1,4,0" fill="#f58518" stroke="#222" opacity="0.5"/><path transform="translate(498,77)" d="M4,0A4,4,0,1,1,-4,0A4,4,0,1,1,4,0" fill="#f58518" stroke="#222" opacity="0.5"/><path transform="translate(501,75)" d="M4,0A4,4,0,1,1,-4,0A4,4,0,1,1,4,0" fill="#f58518" stroke="#222" opacity="0.5"/><path transform="translate(504,73)" d="M4,0A4,4,0,1,1,-4,0A4,4,0,1,1,4,0" fill="#f58518" stroke="#222" opacity="0.5"/><path transform="translate(507,71)" d="M4,0A4,4,0,1,1,-4,0A4,4,0,1,1,4,0" fill="#f58518" stroke="#222" opacity="0.5"/><path transform="translate(510,69)" d="M4,0A4,4,0,1,1,-4,0A4,4,0,1,1,4,0" fill="#f58518" stroke="#222" opacity="0.5"/><path transform="translate(513,67)" d="M4,0A4,4,0,1,1,-4,0A4,4,0,1,1,4,0" fill="#f58518" stroke="#222" opacity="0.5"/><path transform="translate(516,65)" d="M4,0A4,4,0,1,1,-4,0A4,4,0,1,1,4,0" fill="#f58518" stroke="#222" opacity="0.5"/><path transform="translate(518,63)" d="M4,0A4,4,0,1,1,-4,0A4,4,0,1,1,4,0" fill="#f58518" stroke="#222" opacity="0.5"/><path transform="translate(521,60)" d="M4,0A4,4,0,1,1,-4,0A4,4,0,1,1,4,0" fill="#f58518" stroke="#222" opacity="0.5"/><path transform="translate(524,58)" d="M4,0A4,4,0,1,1,-4,0A4,4,0,1,1,4,0" fill="#f58518" stroke="#222" opacity="0.5"/><path transform="translate(527,56)" d="M4,0A4,4,0,1,1,-4,0A4,4,0,1,1,4,0" fill="#f58518" stroke="#222" opacity="0.5"/><path transform="translate(530,54)" d="M4,0A4,4,0,1,1,-4,0A4,4,0,1,1,4,0" fill="#f58518" stroke="#222" opacity="0.5"/><path transform="translate(533,52)" d="M4,0A4,4,0,1,1,-4,0A4,4,0,1,1,4,0" fill="#f58518" stroke="#222" opacity="0.5"/><path transform="translate(536,50)" d="M4,0A4,4,0,1,1,-4,0A4,4,0,1,1,4,0" fill="#f58518" stroke="#222" opacity="0.5"/><path transform="translate(539,48)" d="M4,0A4,4,0,1,1,-4,0A4,4,0,1,1,4,0" fill="#f58518" stroke="#222" opacity="0.5"/><path transform="translate(541,46)" d="M4,0A4,4,0,1,1,-4,0A4,4,0,1,1,4,0" fill="#f58518" stroke="#222" opacity="0.5"/><path transform="translate(544,44)" d="M4,0A4,4,0,1,1,-4,0A4,4,0,1,1,4,0" fill="#f58518" stroke="#222" opacity="0.5"/><path transform="translate(547,42)" d="M4,0A4,4,0,1,1,-4,0A4,4,0,1,1,4,0" fill="#f58518" stroke="#222" opacity="0.5"/><path transform="translate(550,39)" d="M4,0A4,4,0,1,1,-4,0A4,4,0,1,1,4,0" fill="#f58518" stroke="#222" opacity="0.5"/><path transform="translate(553,37)" d="M4,0A4,4,0,1,1,-4,0A4,4,0,1,1,4,0" fill="#f58518" stroke="#222" opacity="0.5"/><path transform="translate(556,35)" d="M4,0A4,4,0,1,1,-4,0A4,4,0,1,1,4,0" fill="#f58518" stroke="#222" opacity="0.5"/><path transform="translate(559,33)" d="M4,0A4,4,0,1,1,-4,0A4,4,0,1,1,4,0" fill="#f58518" stroke="#222" opacity="0.5"/><path transform="translate(562,31)" d="M4,0A4,4,0,1,1,-4,0A4,4,0,1,1,4,0" fill="#f58518" stroke="#222" opacity="0.5"/><path transform="translate(564,29)" d="M4,0A4,4,0,1,1,-4,0A4,4,0,1,1,4,0" fill="#f58518" stroke="#222" opacity="0.5"/><path transform="translate(567,27)" d="M4,0A4,4,0,1,1,-4,0A4,4,0,1,1,4,0" fill="#f58518" stroke="#222" opacity="0.5"/><path transform="translate(570,25)" d="M4,0A4,4,0,1,1,-4,0A4,4,0,1,1,4,0" fill="#f58518" stroke="#222" opacity="0.5"/><path transform="translate(573,22)" d="M4,0A4,4,0,1,1,-4,0A4,4,0,1,1,4,0" fill="#f58518" stroke="#222" opacity="0.5"/></g><g class="mark-group role-legend" role="graphics-symbol" aria-roledescription="legend" aria-label="Symbol legend for fill color with 2 values: Pool-Accept, Separate-H-Reject"><g transform="translate(594,0)"><path class="background" aria-hidden="true" d="M0,0h152v24h-152Z" pointer-events="none"/><g><g class="mark-group role-legend-entry"><g transform="translate(0,0)"><path class="background" aria-hidden="true" d="M0,0h0v0h0Z" pointer-events="none"/><g><g class="mark-group role-scope" role="graphics-object" aria-roledescription="group mark container"><g transform="translate(0,0)"><path class="background" aria-hidden="true" d="M0,0h152v11h-152Z" pointer-events="none" opacity="1"/><g><g class="mark-symbol role-legend-symbol" pointer-events="none"><path transform="translate(6,6)" d="M5,0A5,5,0,1,1,-5,0A5,5,0,1,1,5,0" fill="#4c78a8" stroke-width="1.5" opacity="1"/></g><g class="mark-text role-legend-label" pointer-events="none"><text text-anchor="start" transform="translate(16,9)" font-family="sans-serif" font-size="10px" fill="#000" opacity="1">Pool-Accept</text></g></g><path class="foreground" aria-hidden="true" d="" pointer-events="none" display="none"/></g><g transform="translate(0,13)"><path class="background" aria-hidden="true" d="M0,0h152v11h-152Z" pointer-events="none" opacity="1"/><g><g class="mark-symbol role-legend-symbol" pointer-events="none"><path transform="translate(6,6)" d="M5,0A5,5,0,1,1,-5,0A5,5,0,1,1,5,0" fill="#f58518" stroke-width="1.5" opacity="1"/></g><g class="mark-text role-legend-label" pointer-events="none"><text text-anchor="start" transform="translate(16,9)" font-family="sans-serif" font-size="10px" fill="#000" opacity="1">Separate-H-Reject</text></g></g><path class="foreground" aria-hidden="true" d="" pointer-events="none" display="none"/></g></g></g><path class="foreground" aria-hidden="true" d="" pointer-events="none" display="none"/></g></g></g><path class="foreground" aria-hidden="true" d="" pointer-events="none" display="none"/></g></g><g class="mark-group role-title"><g transform="translate(346,-22)"><path class="background" aria-hidden="true" d="M0,0h0v0h0Z" pointer-events="none"/><g><g class="mark-text role-title-text" role="graphics-symbol" aria-roledescription="title" aria-label="Title text 'Equilibrium0'" pointer-events="none"><text text-anchor="middle" transform="translate(0,10)" font-family="sans-serif" font-size="13px" font-weight="bold" fill="#000" opacity="1">Equilibrium0</text></g></g><path class="foreground" aria-hidden="true" d="" pointer-events="none" display="none"/></g></g></g><path class="foreground" aria-hidden="true" d="" display="none"/></g></g></g></svg>